%TF.GenerationSoftware,KiCad,Pcbnew,9.0.2*%
%TF.CreationDate,2025-06-26T14:56:16+08:00*%
%TF.ProjectId,deehli_board,64656568-6c69-45f6-926f-6172642e6b69,rev?*%
%TF.SameCoordinates,Original*%
%TF.FileFunction,Copper,L2,Bot*%
%TF.FilePolarity,Positive*%
%FSLAX46Y46*%
G04 Gerber Fmt 4.6, Leading zero omitted, Abs format (unit mm)*
G04 Created by KiCad (PCBNEW 9.0.2) date 2025-06-26 14:56:16*
%MOMM*%
%LPD*%
G01*
G04 APERTURE LIST*
G04 Aperture macros list*
%AMRoundRect*
0 Rectangle with rounded corners*
0 $1 Rounding radius*
0 $2 $3 $4 $5 $6 $7 $8 $9 X,Y pos of 4 corners*
0 Add a 4 corners polygon primitive as box body*
4,1,4,$2,$3,$4,$5,$6,$7,$8,$9,$2,$3,0*
0 Add four circle primitives for the rounded corners*
1,1,$1+$1,$2,$3*
1,1,$1+$1,$4,$5*
1,1,$1+$1,$6,$7*
1,1,$1+$1,$8,$9*
0 Add four rect primitives between the rounded corners*
20,1,$1+$1,$2,$3,$4,$5,0*
20,1,$1+$1,$4,$5,$6,$7,0*
20,1,$1+$1,$6,$7,$8,$9,0*
20,1,$1+$1,$8,$9,$2,$3,0*%
G04 Aperture macros list end*
%TA.AperFunction,ComponentPad*%
%ADD10RoundRect,0.250001X1.149999X-1.149999X1.149999X1.149999X-1.149999X1.149999X-1.149999X-1.149999X0*%
%TD*%
%TA.AperFunction,ComponentPad*%
%ADD11C,2.800000*%
%TD*%
%TA.AperFunction,ComponentPad*%
%ADD12R,1.700000X1.700000*%
%TD*%
%TA.AperFunction,ComponentPad*%
%ADD13C,1.700000*%
%TD*%
%TA.AperFunction,ComponentPad*%
%ADD14RoundRect,0.250000X-0.750000X-0.750000X0.750000X-0.750000X0.750000X0.750000X-0.750000X0.750000X0*%
%TD*%
%TA.AperFunction,ComponentPad*%
%ADD15C,2.000000*%
%TD*%
%TA.AperFunction,ComponentPad*%
%ADD16RoundRect,0.250001X-1.149999X-1.149999X1.149999X-1.149999X1.149999X1.149999X-1.149999X1.149999X0*%
%TD*%
%TA.AperFunction,ComponentPad*%
%ADD17RoundRect,0.250000X-0.550000X0.550000X-0.550000X-0.550000X0.550000X-0.550000X0.550000X0.550000X0*%
%TD*%
%TA.AperFunction,ComponentPad*%
%ADD18C,1.600000*%
%TD*%
%TA.AperFunction,ComponentPad*%
%ADD19RoundRect,0.250000X0.750000X0.750000X-0.750000X0.750000X-0.750000X-0.750000X0.750000X-0.750000X0*%
%TD*%
%TA.AperFunction,ComponentPad*%
%ADD20RoundRect,0.250000X0.550000X-0.550000X0.550000X0.550000X-0.550000X0.550000X-0.550000X-0.550000X0*%
%TD*%
%TA.AperFunction,ComponentPad*%
%ADD21R,1.350000X1.350000*%
%TD*%
%TA.AperFunction,ComponentPad*%
%ADD22C,1.350000*%
%TD*%
%TA.AperFunction,ComponentPad*%
%ADD23C,4.000000*%
%TD*%
%TA.AperFunction,ComponentPad*%
%ADD24R,1.600000X1.600000*%
%TD*%
%TA.AperFunction,ComponentPad*%
%ADD25R,1.275000X1.800000*%
%TD*%
%TA.AperFunction,ComponentPad*%
%ADD26O,1.275000X1.800000*%
%TD*%
%TA.AperFunction,ComponentPad*%
%ADD27R,1.800000X1.275000*%
%TD*%
%TA.AperFunction,ComponentPad*%
%ADD28O,1.800000X1.275000*%
%TD*%
%TA.AperFunction,ComponentPad*%
%ADD29RoundRect,0.250000X-0.550000X-0.550000X0.550000X-0.550000X0.550000X0.550000X-0.550000X0.550000X0*%
%TD*%
%TA.AperFunction,ComponentPad*%
%ADD30O,3.200000X5.000000*%
%TD*%
%TA.AperFunction,ComponentPad*%
%ADD31R,2.000000X4.000000*%
%TD*%
%TA.AperFunction,ComponentPad*%
%ADD32O,2.000000X3.300000*%
%TD*%
%TA.AperFunction,ComponentPad*%
%ADD33O,3.500000X2.000000*%
%TD*%
%TA.AperFunction,ComponentPad*%
%ADD34RoundRect,0.250000X-0.750000X0.750000X-0.750000X-0.750000X0.750000X-0.750000X0.750000X0.750000X0*%
%TD*%
%TA.AperFunction,ComponentPad*%
%ADD35RoundRect,0.250000X1.350000X-1.350000X1.350000X1.350000X-1.350000X1.350000X-1.350000X-1.350000X0*%
%TD*%
%TA.AperFunction,ComponentPad*%
%ADD36C,3.200000*%
%TD*%
%TA.AperFunction,ComponentPad*%
%ADD37RoundRect,0.250000X1.350000X1.350000X-1.350000X1.350000X-1.350000X-1.350000X1.350000X-1.350000X0*%
%TD*%
%TA.AperFunction,ComponentPad*%
%ADD38RoundRect,0.250000X-1.350000X-1.350000X1.350000X-1.350000X1.350000X1.350000X-1.350000X1.350000X0*%
%TD*%
%TA.AperFunction,ViaPad*%
%ADD39C,2.000000*%
%TD*%
%TA.AperFunction,Conductor*%
%ADD40C,2.000000*%
%TD*%
%TA.AperFunction,Conductor*%
%ADD41C,3.000000*%
%TD*%
%TA.AperFunction,Conductor*%
%ADD42C,1.500000*%
%TD*%
%TA.AperFunction,Conductor*%
%ADD43C,1.000000*%
%TD*%
%TA.AperFunction,Conductor*%
%ADD44C,1.270000*%
%TD*%
G04 APERTURE END LIST*
D10*
%TO.P,J6,1,Pin_1*%
%TO.N,CAN_L*%
X107500000Y-73891022D03*
D11*
%TO.P,J6,2,Pin_2*%
%TO.N,CAN_H*%
X107500000Y-68891022D03*
%TO.P,J6,3,Pin_3*%
%TO.N,GND*%
X107500000Y-63891022D03*
%TO.P,J6,4,Pin_4*%
%TO.N,15V_Other*%
X107500000Y-58891022D03*
%TD*%
D12*
%TO.P,PWR_IN2,1,Pin_1*%
%TO.N,Net-(PWR_IN2-Pin_1)*%
X45021584Y-83891022D03*
D13*
%TO.P,PWR_IN2,2,Pin_2*%
%TO.N,GND*%
X47561584Y-83891022D03*
%TD*%
D14*
%TO.P,C6,1*%
%TO.N,15V_ZDT*%
X79632323Y-64891022D03*
D15*
%TO.P,C6,2*%
%TO.N,GND*%
X84632323Y-64891022D03*
%TD*%
D16*
%TO.P,J5,1,Pin_1*%
%TO.N,GND*%
X99000000Y-82391022D03*
D11*
%TO.P,J5,2,Pin_2*%
%TO.N,CAN_H*%
X104000000Y-82391022D03*
%TO.P,J5,3,Pin_3*%
%TO.N,CAN_L*%
X109000000Y-82391022D03*
%TD*%
D17*
%TO.P,C5,1*%
%TO.N,5V_Other*%
X62000000Y-62208643D03*
D18*
%TO.P,C5,2*%
%TO.N,Net-(D12-K)*%
X62000000Y-64708643D03*
%TD*%
D19*
%TO.P,C3,1*%
%TO.N,5V_Servo12*%
X90867677Y-49581022D03*
D15*
%TO.P,C3,2*%
%TO.N,GND*%
X85867677Y-49581022D03*
%TD*%
D12*
%TO.P,J3,1,Pin_1*%
%TO.N,15V_Other*%
X61540000Y-83891022D03*
D13*
%TO.P,J3,2,Pin_2*%
%TO.N,5V_Other*%
X59000000Y-83891022D03*
%TO.P,J3,3,Pin_3*%
%TO.N,3.3V_Other*%
X56460000Y-83891022D03*
%TO.P,J3,4,Pin_4*%
%TO.N,GND*%
X53920000Y-83891022D03*
%TD*%
D20*
%TO.P,C1,1*%
%TO.N,Net-(SW1A-B)*%
X48000000Y-58391022D03*
D18*
%TO.P,C1,2*%
%TO.N,GND*%
X48000000Y-55891022D03*
%TD*%
D21*
%TO.P,JP1,1,A*%
%TO.N,unconnected-(JP1-A-Pad1)*%
X77000000Y-75891022D03*
D22*
%TO.P,JP1,2,B*%
%TO.N,unconnected-(JP1-B-Pad2)*%
X79000000Y-75891022D03*
%TD*%
D23*
%TO.P,J4,0,PAD*%
%TO.N,GND*%
X67000000Y-82891022D03*
X92000000Y-82891022D03*
D24*
%TO.P,J4,1,1*%
%TO.N,unconnected-(J4-Pad1)*%
X85040000Y-80051022D03*
D18*
%TO.P,J4,2,2*%
%TO.N,CAN_L*%
X82270000Y-80051022D03*
%TO.P,J4,3,3*%
%TO.N,CAN_H*%
X79500000Y-80051022D03*
%TO.P,J4,4,4*%
%TO.N,unconnected-(J4-Pad4)*%
X76730000Y-80051022D03*
%TO.P,J4,5,5*%
%TO.N,unconnected-(J4-Pad5)*%
X73960000Y-80051022D03*
%TO.P,J4,6,6*%
%TO.N,GND*%
X83655000Y-82891022D03*
%TO.P,J4,7,7*%
%TO.N,3.3V_Other*%
X80885000Y-82891022D03*
%TO.P,J4,8,8*%
%TO.N,5V_Other*%
X78115000Y-82891022D03*
%TO.P,J4,9,9*%
%TO.N,15V_ZDT*%
X75345000Y-82891022D03*
%TD*%
D12*
%TO.P,J2,1,Pin_1*%
%TO.N,Net-(J1-Pin_1)*%
X100500000Y-43951397D03*
D13*
%TO.P,J2,2,Pin_2*%
%TO.N,Net-(J1-Pin_2)*%
X100500000Y-46491397D03*
%TO.P,J2,3,Pin_3*%
%TO.N,Net-(J1-Pin_3)*%
X100500000Y-49031397D03*
%TO.P,J2,4,Pin_4*%
%TO.N,Net-(J1-Pin_4)*%
X100500000Y-51571397D03*
%TD*%
D25*
%TO.P,U3,1,VIN*%
%TO.N,Net-(SW1A-B)*%
X91900000Y-40131022D03*
D26*
%TO.P,U3,2,OUT*%
%TO.N,5V_Servo12*%
X90200000Y-40131022D03*
%TO.P,U3,3,GND*%
%TO.N,GND*%
X88500000Y-40131022D03*
%TO.P,U3,4,FB*%
%TO.N,5V_Servo12*%
X86800000Y-40131022D03*
%TO.P,U3,5,~{ON}/OFF*%
%TO.N,GND*%
X85100000Y-40131022D03*
%TD*%
D27*
%TO.P,U6,1,VIN*%
%TO.N,Net-(SW1A-B)*%
X69500000Y-69591022D03*
D28*
%TO.P,U6,2,OUT*%
%TO.N,15V_ZDT*%
X69500000Y-67891022D03*
%TO.P,U6,3,GND*%
%TO.N,GND*%
X69500000Y-66191022D03*
%TO.P,U6,4,FB*%
%TO.N,15V_ZDT*%
X69500000Y-64491022D03*
%TO.P,U6,5,~{ON}/OFF*%
%TO.N,GND*%
X69500000Y-62791022D03*
%TD*%
D19*
%TO.P,C2,1*%
%TO.N,5V_Servo34*%
X75000000Y-49457183D03*
D15*
%TO.P,C2,2*%
%TO.N,GND*%
X70000000Y-49457183D03*
%TD*%
D21*
%TO.P,JP2,1,A*%
%TO.N,Net-(JP2-A)*%
X92500000Y-75891022D03*
D22*
%TO.P,JP2,2,B*%
%TO.N,CAN_L*%
X90500000Y-75891022D03*
%TD*%
D29*
%TO.P,C4,1*%
%TO.N,3.3V_Other*%
X47817621Y-67891022D03*
D18*
%TO.P,C4,2*%
%TO.N,GND*%
X50317621Y-67891022D03*
%TD*%
D30*
%TO.P,SW1,1,A*%
%TO.N,GND*%
X31203344Y-82146524D03*
%TO.P,SW1,2,B*%
%TO.N,Net-(SW1A-B)*%
X35653344Y-82146524D03*
%TO.P,SW1,3,C*%
%TO.N,Net-(PWR_IN2-Pin_1)*%
X40103344Y-82146524D03*
%TD*%
D27*
%TO.P,U4,1,VIN*%
%TO.N,Net-(SW1A-B)*%
X93500000Y-57191022D03*
D28*
%TO.P,U4,2,OUT*%
%TO.N,15V_Other*%
X93500000Y-58891022D03*
%TO.P,U4,3,GND*%
%TO.N,GND*%
X93500000Y-60591022D03*
%TO.P,U4,4,FB*%
%TO.N,15V_Other*%
X93500000Y-62291022D03*
%TO.P,U4,5,~{ON}/OFF*%
%TO.N,GND*%
X93500000Y-63991022D03*
%TD*%
D31*
%TO.P,PWR_IN1,1*%
%TO.N,Net-(PWR_IN2-Pin_1)*%
X41000000Y-67641022D03*
D32*
%TO.P,PWR_IN1,2*%
%TO.N,GND*%
X35000000Y-67641022D03*
D33*
%TO.P,PWR_IN1,MP,MountPin*%
X34000000Y-63141022D03*
X34000000Y-72141022D03*
%TD*%
D25*
%TO.P,U2,1,VIN*%
%TO.N,Net-(SW1A-B)*%
X76032323Y-40007183D03*
D26*
%TO.P,U2,2,OUT*%
%TO.N,5V_Servo34*%
X74332323Y-40007183D03*
%TO.P,U2,3,GND*%
%TO.N,GND*%
X72632323Y-40007183D03*
%TO.P,U2,4,FB*%
%TO.N,5V_Servo34*%
X70932323Y-40007183D03*
%TO.P,U2,5,~{ON}/OFF*%
%TO.N,GND*%
X69232323Y-40007183D03*
%TD*%
D12*
%TO.P,J1,1,Pin_1*%
%TO.N,Net-(J1-Pin_1)*%
X104500000Y-43891022D03*
D13*
%TO.P,J1,2,Pin_2*%
%TO.N,Net-(J1-Pin_2)*%
X104500000Y-46431022D03*
%TO.P,J1,3,Pin_3*%
%TO.N,Net-(J1-Pin_3)*%
X104500000Y-48971022D03*
%TO.P,J1,4,Pin_4*%
%TO.N,Net-(J1-Pin_4)*%
X104500000Y-51511022D03*
D12*
%TO.P,J1,5,Pin_5*%
%TO.N,5V_Servo12*%
X107000000Y-43891022D03*
D13*
%TO.P,J1,6,Pin_6*%
X107000000Y-46431022D03*
%TO.P,J1,7,Pin_7*%
%TO.N,5V_Servo34*%
X107000000Y-48971022D03*
%TO.P,J1,8,Pin_8*%
X107000000Y-51511022D03*
D12*
%TO.P,J1,9,Pin_9*%
%TO.N,GND*%
X109500000Y-43891022D03*
D13*
%TO.P,J1,10,Pin_10*%
X109500000Y-46431022D03*
%TO.P,J1,11,Pin_11*%
X109500000Y-48971022D03*
%TO.P,J1,12,Pin_12*%
X109500000Y-51511022D03*
%TD*%
D34*
%TO.P,C7,1*%
%TO.N,15V_Other*%
X101000000Y-61023345D03*
D15*
%TO.P,C7,2*%
%TO.N,GND*%
X101000000Y-66023345D03*
%TD*%
D35*
%TO.P,D9,1,K*%
%TO.N,5V_Servo34*%
X65000000Y-55701022D03*
D36*
%TO.P,D9,2,A*%
%TO.N,GND*%
X65000000Y-40461022D03*
%TD*%
D37*
%TO.P,D8,1,K*%
%TO.N,15V_Other*%
X89500000Y-60891022D03*
D36*
%TO.P,D8,2,A*%
%TO.N,GND*%
X74260000Y-60891022D03*
%TD*%
D35*
%TO.P,D10,1,K*%
%TO.N,5V_Servo12*%
X81500000Y-55701022D03*
D36*
%TO.P,D10,2,A*%
%TO.N,GND*%
X81500000Y-40461022D03*
%TD*%
D38*
%TO.P,D11,1,K*%
%TO.N,15V_ZDT*%
X74380000Y-69391022D03*
D36*
%TO.P,D11,2,A*%
%TO.N,GND*%
X89620000Y-69391022D03*
%TD*%
D35*
%TO.P,D12,1,K*%
%TO.N,Net-(D12-K)*%
X55365000Y-67036022D03*
D36*
%TO.P,D12,2,A*%
%TO.N,GND*%
X55365000Y-51796022D03*
%TD*%
D39*
%TO.N,GND*%
X32625611Y-76956568D03*
%TO.N,5V_Other*%
X55000000Y-75091022D03*
X58165000Y-68191022D03*
X62000000Y-73500000D03*
%TO.N,15V_Other*%
X65000000Y-72891022D03*
%TO.N,3.3V_Other*%
X56005614Y-78941022D03*
%TO.N,Net-(SW1A-B)*%
X96000000Y-47391022D03*
X96000000Y-49391022D03*
%TO.N,5V_Servo12*%
X103500000Y-38391022D03*
X105975000Y-38416022D03*
%TO.N,5V_Servo34*%
X77500000Y-47391022D03*
%TO.N,Net-(D12-K)*%
X55000000Y-57391022D03*
%TD*%
D40*
%TO.N,GND*%
X35000000Y-67641022D02*
X35000000Y-64141022D01*
D41*
X99000000Y-82391022D02*
X101367204Y-80023818D01*
X70000000Y-51891022D02*
X70000000Y-54391022D01*
D42*
X69050000Y-60341022D02*
X69050000Y-62341022D01*
X98500000Y-82891022D02*
X99000000Y-82391022D01*
X67000000Y-63391022D02*
X67000000Y-62391022D01*
D40*
X35000000Y-64141022D02*
X34000000Y-63141022D01*
X34000000Y-75582179D02*
X32625611Y-76956568D01*
X109500000Y-51511022D02*
X110499000Y-52510022D01*
D41*
X70000000Y-56631022D02*
X74260000Y-60891022D01*
D42*
X67000000Y-64500000D02*
X67000000Y-63391022D01*
X68691022Y-66191022D02*
X67000000Y-64500000D01*
X68050000Y-62341022D02*
X69050000Y-62341022D01*
D41*
X102414213Y-66023345D02*
X104546536Y-63891022D01*
D42*
X35000000Y-71141022D02*
X34000000Y-72141022D01*
X69500000Y-66191022D02*
X68691022Y-66191022D01*
D40*
X110499000Y-60892022D02*
X107500000Y-63891022D01*
D41*
X104546536Y-63891022D02*
X107500000Y-63891022D01*
D40*
X83655000Y-82891022D02*
X98500000Y-82891022D01*
X35000000Y-67641022D02*
X35000000Y-71141022D01*
X110499000Y-52510022D02*
X110499000Y-60892022D01*
D41*
X70000000Y-54391022D02*
X70000000Y-56631022D01*
D42*
X69500000Y-62791022D02*
X69500000Y-58391022D01*
X69050000Y-62341022D02*
X69500000Y-62791022D01*
D40*
X69500000Y-58391022D02*
X69500000Y-59891022D01*
D42*
X67000000Y-63391022D02*
X68050000Y-62341022D01*
D41*
X70000000Y-49457183D02*
X70000000Y-51891022D01*
D42*
X69500000Y-58391022D02*
X70000000Y-57891022D01*
X69500000Y-59891022D02*
X69050000Y-60341022D01*
D40*
X34000000Y-72141022D02*
X34000000Y-75582179D01*
D42*
X67000000Y-62391022D02*
X69500000Y-59891022D01*
D41*
X101000000Y-66023345D02*
X102414213Y-66023345D01*
X70000000Y-56631022D02*
X70000000Y-57891022D01*
X101367204Y-66390549D02*
X101000000Y-66023345D01*
D40*
X109500000Y-51511022D02*
X109500000Y-43891022D01*
D41*
X101367204Y-80023818D02*
X101367204Y-66390549D01*
X55365000Y-51796022D02*
X67405000Y-51796022D01*
X67405000Y-51796022D02*
X70000000Y-54391022D01*
D42*
%TO.N,5V_Other*%
X59748919Y-85842022D02*
X75164000Y-85842022D01*
X55500000Y-75091022D02*
X59000000Y-78591022D01*
X59000000Y-78591022D02*
X59000000Y-83891022D01*
D43*
X58165000Y-68191022D02*
X61808978Y-68191022D01*
X63708643Y-62208643D02*
X62000000Y-62208643D01*
X61808978Y-68191022D02*
X64791357Y-65208643D01*
X59000000Y-78591022D02*
X62000000Y-75591022D01*
D42*
X75164000Y-85842022D02*
X78115000Y-82891022D01*
D43*
X64791357Y-63291357D02*
X63708643Y-62208643D01*
X64791357Y-65208643D02*
X64791357Y-63291357D01*
X62000000Y-75591022D02*
X62000000Y-73500000D01*
D42*
X55000000Y-75091022D02*
X55500000Y-75091022D01*
X59000000Y-83891022D02*
X59000000Y-85093103D01*
X59000000Y-85093103D02*
X59748919Y-85842022D01*
%TO.N,CAN_L*%
X82270000Y-78919652D02*
X85298630Y-75891022D01*
X85298630Y-75891022D02*
X90500000Y-75891022D01*
X109000000Y-75391022D02*
X107500000Y-73891022D01*
X82270000Y-80051022D02*
X82270000Y-78919652D01*
X109000000Y-82391022D02*
X109000000Y-75391022D01*
%TO.N,CAN_H*%
X104000000Y-72391022D02*
X104000000Y-82391022D01*
X107500000Y-68891022D02*
X104000000Y-72391022D01*
D40*
%TO.N,15V_Other*%
X67000000Y-72891022D02*
X79745008Y-72891022D01*
X65000000Y-75000000D02*
X65000000Y-79877573D01*
D42*
X99732323Y-62291022D02*
X101000000Y-61023345D01*
D40*
X89500000Y-63136030D02*
X89500000Y-60891022D01*
X79745008Y-72891022D02*
X89500000Y-63136030D01*
D41*
X101000000Y-61023345D02*
X101000000Y-58891022D01*
D40*
X67000000Y-73000000D02*
X65000000Y-75000000D01*
D42*
X93500000Y-58891022D02*
X91500000Y-58891022D01*
X93500000Y-62291022D02*
X99732323Y-62291022D01*
D40*
X101000000Y-58891022D02*
X107500000Y-58891022D01*
X65000000Y-72891022D02*
X65000000Y-75000000D01*
D42*
X93500000Y-62291022D02*
X90900000Y-62291022D01*
X101000000Y-58891022D02*
X93500000Y-58891022D01*
X90900000Y-62291022D02*
X89500000Y-60891022D01*
D40*
X65000000Y-79877573D02*
X61540000Y-83337573D01*
X65000000Y-72891022D02*
X67000000Y-72891022D01*
X67000000Y-72891022D02*
X67000000Y-73000000D01*
D42*
X91500000Y-58891022D02*
X89500000Y-60891022D01*
D40*
X61540000Y-83337573D02*
X61540000Y-83891022D01*
D42*
%TO.N,3.3V_Other*%
X56000000Y-83431022D02*
X56460000Y-83891022D01*
X56000000Y-78946636D02*
X56000000Y-83431022D01*
X56005614Y-78941022D02*
X56000000Y-78946636D01*
D41*
%TO.N,Net-(SW1A-B)*%
X44500000Y-60891022D02*
X44500000Y-50891022D01*
D40*
X77116161Y-40007183D02*
X78000000Y-40891022D01*
X93000000Y-40391022D02*
X93000000Y-43891022D01*
X79500000Y-43891022D02*
X93000000Y-43891022D01*
X93552737Y-43891022D02*
X93000000Y-43891022D01*
D42*
X93552737Y-44943759D02*
X96000000Y-47391022D01*
X92740000Y-40131022D02*
X93000000Y-40391022D01*
D41*
X44500000Y-70391022D02*
X44500000Y-60891022D01*
X35653344Y-79237678D02*
X44500000Y-70391022D01*
D42*
X93552737Y-43891022D02*
X93552737Y-44943759D01*
X91900000Y-40131022D02*
X92740000Y-40131022D01*
D41*
X44500000Y-50891022D02*
X51500000Y-43891022D01*
D42*
X93552737Y-44943759D02*
X93552737Y-46943759D01*
D41*
X51500000Y-43891022D02*
X77000000Y-43891022D01*
D40*
X79000000Y-43891022D02*
X79500000Y-43891022D01*
D41*
X35653344Y-82146524D02*
X35653344Y-79237678D01*
D42*
X69500000Y-69591022D02*
X69500000Y-70391022D01*
D41*
X48000000Y-58391022D02*
X47000000Y-58391022D01*
X47000000Y-58391022D02*
X44500000Y-60891022D01*
D40*
X78000000Y-42891022D02*
X77000000Y-43891022D01*
D42*
X93552737Y-46943759D02*
X96000000Y-49391022D01*
X76032323Y-40007183D02*
X77116161Y-40007183D01*
D40*
X78000000Y-42891022D02*
X79000000Y-43891022D01*
D41*
X48000000Y-58391022D02*
X46500000Y-58391022D01*
D40*
X69500000Y-70391022D02*
X44500000Y-70391022D01*
X77000000Y-43891022D02*
X79500000Y-43891022D01*
X78000000Y-40891022D02*
X78000000Y-42891022D01*
%TO.N,5V_Servo12*%
X106500000Y-41391022D02*
X103500000Y-38391022D01*
X105975000Y-38416022D02*
X107000000Y-39441022D01*
X107000000Y-41391022D02*
X106500000Y-41391022D01*
X107000000Y-39441022D02*
X107000000Y-41391022D01*
X107000000Y-41391022D02*
X107000000Y-46431022D01*
%TO.N,5V_Servo34*%
X77500000Y-47391022D02*
X77500000Y-51957183D01*
X107000000Y-48971022D02*
X107000000Y-52891022D01*
X77500000Y-47391022D02*
X77500000Y-49391022D01*
X87500000Y-52391022D02*
X77933839Y-52391022D01*
X77933839Y-52391022D02*
X76216920Y-50674102D01*
X76216920Y-50674102D02*
X75000000Y-49457183D01*
X77500000Y-49391022D02*
X76216920Y-50674102D01*
X107000000Y-52891022D02*
X105000000Y-54891022D01*
X77500000Y-51957183D02*
X77933839Y-52391022D01*
X90000000Y-54891022D02*
X87500000Y-52391022D01*
X105000000Y-54891022D02*
X90000000Y-54891022D01*
D44*
%TO.N,Net-(D12-K)*%
X55365000Y-67036022D02*
X57901022Y-64500000D01*
X57901022Y-64500000D02*
X61791357Y-64500000D01*
X55000000Y-57391022D02*
X55000000Y-66671022D01*
X61791357Y-64500000D02*
X62000000Y-64708643D01*
D43*
X55000000Y-66671022D02*
X55365000Y-67036022D01*
%TD*%
M02*
