%TF.GenerationSoftware,KiCad,Pcbnew,9.0.2*%
%TF.CreationDate,2025-06-26T14:56:16+08:00*%
%TF.ProjectId,deehli_board,64656568-6c69-45f6-926f-6172642e6b69,rev?*%
%TF.SameCoordinates,Original*%
%TF.FileFunction,Soldermask,Top*%
%TF.FilePolarity,Negative*%
%FSLAX46Y46*%
G04 Gerber Fmt 4.6, Leading zero omitted, Abs format (unit mm)*
G04 Created by KiCad (PCBNEW 9.0.2) date 2025-06-26 14:56:16*
%MOMM*%
%LPD*%
G01*
G04 APERTURE LIST*
G04 Aperture macros list*
%AMRoundRect*
0 Rectangle with rounded corners*
0 $1 Rounding radius*
0 $2 $3 $4 $5 $6 $7 $8 $9 X,Y pos of 4 corners*
0 Add a 4 corners polygon primitive as box body*
4,1,4,$2,$3,$4,$5,$6,$7,$8,$9,$2,$3,0*
0 Add four circle primitives for the rounded corners*
1,1,$1+$1,$2,$3*
1,1,$1+$1,$4,$5*
1,1,$1+$1,$6,$7*
1,1,$1+$1,$8,$9*
0 Add four rect primitives between the rounded corners*
20,1,$1+$1,$2,$3,$4,$5,0*
20,1,$1+$1,$4,$5,$6,$7,0*
20,1,$1+$1,$6,$7,$8,$9,0*
20,1,$1+$1,$8,$9,$2,$3,0*%
G04 Aperture macros list end*
%ADD10RoundRect,0.250000X0.325000X0.450000X-0.325000X0.450000X-0.325000X-0.450000X0.325000X-0.450000X0*%
%ADD11RoundRect,0.250001X1.149999X-1.149999X1.149999X1.149999X-1.149999X1.149999X-1.149999X-1.149999X0*%
%ADD12C,2.800000*%
%ADD13R,1.700000X1.700000*%
%ADD14C,1.700000*%
%ADD15RoundRect,0.250000X-0.750000X-0.750000X0.750000X-0.750000X0.750000X0.750000X-0.750000X0.750000X0*%
%ADD16C,2.000000*%
%ADD17RoundRect,0.250001X-1.149999X-1.149999X1.149999X-1.149999X1.149999X1.149999X-1.149999X1.149999X0*%
%ADD18RoundRect,0.250000X-0.550000X0.550000X-0.550000X-0.550000X0.550000X-0.550000X0.550000X0.550000X0*%
%ADD19C,1.600000*%
%ADD20RoundRect,0.250000X0.750000X0.750000X-0.750000X0.750000X-0.750000X-0.750000X0.750000X-0.750000X0*%
%ADD21RoundRect,0.250000X-0.350000X-0.450000X0.350000X-0.450000X0.350000X0.450000X-0.350000X0.450000X0*%
%ADD22RoundRect,0.250000X0.550000X-0.550000X0.550000X0.550000X-0.550000X0.550000X-0.550000X-0.550000X0*%
%ADD23RoundRect,0.250000X-0.450000X0.350000X-0.450000X-0.350000X0.450000X-0.350000X0.450000X0.350000X0*%
%ADD24RoundRect,0.375000X0.625000X0.375000X-0.625000X0.375000X-0.625000X-0.375000X0.625000X-0.375000X0*%
%ADD25RoundRect,0.500000X0.500000X1.400000X-0.500000X1.400000X-0.500000X-1.400000X0.500000X-1.400000X0*%
%ADD26RoundRect,0.250000X0.450000X-0.325000X0.450000X0.325000X-0.450000X0.325000X-0.450000X-0.325000X0*%
%ADD27R,1.350000X1.350000*%
%ADD28C,1.350000*%
%ADD29C,4.000000*%
%ADD30R,1.600000X1.600000*%
%ADD31R,1.275000X1.800000*%
%ADD32O,1.275000X1.800000*%
%ADD33RoundRect,0.150000X0.150000X-0.825000X0.150000X0.825000X-0.150000X0.825000X-0.150000X-0.825000X0*%
%ADD34R,1.800000X1.275000*%
%ADD35O,1.800000X1.275000*%
%ADD36RoundRect,0.250000X0.350000X0.450000X-0.350000X0.450000X-0.350000X-0.450000X0.350000X-0.450000X0*%
%ADD37RoundRect,0.250000X-0.450000X0.325000X-0.450000X-0.325000X0.450000X-0.325000X0.450000X0.325000X0*%
%ADD38RoundRect,0.250000X-0.325000X-0.450000X0.325000X-0.450000X0.325000X0.450000X-0.325000X0.450000X0*%
%ADD39RoundRect,0.250000X-0.550000X-0.550000X0.550000X-0.550000X0.550000X0.550000X-0.550000X0.550000X0*%
%ADD40RoundRect,0.250000X0.450000X-0.350000X0.450000X0.350000X-0.450000X0.350000X-0.450000X-0.350000X0*%
%ADD41R,2.000000X4.000000*%
%ADD42O,2.000000X3.300000*%
%ADD43O,3.500000X2.000000*%
%ADD44RoundRect,0.250000X-0.750000X0.750000X-0.750000X-0.750000X0.750000X-0.750000X0.750000X0.750000X0*%
%ADD45RoundRect,0.250000X1.350000X-1.350000X1.350000X1.350000X-1.350000X1.350000X-1.350000X-1.350000X0*%
%ADD46C,3.200000*%
%ADD47RoundRect,0.250000X1.350000X1.350000X-1.350000X1.350000X-1.350000X-1.350000X1.350000X-1.350000X0*%
%ADD48RoundRect,0.250000X-1.350000X-1.350000X1.350000X-1.350000X1.350000X1.350000X-1.350000X1.350000X0*%
G04 APERTURE END LIST*
D10*
%TO.C,D7*%
X79525000Y-71391022D03*
X77475000Y-71391022D03*
%TD*%
D11*
%TO.C,J6*%
X107500000Y-73891022D03*
D12*
X107500000Y-68891022D03*
X107500000Y-63891022D03*
X107500000Y-58891022D03*
%TD*%
D13*
%TO.C,PWR_IN2*%
X45021584Y-83891022D03*
D14*
X47561584Y-83891022D03*
%TD*%
D15*
%TO.C,C6*%
X79632323Y-64891022D03*
D16*
X84632323Y-64891022D03*
%TD*%
D17*
%TO.C,J5*%
X99000000Y-82391022D03*
D12*
X104000000Y-82391022D03*
X109000000Y-82391022D03*
%TD*%
D18*
%TO.C,C5*%
X62000000Y-62208643D03*
D19*
X62000000Y-64708643D03*
%TD*%
D20*
%TO.C,C3*%
X90867677Y-49581022D03*
D16*
X85867677Y-49581022D03*
%TD*%
D10*
%TO.C,D3*%
X108025000Y-40891021D03*
X105975000Y-40891021D03*
%TD*%
D13*
%TO.C,J3*%
X61540000Y-83891022D03*
D14*
X59000000Y-83891022D03*
X56460000Y-83891022D03*
X53920000Y-83891022D03*
%TD*%
D21*
%TO.C,R8*%
X96000000Y-76391022D03*
X98000000Y-76391022D03*
%TD*%
D22*
%TO.C,C1*%
X48000000Y-58391022D03*
D19*
X48000000Y-55891022D03*
%TD*%
D23*
%TO.C,R5*%
X35912301Y-74577467D03*
X35912301Y-76577467D03*
%TD*%
D24*
%TO.C,U5*%
X52650000Y-79691022D03*
X52650000Y-77391022D03*
D25*
X46350000Y-77391022D03*
D24*
X52650000Y-75091022D03*
%TD*%
D26*
%TO.C,D5*%
X29853672Y-76679835D03*
X29853672Y-74629835D03*
%TD*%
D27*
%TO.C,JP1*%
X77000000Y-75891022D03*
D28*
X79000000Y-75891022D03*
%TD*%
D29*
%TO.C,J4*%
X67000000Y-82891022D03*
X92000000Y-82891022D03*
D30*
X85040000Y-80051022D03*
D19*
X82270000Y-80051022D03*
X79500000Y-80051022D03*
X76730000Y-80051022D03*
X73960000Y-80051022D03*
X83655000Y-82891022D03*
X80885000Y-82891022D03*
X78115000Y-82891022D03*
X75345000Y-82891022D03*
%TD*%
D13*
%TO.C,J2*%
X100500000Y-43951397D03*
D14*
X100500000Y-46491397D03*
X100500000Y-49031397D03*
X100500000Y-51571397D03*
%TD*%
D31*
%TO.C,U3*%
X91900000Y-40131022D03*
D32*
X90200000Y-40131022D03*
X88500000Y-40131022D03*
X86800000Y-40131022D03*
X85100000Y-40131022D03*
%TD*%
D21*
%TO.C,R3*%
X102000000Y-54391022D03*
X104000000Y-54391022D03*
%TD*%
D33*
%TO.C,U1*%
X53460000Y-59891022D03*
X54730000Y-59891022D03*
X56000000Y-59891022D03*
X57270000Y-59891022D03*
X57270000Y-54941022D03*
X56000000Y-54941022D03*
X54730000Y-54941022D03*
X53460000Y-54941022D03*
%TD*%
D34*
%TO.C,U6*%
X69500000Y-69591022D03*
D35*
X69500000Y-67891022D03*
X69500000Y-66191022D03*
X69500000Y-64491022D03*
X69500000Y-62791022D03*
%TD*%
D36*
%TO.C,R6*%
X52000000Y-72391022D03*
X50000000Y-72391022D03*
%TD*%
D20*
%TO.C,C2*%
X75000000Y-49457183D03*
D16*
X70000000Y-49457183D03*
%TD*%
D36*
%TO.C,R7*%
X87000000Y-71391022D03*
X85000000Y-71391022D03*
%TD*%
D23*
%TO.C,R1*%
X59865000Y-52416022D03*
X59865000Y-54416022D03*
%TD*%
D37*
%TO.C,D1*%
X59865000Y-56416022D03*
X59865000Y-58466022D03*
%TD*%
D27*
%TO.C,JP2*%
X92500000Y-75891022D03*
D28*
X90500000Y-75891022D03*
%TD*%
D38*
%TO.C,D2*%
X105975000Y-54391022D03*
X108025000Y-54391022D03*
%TD*%
D10*
%TO.C,D6*%
X48025000Y-72391022D03*
X45975000Y-72391022D03*
%TD*%
D39*
%TO.C,C4*%
X47817621Y-67891022D03*
D19*
X50317621Y-67891022D03*
%TD*%
D40*
%TO.C,R2*%
X110500000Y-40891022D03*
X110500000Y-38891022D03*
%TD*%
D37*
%TO.C,D4*%
X99000000Y-57341022D03*
X99000000Y-59391022D03*
%TD*%
D34*
%TO.C,U4*%
X93500000Y-57191022D03*
D35*
X93500000Y-58891022D03*
X93500000Y-60591022D03*
X93500000Y-62291022D03*
X93500000Y-63991022D03*
%TD*%
D19*
%TO.C,PWR_IN1*%
X32000000Y-67641022D03*
D41*
X41000000Y-67641022D03*
D42*
X35000000Y-67641022D03*
D43*
X34000000Y-63141022D03*
X34000000Y-72141022D03*
%TD*%
D36*
%TO.C,R4*%
X100000000Y-54391022D03*
X98000000Y-54391022D03*
%TD*%
D31*
%TO.C,U2*%
X76032323Y-40007183D03*
D32*
X74332323Y-40007183D03*
X72632323Y-40007183D03*
X70932323Y-40007183D03*
X69232323Y-40007183D03*
%TD*%
D13*
%TO.C,J1*%
X104500000Y-43891022D03*
D14*
X104500000Y-46431022D03*
X104500000Y-48971022D03*
X104500000Y-51511022D03*
D13*
X107000000Y-43891022D03*
D14*
X107000000Y-46431022D03*
X107000000Y-48971022D03*
X107000000Y-51511022D03*
D13*
X109500000Y-43891022D03*
D14*
X109500000Y-46431022D03*
X109500000Y-48971022D03*
X109500000Y-51511022D03*
%TD*%
D44*
%TO.C,C7*%
X101000000Y-61023345D03*
D16*
X101000000Y-66023345D03*
%TD*%
D45*
%TO.C,D9*%
X65000000Y-55701022D03*
D46*
X65000000Y-40461022D03*
%TD*%
D47*
%TO.C,D8*%
X89500000Y-60891022D03*
D46*
X74260000Y-60891022D03*
%TD*%
D45*
%TO.C,D10*%
X81500000Y-55701022D03*
D46*
X81500000Y-40461022D03*
%TD*%
D48*
%TO.C,D11*%
X74380000Y-69391022D03*
D46*
X89620000Y-69391022D03*
%TD*%
D45*
%TO.C,D12*%
X55365000Y-67036022D03*
D46*
X55365000Y-51796022D03*
%TD*%
M02*
