%TF.GenerationSoftware,KiCad,Pcbnew,9.0.2*%
%TF.CreationDate,2025-06-26T14:56:16+08:00*%
%TF.ProjectId,deehli_board,64656568-6c69-45f6-926f-6172642e6b69,rev?*%
%TF.SameCoordinates,Original*%
%TF.FileFunction,Legend,Top*%
%TF.FilePolarity,Positive*%
%FSLAX46Y46*%
G04 Gerber Fmt 4.6, Leading zero omitted, Abs format (unit mm)*
G04 Created by KiCad (PCBNEW 9.0.2) date 2025-06-26 14:56:16*
%MOMM*%
%LPD*%
G01*
G04 APERTURE LIST*
%ADD10C,0.100000*%
%ADD11C,0.150000*%
%ADD12C,0.120000*%
%ADD13C,0.000000*%
G04 APERTURE END LIST*
D10*
X74589598Y-73073441D02*
X74589598Y-73787726D01*
X74589598Y-73787726D02*
X74541979Y-73930583D01*
X74541979Y-73930583D02*
X74446741Y-74025822D01*
X74446741Y-74025822D02*
X74303884Y-74073441D01*
X74303884Y-74073441D02*
X74208646Y-74073441D01*
X75065789Y-74073441D02*
X75065789Y-73073441D01*
X75065789Y-73073441D02*
X75446741Y-73073441D01*
X75446741Y-73073441D02*
X75541979Y-73121060D01*
X75541979Y-73121060D02*
X75589598Y-73168679D01*
X75589598Y-73168679D02*
X75637217Y-73263917D01*
X75637217Y-73263917D02*
X75637217Y-73406774D01*
X75637217Y-73406774D02*
X75589598Y-73502012D01*
X75589598Y-73502012D02*
X75541979Y-73549631D01*
X75541979Y-73549631D02*
X75446741Y-73597250D01*
X75446741Y-73597250D02*
X75065789Y-73597250D01*
X76780075Y-74025822D02*
X76922932Y-74073441D01*
X76922932Y-74073441D02*
X77161027Y-74073441D01*
X77161027Y-74073441D02*
X77256265Y-74025822D01*
X77256265Y-74025822D02*
X77303884Y-73978202D01*
X77303884Y-73978202D02*
X77351503Y-73882964D01*
X77351503Y-73882964D02*
X77351503Y-73787726D01*
X77351503Y-73787726D02*
X77303884Y-73692488D01*
X77303884Y-73692488D02*
X77256265Y-73644869D01*
X77256265Y-73644869D02*
X77161027Y-73597250D01*
X77161027Y-73597250D02*
X76970551Y-73549631D01*
X76970551Y-73549631D02*
X76875313Y-73502012D01*
X76875313Y-73502012D02*
X76827694Y-73454393D01*
X76827694Y-73454393D02*
X76780075Y-73359155D01*
X76780075Y-73359155D02*
X76780075Y-73263917D01*
X76780075Y-73263917D02*
X76827694Y-73168679D01*
X76827694Y-73168679D02*
X76875313Y-73121060D01*
X76875313Y-73121060D02*
X76970551Y-73073441D01*
X76970551Y-73073441D02*
X77208646Y-73073441D01*
X77208646Y-73073441D02*
X77351503Y-73121060D01*
X77637218Y-73406774D02*
X78018170Y-73406774D01*
X77780075Y-73073441D02*
X77780075Y-73930583D01*
X77780075Y-73930583D02*
X77827694Y-74025822D01*
X77827694Y-74025822D02*
X77922932Y-74073441D01*
X77922932Y-74073441D02*
X78018170Y-74073441D01*
X78494361Y-74073441D02*
X78399123Y-74025822D01*
X78399123Y-74025822D02*
X78351504Y-73978202D01*
X78351504Y-73978202D02*
X78303885Y-73882964D01*
X78303885Y-73882964D02*
X78303885Y-73597250D01*
X78303885Y-73597250D02*
X78351504Y-73502012D01*
X78351504Y-73502012D02*
X78399123Y-73454393D01*
X78399123Y-73454393D02*
X78494361Y-73406774D01*
X78494361Y-73406774D02*
X78637218Y-73406774D01*
X78637218Y-73406774D02*
X78732456Y-73454393D01*
X78732456Y-73454393D02*
X78780075Y-73502012D01*
X78780075Y-73502012D02*
X78827694Y-73597250D01*
X78827694Y-73597250D02*
X78827694Y-73882964D01*
X78827694Y-73882964D02*
X78780075Y-73978202D01*
X78780075Y-73978202D02*
X78732456Y-74025822D01*
X78732456Y-74025822D02*
X78637218Y-74073441D01*
X78637218Y-74073441D02*
X78494361Y-74073441D01*
X79256266Y-74073441D02*
X79256266Y-73406774D01*
X79256266Y-73597250D02*
X79303885Y-73502012D01*
X79303885Y-73502012D02*
X79351504Y-73454393D01*
X79351504Y-73454393D02*
X79446742Y-73406774D01*
X79446742Y-73406774D02*
X79541980Y-73406774D01*
X80256266Y-74025822D02*
X80161028Y-74073441D01*
X80161028Y-74073441D02*
X79970552Y-74073441D01*
X79970552Y-74073441D02*
X79875314Y-74025822D01*
X79875314Y-74025822D02*
X79827695Y-73930583D01*
X79827695Y-73930583D02*
X79827695Y-73549631D01*
X79827695Y-73549631D02*
X79875314Y-73454393D01*
X79875314Y-73454393D02*
X79970552Y-73406774D01*
X79970552Y-73406774D02*
X80161028Y-73406774D01*
X80161028Y-73406774D02*
X80256266Y-73454393D01*
X80256266Y-73454393D02*
X80303885Y-73549631D01*
X80303885Y-73549631D02*
X80303885Y-73644869D01*
X80303885Y-73644869D02*
X79827695Y-73740107D01*
X31073860Y-39822288D02*
X31073860Y-38822288D01*
X31073860Y-39774669D02*
X30978622Y-39822288D01*
X30978622Y-39822288D02*
X30788146Y-39822288D01*
X30788146Y-39822288D02*
X30692908Y-39774669D01*
X30692908Y-39774669D02*
X30645289Y-39727049D01*
X30645289Y-39727049D02*
X30597670Y-39631811D01*
X30597670Y-39631811D02*
X30597670Y-39346097D01*
X30597670Y-39346097D02*
X30645289Y-39250859D01*
X30645289Y-39250859D02*
X30692908Y-39203240D01*
X30692908Y-39203240D02*
X30788146Y-39155621D01*
X30788146Y-39155621D02*
X30978622Y-39155621D01*
X30978622Y-39155621D02*
X31073860Y-39203240D01*
X31931003Y-39774669D02*
X31835765Y-39822288D01*
X31835765Y-39822288D02*
X31645289Y-39822288D01*
X31645289Y-39822288D02*
X31550051Y-39774669D01*
X31550051Y-39774669D02*
X31502432Y-39679430D01*
X31502432Y-39679430D02*
X31502432Y-39298478D01*
X31502432Y-39298478D02*
X31550051Y-39203240D01*
X31550051Y-39203240D02*
X31645289Y-39155621D01*
X31645289Y-39155621D02*
X31835765Y-39155621D01*
X31835765Y-39155621D02*
X31931003Y-39203240D01*
X31931003Y-39203240D02*
X31978622Y-39298478D01*
X31978622Y-39298478D02*
X31978622Y-39393716D01*
X31978622Y-39393716D02*
X31502432Y-39488954D01*
X32788146Y-39774669D02*
X32692908Y-39822288D01*
X32692908Y-39822288D02*
X32502432Y-39822288D01*
X32502432Y-39822288D02*
X32407194Y-39774669D01*
X32407194Y-39774669D02*
X32359575Y-39679430D01*
X32359575Y-39679430D02*
X32359575Y-39298478D01*
X32359575Y-39298478D02*
X32407194Y-39203240D01*
X32407194Y-39203240D02*
X32502432Y-39155621D01*
X32502432Y-39155621D02*
X32692908Y-39155621D01*
X32692908Y-39155621D02*
X32788146Y-39203240D01*
X32788146Y-39203240D02*
X32835765Y-39298478D01*
X32835765Y-39298478D02*
X32835765Y-39393716D01*
X32835765Y-39393716D02*
X32359575Y-39488954D01*
X33264337Y-39822288D02*
X33264337Y-38822288D01*
X33692908Y-39822288D02*
X33692908Y-39298478D01*
X33692908Y-39298478D02*
X33645289Y-39203240D01*
X33645289Y-39203240D02*
X33550051Y-39155621D01*
X33550051Y-39155621D02*
X33407194Y-39155621D01*
X33407194Y-39155621D02*
X33311956Y-39203240D01*
X33311956Y-39203240D02*
X33264337Y-39250859D01*
X34311956Y-39822288D02*
X34216718Y-39774669D01*
X34216718Y-39774669D02*
X34169099Y-39679430D01*
X34169099Y-39679430D02*
X34169099Y-38822288D01*
X34692909Y-39822288D02*
X34692909Y-39155621D01*
X34692909Y-38822288D02*
X34645290Y-38869907D01*
X34645290Y-38869907D02*
X34692909Y-38917526D01*
X34692909Y-38917526D02*
X34740528Y-38869907D01*
X34740528Y-38869907D02*
X34692909Y-38822288D01*
X34692909Y-38822288D02*
X34692909Y-38917526D01*
X35931004Y-39822288D02*
X35931004Y-38822288D01*
X35931004Y-39203240D02*
X36026242Y-39155621D01*
X36026242Y-39155621D02*
X36216718Y-39155621D01*
X36216718Y-39155621D02*
X36311956Y-39203240D01*
X36311956Y-39203240D02*
X36359575Y-39250859D01*
X36359575Y-39250859D02*
X36407194Y-39346097D01*
X36407194Y-39346097D02*
X36407194Y-39631811D01*
X36407194Y-39631811D02*
X36359575Y-39727049D01*
X36359575Y-39727049D02*
X36311956Y-39774669D01*
X36311956Y-39774669D02*
X36216718Y-39822288D01*
X36216718Y-39822288D02*
X36026242Y-39822288D01*
X36026242Y-39822288D02*
X35931004Y-39774669D01*
X36978623Y-39822288D02*
X36883385Y-39774669D01*
X36883385Y-39774669D02*
X36835766Y-39727049D01*
X36835766Y-39727049D02*
X36788147Y-39631811D01*
X36788147Y-39631811D02*
X36788147Y-39346097D01*
X36788147Y-39346097D02*
X36835766Y-39250859D01*
X36835766Y-39250859D02*
X36883385Y-39203240D01*
X36883385Y-39203240D02*
X36978623Y-39155621D01*
X36978623Y-39155621D02*
X37121480Y-39155621D01*
X37121480Y-39155621D02*
X37216718Y-39203240D01*
X37216718Y-39203240D02*
X37264337Y-39250859D01*
X37264337Y-39250859D02*
X37311956Y-39346097D01*
X37311956Y-39346097D02*
X37311956Y-39631811D01*
X37311956Y-39631811D02*
X37264337Y-39727049D01*
X37264337Y-39727049D02*
X37216718Y-39774669D01*
X37216718Y-39774669D02*
X37121480Y-39822288D01*
X37121480Y-39822288D02*
X36978623Y-39822288D01*
X38169099Y-39822288D02*
X38169099Y-39298478D01*
X38169099Y-39298478D02*
X38121480Y-39203240D01*
X38121480Y-39203240D02*
X38026242Y-39155621D01*
X38026242Y-39155621D02*
X37835766Y-39155621D01*
X37835766Y-39155621D02*
X37740528Y-39203240D01*
X38169099Y-39774669D02*
X38073861Y-39822288D01*
X38073861Y-39822288D02*
X37835766Y-39822288D01*
X37835766Y-39822288D02*
X37740528Y-39774669D01*
X37740528Y-39774669D02*
X37692909Y-39679430D01*
X37692909Y-39679430D02*
X37692909Y-39584192D01*
X37692909Y-39584192D02*
X37740528Y-39488954D01*
X37740528Y-39488954D02*
X37835766Y-39441335D01*
X37835766Y-39441335D02*
X38073861Y-39441335D01*
X38073861Y-39441335D02*
X38169099Y-39393716D01*
X38645290Y-39822288D02*
X38645290Y-39155621D01*
X38645290Y-39346097D02*
X38692909Y-39250859D01*
X38692909Y-39250859D02*
X38740528Y-39203240D01*
X38740528Y-39203240D02*
X38835766Y-39155621D01*
X38835766Y-39155621D02*
X38931004Y-39155621D01*
X39692909Y-39822288D02*
X39692909Y-38822288D01*
X39692909Y-39774669D02*
X39597671Y-39822288D01*
X39597671Y-39822288D02*
X39407195Y-39822288D01*
X39407195Y-39822288D02*
X39311957Y-39774669D01*
X39311957Y-39774669D02*
X39264338Y-39727049D01*
X39264338Y-39727049D02*
X39216719Y-39631811D01*
X39216719Y-39631811D02*
X39216719Y-39346097D01*
X39216719Y-39346097D02*
X39264338Y-39250859D01*
X39264338Y-39250859D02*
X39311957Y-39203240D01*
X39311957Y-39203240D02*
X39407195Y-39155621D01*
X39407195Y-39155621D02*
X39597671Y-39155621D01*
X39597671Y-39155621D02*
X39692909Y-39203240D01*
X40835767Y-39155621D02*
X41073862Y-39822288D01*
X41073862Y-39822288D02*
X41311957Y-39155621D01*
X42216719Y-39822288D02*
X41645291Y-39822288D01*
X41931005Y-39822288D02*
X41931005Y-38822288D01*
X41931005Y-38822288D02*
X41835767Y-38965145D01*
X41835767Y-38965145D02*
X41740529Y-39060383D01*
X41740529Y-39060383D02*
X41645291Y-39108002D01*
X42645291Y-39727049D02*
X42692910Y-39774669D01*
X42692910Y-39774669D02*
X42645291Y-39822288D01*
X42645291Y-39822288D02*
X42597672Y-39774669D01*
X42597672Y-39774669D02*
X42645291Y-39727049D01*
X42645291Y-39727049D02*
X42645291Y-39822288D01*
X43311957Y-38822288D02*
X43407195Y-38822288D01*
X43407195Y-38822288D02*
X43502433Y-38869907D01*
X43502433Y-38869907D02*
X43550052Y-38917526D01*
X43550052Y-38917526D02*
X43597671Y-39012764D01*
X43597671Y-39012764D02*
X43645290Y-39203240D01*
X43645290Y-39203240D02*
X43645290Y-39441335D01*
X43645290Y-39441335D02*
X43597671Y-39631811D01*
X43597671Y-39631811D02*
X43550052Y-39727049D01*
X43550052Y-39727049D02*
X43502433Y-39774669D01*
X43502433Y-39774669D02*
X43407195Y-39822288D01*
X43407195Y-39822288D02*
X43311957Y-39822288D01*
X43311957Y-39822288D02*
X43216719Y-39774669D01*
X43216719Y-39774669D02*
X43169100Y-39727049D01*
X43169100Y-39727049D02*
X43121481Y-39631811D01*
X43121481Y-39631811D02*
X43073862Y-39441335D01*
X43073862Y-39441335D02*
X43073862Y-39203240D01*
X43073862Y-39203240D02*
X43121481Y-39012764D01*
X43121481Y-39012764D02*
X43169100Y-38917526D01*
X43169100Y-38917526D02*
X43216719Y-38869907D01*
X43216719Y-38869907D02*
X43311957Y-38822288D01*
X44026243Y-38917526D02*
X44073862Y-38869907D01*
X44073862Y-38869907D02*
X44169100Y-38822288D01*
X44169100Y-38822288D02*
X44407195Y-38822288D01*
X44407195Y-38822288D02*
X44502433Y-38869907D01*
X44502433Y-38869907D02*
X44550052Y-38917526D01*
X44550052Y-38917526D02*
X44597671Y-39012764D01*
X44597671Y-39012764D02*
X44597671Y-39108002D01*
X44597671Y-39108002D02*
X44550052Y-39250859D01*
X44550052Y-39250859D02*
X43978624Y-39822288D01*
X43978624Y-39822288D02*
X44597671Y-39822288D01*
X87589598Y-73073441D02*
X87589598Y-73787726D01*
X87589598Y-73787726D02*
X87541979Y-73930583D01*
X87541979Y-73930583D02*
X87446741Y-74025822D01*
X87446741Y-74025822D02*
X87303884Y-74073441D01*
X87303884Y-74073441D02*
X87208646Y-74073441D01*
X88065789Y-74073441D02*
X88065789Y-73073441D01*
X88065789Y-73073441D02*
X88446741Y-73073441D01*
X88446741Y-73073441D02*
X88541979Y-73121060D01*
X88541979Y-73121060D02*
X88589598Y-73168679D01*
X88589598Y-73168679D02*
X88637217Y-73263917D01*
X88637217Y-73263917D02*
X88637217Y-73406774D01*
X88637217Y-73406774D02*
X88589598Y-73502012D01*
X88589598Y-73502012D02*
X88541979Y-73549631D01*
X88541979Y-73549631D02*
X88446741Y-73597250D01*
X88446741Y-73597250D02*
X88065789Y-73597250D01*
X90351503Y-74073441D02*
X89780075Y-74073441D01*
X90065789Y-74073441D02*
X90065789Y-73073441D01*
X90065789Y-73073441D02*
X89970551Y-73216298D01*
X89970551Y-73216298D02*
X89875313Y-73311536D01*
X89875313Y-73311536D02*
X89780075Y-73359155D01*
X90732456Y-73168679D02*
X90780075Y-73121060D01*
X90780075Y-73121060D02*
X90875313Y-73073441D01*
X90875313Y-73073441D02*
X91113408Y-73073441D01*
X91113408Y-73073441D02*
X91208646Y-73121060D01*
X91208646Y-73121060D02*
X91256265Y-73168679D01*
X91256265Y-73168679D02*
X91303884Y-73263917D01*
X91303884Y-73263917D02*
X91303884Y-73359155D01*
X91303884Y-73359155D02*
X91256265Y-73502012D01*
X91256265Y-73502012D02*
X90684837Y-74073441D01*
X90684837Y-74073441D02*
X91303884Y-74073441D01*
X91922932Y-73073441D02*
X92018170Y-73073441D01*
X92018170Y-73073441D02*
X92113408Y-73121060D01*
X92113408Y-73121060D02*
X92161027Y-73168679D01*
X92161027Y-73168679D02*
X92208646Y-73263917D01*
X92208646Y-73263917D02*
X92256265Y-73454393D01*
X92256265Y-73454393D02*
X92256265Y-73692488D01*
X92256265Y-73692488D02*
X92208646Y-73882964D01*
X92208646Y-73882964D02*
X92161027Y-73978202D01*
X92161027Y-73978202D02*
X92113408Y-74025822D01*
X92113408Y-74025822D02*
X92018170Y-74073441D01*
X92018170Y-74073441D02*
X91922932Y-74073441D01*
X91922932Y-74073441D02*
X91827694Y-74025822D01*
X91827694Y-74025822D02*
X91780075Y-73978202D01*
X91780075Y-73978202D02*
X91732456Y-73882964D01*
X91732456Y-73882964D02*
X91684837Y-73692488D01*
X91684837Y-73692488D02*
X91684837Y-73454393D01*
X91684837Y-73454393D02*
X91732456Y-73263917D01*
X91732456Y-73263917D02*
X91780075Y-73168679D01*
X91780075Y-73168679D02*
X91827694Y-73121060D01*
X91827694Y-73121060D02*
X91922932Y-73073441D01*
X92637218Y-74073441D02*
X92875313Y-74073441D01*
X92875313Y-74073441D02*
X92875313Y-73882964D01*
X92875313Y-73882964D02*
X92780075Y-73835345D01*
X92780075Y-73835345D02*
X92684837Y-73740107D01*
X92684837Y-73740107D02*
X92637218Y-73597250D01*
X92637218Y-73597250D02*
X92637218Y-73359155D01*
X92637218Y-73359155D02*
X92684837Y-73216298D01*
X92684837Y-73216298D02*
X92780075Y-73121060D01*
X92780075Y-73121060D02*
X92922932Y-73073441D01*
X92922932Y-73073441D02*
X93113408Y-73073441D01*
X93113408Y-73073441D02*
X93256265Y-73121060D01*
X93256265Y-73121060D02*
X93351503Y-73216298D01*
X93351503Y-73216298D02*
X93399122Y-73359155D01*
X93399122Y-73359155D02*
X93399122Y-73597250D01*
X93399122Y-73597250D02*
X93351503Y-73740107D01*
X93351503Y-73740107D02*
X93256265Y-73835345D01*
X93256265Y-73835345D02*
X93161027Y-73882964D01*
X93161027Y-73882964D02*
X93161027Y-74073441D01*
X93161027Y-74073441D02*
X93399122Y-74073441D01*
D11*
X80862924Y-71861201D02*
X80862924Y-70861201D01*
X80862924Y-70861201D02*
X81101019Y-70861201D01*
X81101019Y-70861201D02*
X81243876Y-70908820D01*
X81243876Y-70908820D02*
X81339114Y-71004058D01*
X81339114Y-71004058D02*
X81386733Y-71099296D01*
X81386733Y-71099296D02*
X81434352Y-71289772D01*
X81434352Y-71289772D02*
X81434352Y-71432629D01*
X81434352Y-71432629D02*
X81386733Y-71623105D01*
X81386733Y-71623105D02*
X81339114Y-71718343D01*
X81339114Y-71718343D02*
X81243876Y-71813582D01*
X81243876Y-71813582D02*
X81101019Y-71861201D01*
X81101019Y-71861201D02*
X80862924Y-71861201D01*
X81767686Y-70861201D02*
X82434352Y-70861201D01*
X82434352Y-70861201D02*
X82005781Y-71861201D01*
X101834819Y-66974355D02*
X102549104Y-66974355D01*
X102549104Y-66974355D02*
X102691961Y-67021974D01*
X102691961Y-67021974D02*
X102787200Y-67117212D01*
X102787200Y-67117212D02*
X102834819Y-67260069D01*
X102834819Y-67260069D02*
X102834819Y-67355307D01*
X101834819Y-66069593D02*
X101834819Y-66260069D01*
X101834819Y-66260069D02*
X101882438Y-66355307D01*
X101882438Y-66355307D02*
X101930057Y-66402926D01*
X101930057Y-66402926D02*
X102072914Y-66498164D01*
X102072914Y-66498164D02*
X102263390Y-66545783D01*
X102263390Y-66545783D02*
X102644342Y-66545783D01*
X102644342Y-66545783D02*
X102739580Y-66498164D01*
X102739580Y-66498164D02*
X102787200Y-66450545D01*
X102787200Y-66450545D02*
X102834819Y-66355307D01*
X102834819Y-66355307D02*
X102834819Y-66164831D01*
X102834819Y-66164831D02*
X102787200Y-66069593D01*
X102787200Y-66069593D02*
X102739580Y-66021974D01*
X102739580Y-66021974D02*
X102644342Y-65974355D01*
X102644342Y-65974355D02*
X102406247Y-65974355D01*
X102406247Y-65974355D02*
X102311009Y-66021974D01*
X102311009Y-66021974D02*
X102263390Y-66069593D01*
X102263390Y-66069593D02*
X102215771Y-66164831D01*
X102215771Y-66164831D02*
X102215771Y-66355307D01*
X102215771Y-66355307D02*
X102263390Y-66450545D01*
X102263390Y-66450545D02*
X102311009Y-66498164D01*
X102311009Y-66498164D02*
X102406247Y-66545783D01*
X43260955Y-86947158D02*
X43260955Y-85947158D01*
X43260955Y-85947158D02*
X43641907Y-85947158D01*
X43641907Y-85947158D02*
X43737145Y-85994777D01*
X43737145Y-85994777D02*
X43784764Y-86042396D01*
X43784764Y-86042396D02*
X43832383Y-86137634D01*
X43832383Y-86137634D02*
X43832383Y-86280491D01*
X43832383Y-86280491D02*
X43784764Y-86375729D01*
X43784764Y-86375729D02*
X43737145Y-86423348D01*
X43737145Y-86423348D02*
X43641907Y-86470967D01*
X43641907Y-86470967D02*
X43260955Y-86470967D01*
X44165717Y-85947158D02*
X44403812Y-86947158D01*
X44403812Y-86947158D02*
X44594288Y-86232872D01*
X44594288Y-86232872D02*
X44784764Y-86947158D01*
X44784764Y-86947158D02*
X45022860Y-85947158D01*
X45975240Y-86947158D02*
X45641907Y-86470967D01*
X45403812Y-86947158D02*
X45403812Y-85947158D01*
X45403812Y-85947158D02*
X45784764Y-85947158D01*
X45784764Y-85947158D02*
X45880002Y-85994777D01*
X45880002Y-85994777D02*
X45927621Y-86042396D01*
X45927621Y-86042396D02*
X45975240Y-86137634D01*
X45975240Y-86137634D02*
X45975240Y-86280491D01*
X45975240Y-86280491D02*
X45927621Y-86375729D01*
X45927621Y-86375729D02*
X45880002Y-86423348D01*
X45880002Y-86423348D02*
X45784764Y-86470967D01*
X45784764Y-86470967D02*
X45403812Y-86470967D01*
X46165717Y-87042396D02*
X46927621Y-87042396D01*
X47165717Y-86947158D02*
X47165717Y-85947158D01*
X47641907Y-86947158D02*
X47641907Y-85947158D01*
X47641907Y-85947158D02*
X48213335Y-86947158D01*
X48213335Y-86947158D02*
X48213335Y-85947158D01*
X48641907Y-86042396D02*
X48689526Y-85994777D01*
X48689526Y-85994777D02*
X48784764Y-85947158D01*
X48784764Y-85947158D02*
X49022859Y-85947158D01*
X49022859Y-85947158D02*
X49118097Y-85994777D01*
X49118097Y-85994777D02*
X49165716Y-86042396D01*
X49165716Y-86042396D02*
X49213335Y-86137634D01*
X49213335Y-86137634D02*
X49213335Y-86232872D01*
X49213335Y-86232872D02*
X49165716Y-86375729D01*
X49165716Y-86375729D02*
X48594288Y-86947158D01*
X48594288Y-86947158D02*
X49213335Y-86947158D01*
X81965656Y-59000602D02*
X81918037Y-59048222D01*
X81918037Y-59048222D02*
X81775180Y-59095841D01*
X81775180Y-59095841D02*
X81679942Y-59095841D01*
X81679942Y-59095841D02*
X81537085Y-59048222D01*
X81537085Y-59048222D02*
X81441847Y-58952983D01*
X81441847Y-58952983D02*
X81394228Y-58857745D01*
X81394228Y-58857745D02*
X81346609Y-58667269D01*
X81346609Y-58667269D02*
X81346609Y-58524412D01*
X81346609Y-58524412D02*
X81394228Y-58333936D01*
X81394228Y-58333936D02*
X81441847Y-58238698D01*
X81441847Y-58238698D02*
X81537085Y-58143460D01*
X81537085Y-58143460D02*
X81679942Y-58095841D01*
X81679942Y-58095841D02*
X81775180Y-58095841D01*
X81775180Y-58095841D02*
X81918037Y-58143460D01*
X81918037Y-58143460D02*
X81965656Y-58191079D01*
X82822799Y-58095841D02*
X82632323Y-58095841D01*
X82632323Y-58095841D02*
X82537085Y-58143460D01*
X82537085Y-58143460D02*
X82489466Y-58191079D01*
X82489466Y-58191079D02*
X82394228Y-58333936D01*
X82394228Y-58333936D02*
X82346609Y-58524412D01*
X82346609Y-58524412D02*
X82346609Y-58905364D01*
X82346609Y-58905364D02*
X82394228Y-59000602D01*
X82394228Y-59000602D02*
X82441847Y-59048222D01*
X82441847Y-59048222D02*
X82537085Y-59095841D01*
X82537085Y-59095841D02*
X82727561Y-59095841D01*
X82727561Y-59095841D02*
X82822799Y-59048222D01*
X82822799Y-59048222D02*
X82870418Y-59000602D01*
X82870418Y-59000602D02*
X82918037Y-58905364D01*
X82918037Y-58905364D02*
X82918037Y-58667269D01*
X82918037Y-58667269D02*
X82870418Y-58572031D01*
X82870418Y-58572031D02*
X82822799Y-58524412D01*
X82822799Y-58524412D02*
X82727561Y-58476793D01*
X82727561Y-58476793D02*
X82537085Y-58476793D01*
X82537085Y-58476793D02*
X82441847Y-58524412D01*
X82441847Y-58524412D02*
X82394228Y-58572031D01*
X82394228Y-58572031D02*
X82346609Y-58667269D01*
X103416666Y-76725841D02*
X103416666Y-77440126D01*
X103416666Y-77440126D02*
X103369047Y-77582983D01*
X103369047Y-77582983D02*
X103273809Y-77678222D01*
X103273809Y-77678222D02*
X103130952Y-77725841D01*
X103130952Y-77725841D02*
X103035714Y-77725841D01*
X104369047Y-76725841D02*
X103892857Y-76725841D01*
X103892857Y-76725841D02*
X103845238Y-77202031D01*
X103845238Y-77202031D02*
X103892857Y-77154412D01*
X103892857Y-77154412D02*
X103988095Y-77106793D01*
X103988095Y-77106793D02*
X104226190Y-77106793D01*
X104226190Y-77106793D02*
X104321428Y-77154412D01*
X104321428Y-77154412D02*
X104369047Y-77202031D01*
X104369047Y-77202031D02*
X104416666Y-77297269D01*
X104416666Y-77297269D02*
X104416666Y-77535364D01*
X104416666Y-77535364D02*
X104369047Y-77630602D01*
X104369047Y-77630602D02*
X104321428Y-77678222D01*
X104321428Y-77678222D02*
X104226190Y-77725841D01*
X104226190Y-77725841D02*
X103988095Y-77725841D01*
X103988095Y-77725841D02*
X103892857Y-77678222D01*
X103892857Y-77678222D02*
X103845238Y-77630602D01*
X66759580Y-63625309D02*
X66807200Y-63672928D01*
X66807200Y-63672928D02*
X66854819Y-63815785D01*
X66854819Y-63815785D02*
X66854819Y-63911023D01*
X66854819Y-63911023D02*
X66807200Y-64053880D01*
X66807200Y-64053880D02*
X66711961Y-64149118D01*
X66711961Y-64149118D02*
X66616723Y-64196737D01*
X66616723Y-64196737D02*
X66426247Y-64244356D01*
X66426247Y-64244356D02*
X66283390Y-64244356D01*
X66283390Y-64244356D02*
X66092914Y-64196737D01*
X66092914Y-64196737D02*
X65997676Y-64149118D01*
X65997676Y-64149118D02*
X65902438Y-64053880D01*
X65902438Y-64053880D02*
X65854819Y-63911023D01*
X65854819Y-63911023D02*
X65854819Y-63815785D01*
X65854819Y-63815785D02*
X65902438Y-63672928D01*
X65902438Y-63672928D02*
X65950057Y-63625309D01*
X65854819Y-62720547D02*
X65854819Y-63196737D01*
X65854819Y-63196737D02*
X66331009Y-63244356D01*
X66331009Y-63244356D02*
X66283390Y-63196737D01*
X66283390Y-63196737D02*
X66235771Y-63101499D01*
X66235771Y-63101499D02*
X66235771Y-62863404D01*
X66235771Y-62863404D02*
X66283390Y-62768166D01*
X66283390Y-62768166D02*
X66331009Y-62720547D01*
X66331009Y-62720547D02*
X66426247Y-62672928D01*
X66426247Y-62672928D02*
X66664342Y-62672928D01*
X66664342Y-62672928D02*
X66759580Y-62720547D01*
X66759580Y-62720547D02*
X66807200Y-62768166D01*
X66807200Y-62768166D02*
X66854819Y-62863404D01*
X66854819Y-62863404D02*
X66854819Y-63101499D01*
X66854819Y-63101499D02*
X66807200Y-63196737D01*
X66807200Y-63196737D02*
X66759580Y-63244356D01*
X88201010Y-56190602D02*
X88153391Y-56238222D01*
X88153391Y-56238222D02*
X88010534Y-56285841D01*
X88010534Y-56285841D02*
X87915296Y-56285841D01*
X87915296Y-56285841D02*
X87772439Y-56238222D01*
X87772439Y-56238222D02*
X87677201Y-56142983D01*
X87677201Y-56142983D02*
X87629582Y-56047745D01*
X87629582Y-56047745D02*
X87581963Y-55857269D01*
X87581963Y-55857269D02*
X87581963Y-55714412D01*
X87581963Y-55714412D02*
X87629582Y-55523936D01*
X87629582Y-55523936D02*
X87677201Y-55428698D01*
X87677201Y-55428698D02*
X87772439Y-55333460D01*
X87772439Y-55333460D02*
X87915296Y-55285841D01*
X87915296Y-55285841D02*
X88010534Y-55285841D01*
X88010534Y-55285841D02*
X88153391Y-55333460D01*
X88153391Y-55333460D02*
X88201010Y-55381079D01*
X88534344Y-55285841D02*
X89153391Y-55285841D01*
X89153391Y-55285841D02*
X88820058Y-55666793D01*
X88820058Y-55666793D02*
X88962915Y-55666793D01*
X88962915Y-55666793D02*
X89058153Y-55714412D01*
X89058153Y-55714412D02*
X89105772Y-55762031D01*
X89105772Y-55762031D02*
X89153391Y-55857269D01*
X89153391Y-55857269D02*
X89153391Y-56095364D01*
X89153391Y-56095364D02*
X89105772Y-56190602D01*
X89105772Y-56190602D02*
X89058153Y-56238222D01*
X89058153Y-56238222D02*
X88962915Y-56285841D01*
X88962915Y-56285841D02*
X88677201Y-56285841D01*
X88677201Y-56285841D02*
X88581963Y-56238222D01*
X88581963Y-56238222D02*
X88534344Y-56190602D01*
X106261905Y-42995840D02*
X106261905Y-41995840D01*
X106261905Y-41995840D02*
X106500000Y-41995840D01*
X106500000Y-41995840D02*
X106642857Y-42043459D01*
X106642857Y-42043459D02*
X106738095Y-42138697D01*
X106738095Y-42138697D02*
X106785714Y-42233935D01*
X106785714Y-42233935D02*
X106833333Y-42424411D01*
X106833333Y-42424411D02*
X106833333Y-42567268D01*
X106833333Y-42567268D02*
X106785714Y-42757744D01*
X106785714Y-42757744D02*
X106738095Y-42852982D01*
X106738095Y-42852982D02*
X106642857Y-42948221D01*
X106642857Y-42948221D02*
X106500000Y-42995840D01*
X106500000Y-42995840D02*
X106261905Y-42995840D01*
X107166667Y-41995840D02*
X107785714Y-41995840D01*
X107785714Y-41995840D02*
X107452381Y-42376792D01*
X107452381Y-42376792D02*
X107595238Y-42376792D01*
X107595238Y-42376792D02*
X107690476Y-42424411D01*
X107690476Y-42424411D02*
X107738095Y-42472030D01*
X107738095Y-42472030D02*
X107785714Y-42567268D01*
X107785714Y-42567268D02*
X107785714Y-42805363D01*
X107785714Y-42805363D02*
X107738095Y-42900601D01*
X107738095Y-42900601D02*
X107690476Y-42948221D01*
X107690476Y-42948221D02*
X107595238Y-42995840D01*
X107595238Y-42995840D02*
X107309524Y-42995840D01*
X107309524Y-42995840D02*
X107214286Y-42948221D01*
X107214286Y-42948221D02*
X107166667Y-42900601D01*
X63374819Y-84224355D02*
X64089104Y-84224355D01*
X64089104Y-84224355D02*
X64231961Y-84271974D01*
X64231961Y-84271974D02*
X64327200Y-84367212D01*
X64327200Y-84367212D02*
X64374819Y-84510069D01*
X64374819Y-84510069D02*
X64374819Y-84605307D01*
X63374819Y-83843402D02*
X63374819Y-83224355D01*
X63374819Y-83224355D02*
X63755771Y-83557688D01*
X63755771Y-83557688D02*
X63755771Y-83414831D01*
X63755771Y-83414831D02*
X63803390Y-83319593D01*
X63803390Y-83319593D02*
X63851009Y-83271974D01*
X63851009Y-83271974D02*
X63946247Y-83224355D01*
X63946247Y-83224355D02*
X64184342Y-83224355D01*
X64184342Y-83224355D02*
X64279580Y-83271974D01*
X64279580Y-83271974D02*
X64327200Y-83319593D01*
X64327200Y-83319593D02*
X64374819Y-83414831D01*
X64374819Y-83414831D02*
X64374819Y-83700545D01*
X64374819Y-83700545D02*
X64327200Y-83795783D01*
X64327200Y-83795783D02*
X64279580Y-83843402D01*
X96833333Y-75195841D02*
X96500000Y-74719650D01*
X96261905Y-75195841D02*
X96261905Y-74195841D01*
X96261905Y-74195841D02*
X96642857Y-74195841D01*
X96642857Y-74195841D02*
X96738095Y-74243460D01*
X96738095Y-74243460D02*
X96785714Y-74291079D01*
X96785714Y-74291079D02*
X96833333Y-74386317D01*
X96833333Y-74386317D02*
X96833333Y-74529174D01*
X96833333Y-74529174D02*
X96785714Y-74624412D01*
X96785714Y-74624412D02*
X96738095Y-74672031D01*
X96738095Y-74672031D02*
X96642857Y-74719650D01*
X96642857Y-74719650D02*
X96261905Y-74719650D01*
X97404762Y-74624412D02*
X97309524Y-74576793D01*
X97309524Y-74576793D02*
X97261905Y-74529174D01*
X97261905Y-74529174D02*
X97214286Y-74433936D01*
X97214286Y-74433936D02*
X97214286Y-74386317D01*
X97214286Y-74386317D02*
X97261905Y-74291079D01*
X97261905Y-74291079D02*
X97309524Y-74243460D01*
X97309524Y-74243460D02*
X97404762Y-74195841D01*
X97404762Y-74195841D02*
X97595238Y-74195841D01*
X97595238Y-74195841D02*
X97690476Y-74243460D01*
X97690476Y-74243460D02*
X97738095Y-74291079D01*
X97738095Y-74291079D02*
X97785714Y-74386317D01*
X97785714Y-74386317D02*
X97785714Y-74433936D01*
X97785714Y-74433936D02*
X97738095Y-74529174D01*
X97738095Y-74529174D02*
X97690476Y-74576793D01*
X97690476Y-74576793D02*
X97595238Y-74624412D01*
X97595238Y-74624412D02*
X97404762Y-74624412D01*
X97404762Y-74624412D02*
X97309524Y-74672031D01*
X97309524Y-74672031D02*
X97261905Y-74719650D01*
X97261905Y-74719650D02*
X97214286Y-74814888D01*
X97214286Y-74814888D02*
X97214286Y-75005364D01*
X97214286Y-75005364D02*
X97261905Y-75100602D01*
X97261905Y-75100602D02*
X97309524Y-75148222D01*
X97309524Y-75148222D02*
X97404762Y-75195841D01*
X97404762Y-75195841D02*
X97595238Y-75195841D01*
X97595238Y-75195841D02*
X97690476Y-75148222D01*
X97690476Y-75148222D02*
X97738095Y-75100602D01*
X97738095Y-75100602D02*
X97785714Y-75005364D01*
X97785714Y-75005364D02*
X97785714Y-74814888D01*
X97785714Y-74814888D02*
X97738095Y-74719650D01*
X97738095Y-74719650D02*
X97690476Y-74672031D01*
X97690476Y-74672031D02*
X97595238Y-74624412D01*
X43959580Y-57307688D02*
X44007200Y-57355307D01*
X44007200Y-57355307D02*
X44054819Y-57498164D01*
X44054819Y-57498164D02*
X44054819Y-57593402D01*
X44054819Y-57593402D02*
X44007200Y-57736259D01*
X44007200Y-57736259D02*
X43911961Y-57831497D01*
X43911961Y-57831497D02*
X43816723Y-57879116D01*
X43816723Y-57879116D02*
X43626247Y-57926735D01*
X43626247Y-57926735D02*
X43483390Y-57926735D01*
X43483390Y-57926735D02*
X43292914Y-57879116D01*
X43292914Y-57879116D02*
X43197676Y-57831497D01*
X43197676Y-57831497D02*
X43102438Y-57736259D01*
X43102438Y-57736259D02*
X43054819Y-57593402D01*
X43054819Y-57593402D02*
X43054819Y-57498164D01*
X43054819Y-57498164D02*
X43102438Y-57355307D01*
X43102438Y-57355307D02*
X43150057Y-57307688D01*
X44054819Y-56355307D02*
X44054819Y-56926735D01*
X44054819Y-56641021D02*
X43054819Y-56641021D01*
X43054819Y-56641021D02*
X43197676Y-56736259D01*
X43197676Y-56736259D02*
X43292914Y-56831497D01*
X43292914Y-56831497D02*
X43340533Y-56926735D01*
X38017120Y-75744133D02*
X37540929Y-76077466D01*
X38017120Y-76315561D02*
X37017120Y-76315561D01*
X37017120Y-76315561D02*
X37017120Y-75934609D01*
X37017120Y-75934609D02*
X37064739Y-75839371D01*
X37064739Y-75839371D02*
X37112358Y-75791752D01*
X37112358Y-75791752D02*
X37207596Y-75744133D01*
X37207596Y-75744133D02*
X37350453Y-75744133D01*
X37350453Y-75744133D02*
X37445691Y-75791752D01*
X37445691Y-75791752D02*
X37493310Y-75839371D01*
X37493310Y-75839371D02*
X37540929Y-75934609D01*
X37540929Y-75934609D02*
X37540929Y-76315561D01*
X37017120Y-74839371D02*
X37017120Y-75315561D01*
X37017120Y-75315561D02*
X37493310Y-75363180D01*
X37493310Y-75363180D02*
X37445691Y-75315561D01*
X37445691Y-75315561D02*
X37398072Y-75220323D01*
X37398072Y-75220323D02*
X37398072Y-74982228D01*
X37398072Y-74982228D02*
X37445691Y-74886990D01*
X37445691Y-74886990D02*
X37493310Y-74839371D01*
X37493310Y-74839371D02*
X37588548Y-74791752D01*
X37588548Y-74791752D02*
X37826643Y-74791752D01*
X37826643Y-74791752D02*
X37921881Y-74839371D01*
X37921881Y-74839371D02*
X37969501Y-74886990D01*
X37969501Y-74886990D02*
X38017120Y-74982228D01*
X38017120Y-74982228D02*
X38017120Y-75220323D01*
X38017120Y-75220323D02*
X37969501Y-75315561D01*
X37969501Y-75315561D02*
X37921881Y-75363180D01*
X48738095Y-81345841D02*
X48738095Y-82155364D01*
X48738095Y-82155364D02*
X48785714Y-82250602D01*
X48785714Y-82250602D02*
X48833333Y-82298222D01*
X48833333Y-82298222D02*
X48928571Y-82345841D01*
X48928571Y-82345841D02*
X49119047Y-82345841D01*
X49119047Y-82345841D02*
X49214285Y-82298222D01*
X49214285Y-82298222D02*
X49261904Y-82250602D01*
X49261904Y-82250602D02*
X49309523Y-82155364D01*
X49309523Y-82155364D02*
X49309523Y-81345841D01*
X50261904Y-81345841D02*
X49785714Y-81345841D01*
X49785714Y-81345841D02*
X49738095Y-81822031D01*
X49738095Y-81822031D02*
X49785714Y-81774412D01*
X49785714Y-81774412D02*
X49880952Y-81726793D01*
X49880952Y-81726793D02*
X50119047Y-81726793D01*
X50119047Y-81726793D02*
X50214285Y-81774412D01*
X50214285Y-81774412D02*
X50261904Y-81822031D01*
X50261904Y-81822031D02*
X50309523Y-81917269D01*
X50309523Y-81917269D02*
X50309523Y-82155364D01*
X50309523Y-82155364D02*
X50261904Y-82250602D01*
X50261904Y-82250602D02*
X50214285Y-82298222D01*
X50214285Y-82298222D02*
X50119047Y-82345841D01*
X50119047Y-82345841D02*
X49880952Y-82345841D01*
X49880952Y-82345841D02*
X49785714Y-82298222D01*
X49785714Y-82298222D02*
X49738095Y-82250602D01*
X32454819Y-75439116D02*
X31454819Y-75439116D01*
X31454819Y-75439116D02*
X31454819Y-75201021D01*
X31454819Y-75201021D02*
X31502438Y-75058164D01*
X31502438Y-75058164D02*
X31597676Y-74962926D01*
X31597676Y-74962926D02*
X31692914Y-74915307D01*
X31692914Y-74915307D02*
X31883390Y-74867688D01*
X31883390Y-74867688D02*
X32026247Y-74867688D01*
X32026247Y-74867688D02*
X32216723Y-74915307D01*
X32216723Y-74915307D02*
X32311961Y-74962926D01*
X32311961Y-74962926D02*
X32407200Y-75058164D01*
X32407200Y-75058164D02*
X32454819Y-75201021D01*
X32454819Y-75201021D02*
X32454819Y-75439116D01*
X31454819Y-73962926D02*
X31454819Y-74439116D01*
X31454819Y-74439116D02*
X31931009Y-74486735D01*
X31931009Y-74486735D02*
X31883390Y-74439116D01*
X31883390Y-74439116D02*
X31835771Y-74343878D01*
X31835771Y-74343878D02*
X31835771Y-74105783D01*
X31835771Y-74105783D02*
X31883390Y-74010545D01*
X31883390Y-74010545D02*
X31931009Y-73962926D01*
X31931009Y-73962926D02*
X32026247Y-73915307D01*
X32026247Y-73915307D02*
X32264342Y-73915307D01*
X32264342Y-73915307D02*
X32359580Y-73962926D01*
X32359580Y-73962926D02*
X32407200Y-74010545D01*
X32407200Y-74010545D02*
X32454819Y-74105783D01*
X32454819Y-74105783D02*
X32454819Y-74343878D01*
X32454819Y-74343878D02*
X32407200Y-74439116D01*
X32407200Y-74439116D02*
X32359580Y-74486735D01*
X74344819Y-76724355D02*
X75059104Y-76724355D01*
X75059104Y-76724355D02*
X75201961Y-76771974D01*
X75201961Y-76771974D02*
X75297200Y-76867212D01*
X75297200Y-76867212D02*
X75344819Y-77010069D01*
X75344819Y-77010069D02*
X75344819Y-77105307D01*
X75344819Y-76248164D02*
X74344819Y-76248164D01*
X74344819Y-76248164D02*
X74344819Y-75867212D01*
X74344819Y-75867212D02*
X74392438Y-75771974D01*
X74392438Y-75771974D02*
X74440057Y-75724355D01*
X74440057Y-75724355D02*
X74535295Y-75676736D01*
X74535295Y-75676736D02*
X74678152Y-75676736D01*
X74678152Y-75676736D02*
X74773390Y-75724355D01*
X74773390Y-75724355D02*
X74821009Y-75771974D01*
X74821009Y-75771974D02*
X74868628Y-75867212D01*
X74868628Y-75867212D02*
X74868628Y-76248164D01*
X75344819Y-74724355D02*
X75344819Y-75295783D01*
X75344819Y-75010069D02*
X74344819Y-75010069D01*
X74344819Y-75010069D02*
X74487676Y-75105307D01*
X74487676Y-75105307D02*
X74582914Y-75200545D01*
X74582914Y-75200545D02*
X74630533Y-75295783D01*
X86166666Y-80155841D02*
X86166666Y-80870126D01*
X86166666Y-80870126D02*
X86119047Y-81012983D01*
X86119047Y-81012983D02*
X86023809Y-81108222D01*
X86023809Y-81108222D02*
X85880952Y-81155841D01*
X85880952Y-81155841D02*
X85785714Y-81155841D01*
X87071428Y-80489174D02*
X87071428Y-81155841D01*
X86833333Y-80108222D02*
X86595238Y-80822507D01*
X86595238Y-80822507D02*
X87214285Y-80822507D01*
X100166666Y-41026216D02*
X100166666Y-41740501D01*
X100166666Y-41740501D02*
X100119047Y-41883358D01*
X100119047Y-41883358D02*
X100023809Y-41978597D01*
X100023809Y-41978597D02*
X99880952Y-42026216D01*
X99880952Y-42026216D02*
X99785714Y-42026216D01*
X100595238Y-41121454D02*
X100642857Y-41073835D01*
X100642857Y-41073835D02*
X100738095Y-41026216D01*
X100738095Y-41026216D02*
X100976190Y-41026216D01*
X100976190Y-41026216D02*
X101071428Y-41073835D01*
X101071428Y-41073835D02*
X101119047Y-41121454D01*
X101119047Y-41121454D02*
X101166666Y-41216692D01*
X101166666Y-41216692D02*
X101166666Y-41311930D01*
X101166666Y-41311930D02*
X101119047Y-41454787D01*
X101119047Y-41454787D02*
X100547619Y-42026216D01*
X100547619Y-42026216D02*
X101166666Y-42026216D01*
X87738095Y-43685841D02*
X87738095Y-44495364D01*
X87738095Y-44495364D02*
X87785714Y-44590602D01*
X87785714Y-44590602D02*
X87833333Y-44638222D01*
X87833333Y-44638222D02*
X87928571Y-44685841D01*
X87928571Y-44685841D02*
X88119047Y-44685841D01*
X88119047Y-44685841D02*
X88214285Y-44638222D01*
X88214285Y-44638222D02*
X88261904Y-44590602D01*
X88261904Y-44590602D02*
X88309523Y-44495364D01*
X88309523Y-44495364D02*
X88309523Y-43685841D01*
X88690476Y-43685841D02*
X89309523Y-43685841D01*
X89309523Y-43685841D02*
X88976190Y-44066793D01*
X88976190Y-44066793D02*
X89119047Y-44066793D01*
X89119047Y-44066793D02*
X89214285Y-44114412D01*
X89214285Y-44114412D02*
X89261904Y-44162031D01*
X89261904Y-44162031D02*
X89309523Y-44257269D01*
X89309523Y-44257269D02*
X89309523Y-44495364D01*
X89309523Y-44495364D02*
X89261904Y-44590602D01*
X89261904Y-44590602D02*
X89214285Y-44638222D01*
X89214285Y-44638222D02*
X89119047Y-44685841D01*
X89119047Y-44685841D02*
X88833333Y-44685841D01*
X88833333Y-44685841D02*
X88738095Y-44638222D01*
X88738095Y-44638222D02*
X88690476Y-44590602D01*
X102833333Y-53195841D02*
X102500000Y-52719650D01*
X102261905Y-53195841D02*
X102261905Y-52195841D01*
X102261905Y-52195841D02*
X102642857Y-52195841D01*
X102642857Y-52195841D02*
X102738095Y-52243460D01*
X102738095Y-52243460D02*
X102785714Y-52291079D01*
X102785714Y-52291079D02*
X102833333Y-52386317D01*
X102833333Y-52386317D02*
X102833333Y-52529174D01*
X102833333Y-52529174D02*
X102785714Y-52624412D01*
X102785714Y-52624412D02*
X102738095Y-52672031D01*
X102738095Y-52672031D02*
X102642857Y-52719650D01*
X102642857Y-52719650D02*
X102261905Y-52719650D01*
X103166667Y-52195841D02*
X103785714Y-52195841D01*
X103785714Y-52195841D02*
X103452381Y-52576793D01*
X103452381Y-52576793D02*
X103595238Y-52576793D01*
X103595238Y-52576793D02*
X103690476Y-52624412D01*
X103690476Y-52624412D02*
X103738095Y-52672031D01*
X103738095Y-52672031D02*
X103785714Y-52767269D01*
X103785714Y-52767269D02*
X103785714Y-53005364D01*
X103785714Y-53005364D02*
X103738095Y-53100602D01*
X103738095Y-53100602D02*
X103690476Y-53148222D01*
X103690476Y-53148222D02*
X103595238Y-53195841D01*
X103595238Y-53195841D02*
X103309524Y-53195841D01*
X103309524Y-53195841D02*
X103214286Y-53148222D01*
X103214286Y-53148222D02*
X103166667Y-53100602D01*
X51419819Y-58177926D02*
X52229342Y-58177926D01*
X52229342Y-58177926D02*
X52324580Y-58130307D01*
X52324580Y-58130307D02*
X52372200Y-58082688D01*
X52372200Y-58082688D02*
X52419819Y-57987450D01*
X52419819Y-57987450D02*
X52419819Y-57796974D01*
X52419819Y-57796974D02*
X52372200Y-57701736D01*
X52372200Y-57701736D02*
X52324580Y-57654117D01*
X52324580Y-57654117D02*
X52229342Y-57606498D01*
X52229342Y-57606498D02*
X51419819Y-57606498D01*
X52419819Y-56606498D02*
X52419819Y-57177926D01*
X52419819Y-56892212D02*
X51419819Y-56892212D01*
X51419819Y-56892212D02*
X51562676Y-56987450D01*
X51562676Y-56987450D02*
X51657914Y-57082688D01*
X51657914Y-57082688D02*
X51705533Y-57177926D01*
X64854819Y-66952926D02*
X65664342Y-66952926D01*
X65664342Y-66952926D02*
X65759580Y-66905307D01*
X65759580Y-66905307D02*
X65807200Y-66857688D01*
X65807200Y-66857688D02*
X65854819Y-66762450D01*
X65854819Y-66762450D02*
X65854819Y-66571974D01*
X65854819Y-66571974D02*
X65807200Y-66476736D01*
X65807200Y-66476736D02*
X65759580Y-66429117D01*
X65759580Y-66429117D02*
X65664342Y-66381498D01*
X65664342Y-66381498D02*
X64854819Y-66381498D01*
X64854819Y-65476736D02*
X64854819Y-65667212D01*
X64854819Y-65667212D02*
X64902438Y-65762450D01*
X64902438Y-65762450D02*
X64950057Y-65810069D01*
X64950057Y-65810069D02*
X65092914Y-65905307D01*
X65092914Y-65905307D02*
X65283390Y-65952926D01*
X65283390Y-65952926D02*
X65664342Y-65952926D01*
X65664342Y-65952926D02*
X65759580Y-65905307D01*
X65759580Y-65905307D02*
X65807200Y-65857688D01*
X65807200Y-65857688D02*
X65854819Y-65762450D01*
X65854819Y-65762450D02*
X65854819Y-65571974D01*
X65854819Y-65571974D02*
X65807200Y-65476736D01*
X65807200Y-65476736D02*
X65759580Y-65429117D01*
X65759580Y-65429117D02*
X65664342Y-65381498D01*
X65664342Y-65381498D02*
X65426247Y-65381498D01*
X65426247Y-65381498D02*
X65331009Y-65429117D01*
X65331009Y-65429117D02*
X65283390Y-65476736D01*
X65283390Y-65476736D02*
X65235771Y-65571974D01*
X65235771Y-65571974D02*
X65235771Y-65762450D01*
X65235771Y-65762450D02*
X65283390Y-65857688D01*
X65283390Y-65857688D02*
X65331009Y-65905307D01*
X65331009Y-65905307D02*
X65426247Y-65952926D01*
X50833333Y-74495841D02*
X50500000Y-74019650D01*
X50261905Y-74495841D02*
X50261905Y-73495841D01*
X50261905Y-73495841D02*
X50642857Y-73495841D01*
X50642857Y-73495841D02*
X50738095Y-73543460D01*
X50738095Y-73543460D02*
X50785714Y-73591079D01*
X50785714Y-73591079D02*
X50833333Y-73686317D01*
X50833333Y-73686317D02*
X50833333Y-73829174D01*
X50833333Y-73829174D02*
X50785714Y-73924412D01*
X50785714Y-73924412D02*
X50738095Y-73972031D01*
X50738095Y-73972031D02*
X50642857Y-74019650D01*
X50642857Y-74019650D02*
X50261905Y-74019650D01*
X51690476Y-73495841D02*
X51500000Y-73495841D01*
X51500000Y-73495841D02*
X51404762Y-73543460D01*
X51404762Y-73543460D02*
X51357143Y-73591079D01*
X51357143Y-73591079D02*
X51261905Y-73733936D01*
X51261905Y-73733936D02*
X51214286Y-73924412D01*
X51214286Y-73924412D02*
X51214286Y-74305364D01*
X51214286Y-74305364D02*
X51261905Y-74400602D01*
X51261905Y-74400602D02*
X51309524Y-74448222D01*
X51309524Y-74448222D02*
X51404762Y-74495841D01*
X51404762Y-74495841D02*
X51595238Y-74495841D01*
X51595238Y-74495841D02*
X51690476Y-74448222D01*
X51690476Y-74448222D02*
X51738095Y-74400602D01*
X51738095Y-74400602D02*
X51785714Y-74305364D01*
X51785714Y-74305364D02*
X51785714Y-74067269D01*
X51785714Y-74067269D02*
X51738095Y-73972031D01*
X51738095Y-73972031D02*
X51690476Y-73924412D01*
X51690476Y-73924412D02*
X51595238Y-73876793D01*
X51595238Y-73876793D02*
X51404762Y-73876793D01*
X51404762Y-73876793D02*
X51309524Y-73924412D01*
X51309524Y-73924412D02*
X51261905Y-73972031D01*
X51261905Y-73972031D02*
X51214286Y-74067269D01*
X72333333Y-56066763D02*
X72285714Y-56114383D01*
X72285714Y-56114383D02*
X72142857Y-56162002D01*
X72142857Y-56162002D02*
X72047619Y-56162002D01*
X72047619Y-56162002D02*
X71904762Y-56114383D01*
X71904762Y-56114383D02*
X71809524Y-56019144D01*
X71809524Y-56019144D02*
X71761905Y-55923906D01*
X71761905Y-55923906D02*
X71714286Y-55733430D01*
X71714286Y-55733430D02*
X71714286Y-55590573D01*
X71714286Y-55590573D02*
X71761905Y-55400097D01*
X71761905Y-55400097D02*
X71809524Y-55304859D01*
X71809524Y-55304859D02*
X71904762Y-55209621D01*
X71904762Y-55209621D02*
X72047619Y-55162002D01*
X72047619Y-55162002D02*
X72142857Y-55162002D01*
X72142857Y-55162002D02*
X72285714Y-55209621D01*
X72285714Y-55209621D02*
X72333333Y-55257240D01*
X72714286Y-55257240D02*
X72761905Y-55209621D01*
X72761905Y-55209621D02*
X72857143Y-55162002D01*
X72857143Y-55162002D02*
X73095238Y-55162002D01*
X73095238Y-55162002D02*
X73190476Y-55209621D01*
X73190476Y-55209621D02*
X73238095Y-55257240D01*
X73238095Y-55257240D02*
X73285714Y-55352478D01*
X73285714Y-55352478D02*
X73285714Y-55447716D01*
X73285714Y-55447716D02*
X73238095Y-55590573D01*
X73238095Y-55590573D02*
X72666667Y-56162002D01*
X72666667Y-56162002D02*
X73285714Y-56162002D01*
X88741399Y-72132135D02*
X88408066Y-71655944D01*
X88169971Y-72132135D02*
X88169971Y-71132135D01*
X88169971Y-71132135D02*
X88550923Y-71132135D01*
X88550923Y-71132135D02*
X88646161Y-71179754D01*
X88646161Y-71179754D02*
X88693780Y-71227373D01*
X88693780Y-71227373D02*
X88741399Y-71322611D01*
X88741399Y-71322611D02*
X88741399Y-71465468D01*
X88741399Y-71465468D02*
X88693780Y-71560706D01*
X88693780Y-71560706D02*
X88646161Y-71608325D01*
X88646161Y-71608325D02*
X88550923Y-71655944D01*
X88550923Y-71655944D02*
X88169971Y-71655944D01*
X89074733Y-71132135D02*
X89741399Y-71132135D01*
X89741399Y-71132135D02*
X89312828Y-72132135D01*
X61969819Y-53582688D02*
X61493628Y-53916021D01*
X61969819Y-54154116D02*
X60969819Y-54154116D01*
X60969819Y-54154116D02*
X60969819Y-53773164D01*
X60969819Y-53773164D02*
X61017438Y-53677926D01*
X61017438Y-53677926D02*
X61065057Y-53630307D01*
X61065057Y-53630307D02*
X61160295Y-53582688D01*
X61160295Y-53582688D02*
X61303152Y-53582688D01*
X61303152Y-53582688D02*
X61398390Y-53630307D01*
X61398390Y-53630307D02*
X61446009Y-53677926D01*
X61446009Y-53677926D02*
X61493628Y-53773164D01*
X61493628Y-53773164D02*
X61493628Y-54154116D01*
X61969819Y-52630307D02*
X61969819Y-53201735D01*
X61969819Y-52916021D02*
X60969819Y-52916021D01*
X60969819Y-52916021D02*
X61112676Y-53011259D01*
X61112676Y-53011259D02*
X61207914Y-53106497D01*
X61207914Y-53106497D02*
X61255533Y-53201735D01*
X61969819Y-58179116D02*
X60969819Y-58179116D01*
X60969819Y-58179116D02*
X60969819Y-57941021D01*
X60969819Y-57941021D02*
X61017438Y-57798164D01*
X61017438Y-57798164D02*
X61112676Y-57702926D01*
X61112676Y-57702926D02*
X61207914Y-57655307D01*
X61207914Y-57655307D02*
X61398390Y-57607688D01*
X61398390Y-57607688D02*
X61541247Y-57607688D01*
X61541247Y-57607688D02*
X61731723Y-57655307D01*
X61731723Y-57655307D02*
X61826961Y-57702926D01*
X61826961Y-57702926D02*
X61922200Y-57798164D01*
X61922200Y-57798164D02*
X61969819Y-57941021D01*
X61969819Y-57941021D02*
X61969819Y-58179116D01*
X61969819Y-56655307D02*
X61969819Y-57226735D01*
X61969819Y-56941021D02*
X60969819Y-56941021D01*
X60969819Y-56941021D02*
X61112676Y-57036259D01*
X61112676Y-57036259D02*
X61207914Y-57131497D01*
X61207914Y-57131497D02*
X61255533Y-57226735D01*
X94064819Y-76724355D02*
X94779104Y-76724355D01*
X94779104Y-76724355D02*
X94921961Y-76771974D01*
X94921961Y-76771974D02*
X95017200Y-76867212D01*
X95017200Y-76867212D02*
X95064819Y-77010069D01*
X95064819Y-77010069D02*
X95064819Y-77105307D01*
X95064819Y-76248164D02*
X94064819Y-76248164D01*
X94064819Y-76248164D02*
X94064819Y-75867212D01*
X94064819Y-75867212D02*
X94112438Y-75771974D01*
X94112438Y-75771974D02*
X94160057Y-75724355D01*
X94160057Y-75724355D02*
X94255295Y-75676736D01*
X94255295Y-75676736D02*
X94398152Y-75676736D01*
X94398152Y-75676736D02*
X94493390Y-75724355D01*
X94493390Y-75724355D02*
X94541009Y-75771974D01*
X94541009Y-75771974D02*
X94588628Y-75867212D01*
X94588628Y-75867212D02*
X94588628Y-76248164D01*
X94160057Y-75295783D02*
X94112438Y-75248164D01*
X94112438Y-75248164D02*
X94064819Y-75152926D01*
X94064819Y-75152926D02*
X94064819Y-74914831D01*
X94064819Y-74914831D02*
X94112438Y-74819593D01*
X94112438Y-74819593D02*
X94160057Y-74771974D01*
X94160057Y-74771974D02*
X94255295Y-74724355D01*
X94255295Y-74724355D02*
X94350533Y-74724355D01*
X94350533Y-74724355D02*
X94493390Y-74771974D01*
X94493390Y-74771974D02*
X95064819Y-75343402D01*
X95064819Y-75343402D02*
X95064819Y-74724355D01*
X106261905Y-53195841D02*
X106261905Y-52195841D01*
X106261905Y-52195841D02*
X106500000Y-52195841D01*
X106500000Y-52195841D02*
X106642857Y-52243460D01*
X106642857Y-52243460D02*
X106738095Y-52338698D01*
X106738095Y-52338698D02*
X106785714Y-52433936D01*
X106785714Y-52433936D02*
X106833333Y-52624412D01*
X106833333Y-52624412D02*
X106833333Y-52767269D01*
X106833333Y-52767269D02*
X106785714Y-52957745D01*
X106785714Y-52957745D02*
X106738095Y-53052983D01*
X106738095Y-53052983D02*
X106642857Y-53148222D01*
X106642857Y-53148222D02*
X106500000Y-53195841D01*
X106500000Y-53195841D02*
X106261905Y-53195841D01*
X107214286Y-52291079D02*
X107261905Y-52243460D01*
X107261905Y-52243460D02*
X107357143Y-52195841D01*
X107357143Y-52195841D02*
X107595238Y-52195841D01*
X107595238Y-52195841D02*
X107690476Y-52243460D01*
X107690476Y-52243460D02*
X107738095Y-52291079D01*
X107738095Y-52291079D02*
X107785714Y-52386317D01*
X107785714Y-52386317D02*
X107785714Y-52481555D01*
X107785714Y-52481555D02*
X107738095Y-52624412D01*
X107738095Y-52624412D02*
X107166667Y-53195841D01*
X107166667Y-53195841D02*
X107785714Y-53195841D01*
X46261905Y-74495841D02*
X46261905Y-73495841D01*
X46261905Y-73495841D02*
X46500000Y-73495841D01*
X46500000Y-73495841D02*
X46642857Y-73543460D01*
X46642857Y-73543460D02*
X46738095Y-73638698D01*
X46738095Y-73638698D02*
X46785714Y-73733936D01*
X46785714Y-73733936D02*
X46833333Y-73924412D01*
X46833333Y-73924412D02*
X46833333Y-74067269D01*
X46833333Y-74067269D02*
X46785714Y-74257745D01*
X46785714Y-74257745D02*
X46738095Y-74352983D01*
X46738095Y-74352983D02*
X46642857Y-74448222D01*
X46642857Y-74448222D02*
X46500000Y-74495841D01*
X46500000Y-74495841D02*
X46261905Y-74495841D01*
X47690476Y-73495841D02*
X47500000Y-73495841D01*
X47500000Y-73495841D02*
X47404762Y-73543460D01*
X47404762Y-73543460D02*
X47357143Y-73591079D01*
X47357143Y-73591079D02*
X47261905Y-73733936D01*
X47261905Y-73733936D02*
X47214286Y-73924412D01*
X47214286Y-73924412D02*
X47214286Y-74305364D01*
X47214286Y-74305364D02*
X47261905Y-74400602D01*
X47261905Y-74400602D02*
X47309524Y-74448222D01*
X47309524Y-74448222D02*
X47404762Y-74495841D01*
X47404762Y-74495841D02*
X47595238Y-74495841D01*
X47595238Y-74495841D02*
X47690476Y-74448222D01*
X47690476Y-74448222D02*
X47738095Y-74400602D01*
X47738095Y-74400602D02*
X47785714Y-74305364D01*
X47785714Y-74305364D02*
X47785714Y-74067269D01*
X47785714Y-74067269D02*
X47738095Y-73972031D01*
X47738095Y-73972031D02*
X47690476Y-73924412D01*
X47690476Y-73924412D02*
X47595238Y-73876793D01*
X47595238Y-73876793D02*
X47404762Y-73876793D01*
X47404762Y-73876793D02*
X47309524Y-73924412D01*
X47309524Y-73924412D02*
X47261905Y-73972031D01*
X47261905Y-73972031D02*
X47214286Y-74067269D01*
X48900954Y-63850602D02*
X48853335Y-63898222D01*
X48853335Y-63898222D02*
X48710478Y-63945841D01*
X48710478Y-63945841D02*
X48615240Y-63945841D01*
X48615240Y-63945841D02*
X48472383Y-63898222D01*
X48472383Y-63898222D02*
X48377145Y-63802983D01*
X48377145Y-63802983D02*
X48329526Y-63707745D01*
X48329526Y-63707745D02*
X48281907Y-63517269D01*
X48281907Y-63517269D02*
X48281907Y-63374412D01*
X48281907Y-63374412D02*
X48329526Y-63183936D01*
X48329526Y-63183936D02*
X48377145Y-63088698D01*
X48377145Y-63088698D02*
X48472383Y-62993460D01*
X48472383Y-62993460D02*
X48615240Y-62945841D01*
X48615240Y-62945841D02*
X48710478Y-62945841D01*
X48710478Y-62945841D02*
X48853335Y-62993460D01*
X48853335Y-62993460D02*
X48900954Y-63041079D01*
X49758097Y-63279174D02*
X49758097Y-63945841D01*
X49520002Y-62898222D02*
X49281907Y-63612507D01*
X49281907Y-63612507D02*
X49900954Y-63612507D01*
X109304819Y-40057688D02*
X108828628Y-40391021D01*
X109304819Y-40629116D02*
X108304819Y-40629116D01*
X108304819Y-40629116D02*
X108304819Y-40248164D01*
X108304819Y-40248164D02*
X108352438Y-40152926D01*
X108352438Y-40152926D02*
X108400057Y-40105307D01*
X108400057Y-40105307D02*
X108495295Y-40057688D01*
X108495295Y-40057688D02*
X108638152Y-40057688D01*
X108638152Y-40057688D02*
X108733390Y-40105307D01*
X108733390Y-40105307D02*
X108781009Y-40152926D01*
X108781009Y-40152926D02*
X108828628Y-40248164D01*
X108828628Y-40248164D02*
X108828628Y-40629116D01*
X108400057Y-39676735D02*
X108352438Y-39629116D01*
X108352438Y-39629116D02*
X108304819Y-39533878D01*
X108304819Y-39533878D02*
X108304819Y-39295783D01*
X108304819Y-39295783D02*
X108352438Y-39200545D01*
X108352438Y-39200545D02*
X108400057Y-39152926D01*
X108400057Y-39152926D02*
X108495295Y-39105307D01*
X108495295Y-39105307D02*
X108590533Y-39105307D01*
X108590533Y-39105307D02*
X108733390Y-39152926D01*
X108733390Y-39152926D02*
X109304819Y-39724354D01*
X109304819Y-39724354D02*
X109304819Y-39105307D01*
X101454819Y-59104116D02*
X100454819Y-59104116D01*
X100454819Y-59104116D02*
X100454819Y-58866021D01*
X100454819Y-58866021D02*
X100502438Y-58723164D01*
X100502438Y-58723164D02*
X100597676Y-58627926D01*
X100597676Y-58627926D02*
X100692914Y-58580307D01*
X100692914Y-58580307D02*
X100883390Y-58532688D01*
X100883390Y-58532688D02*
X101026247Y-58532688D01*
X101026247Y-58532688D02*
X101216723Y-58580307D01*
X101216723Y-58580307D02*
X101311961Y-58627926D01*
X101311961Y-58627926D02*
X101407200Y-58723164D01*
X101407200Y-58723164D02*
X101454819Y-58866021D01*
X101454819Y-58866021D02*
X101454819Y-59104116D01*
X100788152Y-57675545D02*
X101454819Y-57675545D01*
X100407200Y-57913640D02*
X101121485Y-58151735D01*
X101121485Y-58151735D02*
X101121485Y-57532688D01*
X97054819Y-61352926D02*
X97864342Y-61352926D01*
X97864342Y-61352926D02*
X97959580Y-61305307D01*
X97959580Y-61305307D02*
X98007200Y-61257688D01*
X98007200Y-61257688D02*
X98054819Y-61162450D01*
X98054819Y-61162450D02*
X98054819Y-60971974D01*
X98054819Y-60971974D02*
X98007200Y-60876736D01*
X98007200Y-60876736D02*
X97959580Y-60829117D01*
X97959580Y-60829117D02*
X97864342Y-60781498D01*
X97864342Y-60781498D02*
X97054819Y-60781498D01*
X97388152Y-59876736D02*
X98054819Y-59876736D01*
X97007200Y-60114831D02*
X97721485Y-60352926D01*
X97721485Y-60352926D02*
X97721485Y-59733879D01*
X67077619Y-37940841D02*
X67077619Y-36940841D01*
X67077619Y-36940841D02*
X67458571Y-36940841D01*
X67458571Y-36940841D02*
X67553809Y-36988460D01*
X67553809Y-36988460D02*
X67601428Y-37036079D01*
X67601428Y-37036079D02*
X67649047Y-37131317D01*
X67649047Y-37131317D02*
X67649047Y-37274174D01*
X67649047Y-37274174D02*
X67601428Y-37369412D01*
X67601428Y-37369412D02*
X67553809Y-37417031D01*
X67553809Y-37417031D02*
X67458571Y-37464650D01*
X67458571Y-37464650D02*
X67077619Y-37464650D01*
X67982381Y-36940841D02*
X68220476Y-37940841D01*
X68220476Y-37940841D02*
X68410952Y-37226555D01*
X68410952Y-37226555D02*
X68601428Y-37940841D01*
X68601428Y-37940841D02*
X68839524Y-36940841D01*
X69791904Y-37940841D02*
X69458571Y-37464650D01*
X69220476Y-37940841D02*
X69220476Y-36940841D01*
X69220476Y-36940841D02*
X69601428Y-36940841D01*
X69601428Y-36940841D02*
X69696666Y-36988460D01*
X69696666Y-36988460D02*
X69744285Y-37036079D01*
X69744285Y-37036079D02*
X69791904Y-37131317D01*
X69791904Y-37131317D02*
X69791904Y-37274174D01*
X69791904Y-37274174D02*
X69744285Y-37369412D01*
X69744285Y-37369412D02*
X69696666Y-37417031D01*
X69696666Y-37417031D02*
X69601428Y-37464650D01*
X69601428Y-37464650D02*
X69220476Y-37464650D01*
X69982381Y-38036079D02*
X70744285Y-38036079D01*
X70982381Y-37940841D02*
X70982381Y-36940841D01*
X71458571Y-37940841D02*
X71458571Y-36940841D01*
X71458571Y-36940841D02*
X72029999Y-37940841D01*
X72029999Y-37940841D02*
X72029999Y-36940841D01*
X73029999Y-37940841D02*
X72458571Y-37940841D01*
X72744285Y-37940841D02*
X72744285Y-36940841D01*
X72744285Y-36940841D02*
X72649047Y-37083698D01*
X72649047Y-37083698D02*
X72553809Y-37178936D01*
X72553809Y-37178936D02*
X72458571Y-37226555D01*
X98833333Y-56495841D02*
X98500000Y-56019650D01*
X98261905Y-56495841D02*
X98261905Y-55495841D01*
X98261905Y-55495841D02*
X98642857Y-55495841D01*
X98642857Y-55495841D02*
X98738095Y-55543460D01*
X98738095Y-55543460D02*
X98785714Y-55591079D01*
X98785714Y-55591079D02*
X98833333Y-55686317D01*
X98833333Y-55686317D02*
X98833333Y-55829174D01*
X98833333Y-55829174D02*
X98785714Y-55924412D01*
X98785714Y-55924412D02*
X98738095Y-55972031D01*
X98738095Y-55972031D02*
X98642857Y-56019650D01*
X98642857Y-56019650D02*
X98261905Y-56019650D01*
X99690476Y-55829174D02*
X99690476Y-56495841D01*
X99452381Y-55448222D02*
X99214286Y-56162507D01*
X99214286Y-56162507D02*
X99833333Y-56162507D01*
X71870418Y-43562002D02*
X71870418Y-44371525D01*
X71870418Y-44371525D02*
X71918037Y-44466763D01*
X71918037Y-44466763D02*
X71965656Y-44514383D01*
X71965656Y-44514383D02*
X72060894Y-44562002D01*
X72060894Y-44562002D02*
X72251370Y-44562002D01*
X72251370Y-44562002D02*
X72346608Y-44514383D01*
X72346608Y-44514383D02*
X72394227Y-44466763D01*
X72394227Y-44466763D02*
X72441846Y-44371525D01*
X72441846Y-44371525D02*
X72441846Y-43562002D01*
X72870418Y-43657240D02*
X72918037Y-43609621D01*
X72918037Y-43609621D02*
X73013275Y-43562002D01*
X73013275Y-43562002D02*
X73251370Y-43562002D01*
X73251370Y-43562002D02*
X73346608Y-43609621D01*
X73346608Y-43609621D02*
X73394227Y-43657240D01*
X73394227Y-43657240D02*
X73441846Y-43752478D01*
X73441846Y-43752478D02*
X73441846Y-43847716D01*
X73441846Y-43847716D02*
X73394227Y-43990573D01*
X73394227Y-43990573D02*
X72822799Y-44562002D01*
X72822799Y-44562002D02*
X73441846Y-44562002D01*
X107166666Y-40885841D02*
X107166666Y-41600126D01*
X107166666Y-41600126D02*
X107119047Y-41742983D01*
X107119047Y-41742983D02*
X107023809Y-41838222D01*
X107023809Y-41838222D02*
X106880952Y-41885841D01*
X106880952Y-41885841D02*
X106785714Y-41885841D01*
X108166666Y-41885841D02*
X107595238Y-41885841D01*
X107880952Y-41885841D02*
X107880952Y-40885841D01*
X107880952Y-40885841D02*
X107785714Y-41028698D01*
X107785714Y-41028698D02*
X107690476Y-41123936D01*
X107690476Y-41123936D02*
X107595238Y-41171555D01*
D12*
%TO.C,D7*%
X77500000Y-72351022D02*
X80360000Y-72351022D01*
X80360000Y-70431022D02*
X77500000Y-70431022D01*
X80360000Y-72351022D02*
X80360000Y-70431022D01*
D13*
%TO.C,G\u002A\u002A\u002A*%
G36*
X31215543Y-51749291D02*
G01*
X31215543Y-51949777D01*
X31015057Y-51949777D01*
X30814571Y-51949777D01*
X30814571Y-51749291D01*
X30814571Y-51548805D01*
X31015057Y-51548805D01*
X31215543Y-51548805D01*
X31215543Y-51749291D01*
G37*
G36*
X31419884Y-44257617D02*
G01*
X31624225Y-44261920D01*
X31628542Y-44458550D01*
X31632858Y-44655181D01*
X31424200Y-44655181D01*
X31215543Y-44655181D01*
X31215543Y-44454247D01*
X31215543Y-44253314D01*
X31419884Y-44257617D01*
G37*
G36*
X32032908Y-41624762D02*
G01*
X32032908Y-42233930D01*
X31423740Y-42233930D01*
X30814571Y-42233930D01*
X30814571Y-41624762D01*
X30814571Y-41015593D01*
X31423740Y-41015593D01*
X32032908Y-41015593D01*
X32032908Y-41624762D01*
G37*
G36*
X32032908Y-53777281D02*
G01*
X32032908Y-54386450D01*
X31423740Y-54386450D01*
X30814571Y-54386450D01*
X30814571Y-53777281D01*
X30814571Y-53168113D01*
X31423740Y-53168113D01*
X32032908Y-53168113D01*
X32032908Y-53777281D01*
G37*
G36*
X32433879Y-44053723D02*
G01*
X32433879Y-44254209D01*
X32233394Y-44254209D01*
X32032908Y-44254209D01*
X32032908Y-44053723D01*
X32032908Y-43853238D01*
X32233394Y-43853238D01*
X32433879Y-43853238D01*
X32433879Y-44053723D01*
G37*
G36*
X32834851Y-44454695D02*
G01*
X32834851Y-44655181D01*
X32634365Y-44655181D01*
X32433879Y-44655181D01*
X32433879Y-44454695D01*
X32433879Y-44254209D01*
X32634365Y-44254209D01*
X32834851Y-44254209D01*
X32834851Y-44454695D01*
G37*
G36*
X32834851Y-49319869D02*
G01*
X32834851Y-49528526D01*
X32633917Y-49528526D01*
X32432984Y-49528526D01*
X32437287Y-49324185D01*
X32441590Y-49119844D01*
X32638220Y-49115527D01*
X32834851Y-49111211D01*
X32834851Y-49319869D01*
G37*
G36*
X32834851Y-51749291D02*
G01*
X32834851Y-51949777D01*
X32634365Y-51949777D01*
X32433879Y-51949777D01*
X32433879Y-51749291D01*
X32433879Y-51548805D01*
X32634365Y-51548805D01*
X32834851Y-51548805D01*
X32834851Y-51749291D01*
G37*
G36*
X33652216Y-42835387D02*
G01*
X33652216Y-43035873D01*
X33451730Y-43035873D01*
X33251244Y-43035873D01*
X33251244Y-42835387D01*
X33251244Y-42634901D01*
X33451730Y-42634901D01*
X33652216Y-42634901D01*
X33652216Y-42835387D01*
G37*
G36*
X33652216Y-46891368D02*
G01*
X33652216Y-47091853D01*
X33451730Y-47091853D01*
X33251244Y-47091853D01*
X33251244Y-46891368D01*
X33251244Y-46690882D01*
X33451730Y-46690882D01*
X33652216Y-46690882D01*
X33652216Y-46891368D01*
G37*
G36*
X34053187Y-43244069D02*
G01*
X34053187Y-43452266D01*
X33852701Y-43452266D01*
X33652216Y-43452266D01*
X33652216Y-43244069D01*
X33652216Y-43035873D01*
X33852701Y-43035873D01*
X34053187Y-43035873D01*
X34053187Y-43244069D01*
G37*
G36*
X34454159Y-49729012D02*
G01*
X34454159Y-49929497D01*
X34253673Y-49929497D01*
X34053187Y-49929497D01*
X34053187Y-49729012D01*
X34053187Y-49528526D01*
X34253673Y-49528526D01*
X34454159Y-49528526D01*
X34454159Y-49729012D01*
G37*
G36*
X35271523Y-42835387D02*
G01*
X35271523Y-43035873D01*
X35071038Y-43035873D01*
X34870552Y-43035873D01*
X34870552Y-42835387D01*
X34870552Y-42634901D01*
X35071038Y-42634901D01*
X35271523Y-42634901D01*
X35271523Y-42835387D01*
G37*
G36*
X35271523Y-46891368D02*
G01*
X35271523Y-47091853D01*
X35071038Y-47091853D01*
X34870552Y-47091853D01*
X34870552Y-46891368D01*
X34870552Y-46690882D01*
X35071038Y-46690882D01*
X35271523Y-46690882D01*
X35271523Y-46891368D01*
G37*
G36*
X35672495Y-41624762D02*
G01*
X35672495Y-41832958D01*
X35472009Y-41832958D01*
X35271523Y-41832958D01*
X35271523Y-41624762D01*
X35271523Y-41416565D01*
X35472009Y-41416565D01*
X35672495Y-41416565D01*
X35672495Y-41624762D01*
G37*
G36*
X35672495Y-54987907D02*
G01*
X35672495Y-55188392D01*
X35472009Y-55188392D01*
X35271523Y-55188392D01*
X35271523Y-54987907D01*
X35271523Y-54787421D01*
X35472009Y-54787421D01*
X35672495Y-54787421D01*
X35672495Y-54987907D01*
G37*
G36*
X36489860Y-54987907D02*
G01*
X36489860Y-55188392D01*
X36289374Y-55188392D01*
X36088888Y-55188392D01*
X36088888Y-54987907D01*
X36088888Y-54787421D01*
X36289374Y-54787421D01*
X36489860Y-54787421D01*
X36489860Y-54987907D01*
G37*
G36*
X36890831Y-50129983D02*
G01*
X36890831Y-50330469D01*
X36690346Y-50330469D01*
X36489860Y-50330469D01*
X36489860Y-50129983D01*
X36489860Y-49929497D01*
X36690346Y-49929497D01*
X36890831Y-49929497D01*
X36890831Y-50129983D01*
G37*
G36*
X37708196Y-41216079D02*
G01*
X37708196Y-41416565D01*
X37499999Y-41416565D01*
X37291803Y-41416565D01*
X37291803Y-41216079D01*
X37291803Y-41015593D01*
X37499999Y-41015593D01*
X37708196Y-41015593D01*
X37708196Y-41216079D01*
G37*
G36*
X38510139Y-45272060D02*
G01*
X38510139Y-45472545D01*
X38309653Y-45472545D01*
X38109168Y-45472545D01*
X38109168Y-45272060D01*
X38109168Y-45071574D01*
X38309653Y-45071574D01*
X38510139Y-45071574D01*
X38510139Y-45272060D01*
G37*
G36*
X39327504Y-54987459D02*
G01*
X39327504Y-55188392D01*
X39118847Y-55188392D01*
X38910189Y-55188392D01*
X38914505Y-54991762D01*
X38918822Y-54795132D01*
X39123163Y-54790829D01*
X39327504Y-54786526D01*
X39327504Y-54987459D01*
G37*
G36*
X40129447Y-54185964D02*
G01*
X40129447Y-54386450D01*
X39928961Y-54386450D01*
X39728475Y-54386450D01*
X39728475Y-54185964D01*
X39728475Y-53985478D01*
X39928961Y-53985478D01*
X40129447Y-53985478D01*
X40129447Y-54185964D01*
G37*
G36*
X40129447Y-54987907D02*
G01*
X40129447Y-55188392D01*
X39928961Y-55188392D01*
X39728475Y-55188392D01*
X39728475Y-54987907D01*
X39728475Y-54787421D01*
X39928961Y-54787421D01*
X40129447Y-54787421D01*
X40129447Y-54987907D01*
G37*
G36*
X40946812Y-50947348D02*
G01*
X40946812Y-51147834D01*
X40746326Y-51147834D01*
X40545840Y-51147834D01*
X40545840Y-50947348D01*
X40545840Y-50746862D01*
X40746326Y-50746862D01*
X40946812Y-50746862D01*
X40946812Y-50947348D01*
G37*
G36*
X41748755Y-54987907D02*
G01*
X41748755Y-55188392D01*
X41548269Y-55188392D01*
X41347783Y-55188392D01*
X41347783Y-54987907D01*
X41347783Y-54787421D01*
X41548269Y-54787421D01*
X41748755Y-54787421D01*
X41748755Y-54987907D01*
G37*
G36*
X42566120Y-52566656D02*
G01*
X42566120Y-52767142D01*
X42365634Y-52767142D01*
X42165148Y-52767142D01*
X42165148Y-52566656D01*
X42165148Y-52366170D01*
X42365634Y-52366170D01*
X42566120Y-52366170D01*
X42566120Y-52566656D01*
G37*
G36*
X44185428Y-41624762D02*
G01*
X44185428Y-42233930D01*
X43576259Y-42233930D01*
X42967091Y-42233930D01*
X42967091Y-41624762D01*
X42967091Y-41015593D01*
X43576259Y-41015593D01*
X44185428Y-41015593D01*
X44185428Y-41624762D01*
G37*
G36*
X44586399Y-47292339D02*
G01*
X44586399Y-47492825D01*
X44385913Y-47492825D01*
X44185428Y-47492825D01*
X44185428Y-47292339D01*
X44185428Y-47091853D01*
X44385913Y-47091853D01*
X44586399Y-47091853D01*
X44586399Y-47292339D01*
G37*
G36*
X44987370Y-47701021D02*
G01*
X44987370Y-47909218D01*
X44786885Y-47909218D01*
X44586399Y-47909218D01*
X44586399Y-47701021D01*
X44586399Y-47492825D01*
X44786885Y-47492825D01*
X44987370Y-47492825D01*
X44987370Y-47701021D01*
G37*
G36*
X44987370Y-49319869D02*
G01*
X44987370Y-49528526D01*
X44786437Y-49528526D01*
X44585504Y-49528526D01*
X44589807Y-49324185D01*
X44594110Y-49119844D01*
X44790740Y-49115527D01*
X44987370Y-49111211D01*
X44987370Y-49319869D01*
G37*
G36*
X44987370Y-51749291D02*
G01*
X44987370Y-51949777D01*
X44786885Y-51949777D01*
X44586399Y-51949777D01*
X44586399Y-51749291D01*
X44586399Y-51548805D01*
X44786885Y-51548805D01*
X44987370Y-51548805D01*
X44987370Y-51749291D01*
G37*
G36*
X36088468Y-50451217D02*
G01*
X36087798Y-50972937D01*
X35983551Y-51058698D01*
X35879304Y-51144459D01*
X35775899Y-51059430D01*
X35672495Y-50974400D01*
X35672495Y-50861092D01*
X35672495Y-50747784D01*
X35475865Y-50743468D01*
X35279234Y-50739151D01*
X35275123Y-50334324D01*
X35271011Y-49929497D01*
X35680074Y-49929497D01*
X36089137Y-49929497D01*
X36088468Y-50451217D01*
G37*
G36*
X36081177Y-52157973D02*
G01*
X36081177Y-52358459D01*
X35884241Y-52362778D01*
X35798649Y-52363925D01*
X35739565Y-52362743D01*
X35702714Y-52358891D01*
X35683824Y-52352028D01*
X35679385Y-52346458D01*
X35676636Y-52323608D01*
X35675059Y-52276826D01*
X35674773Y-52213007D01*
X35675835Y-52141654D01*
X35680206Y-51957488D01*
X35880692Y-51957488D01*
X36081177Y-51957488D01*
X36081177Y-52157973D01*
G37*
G36*
X30209259Y-44658575D02*
G01*
X30405889Y-44662892D01*
X30410192Y-44867233D01*
X30414495Y-45071574D01*
X30614533Y-45071574D01*
X30814571Y-45071574D01*
X30814571Y-45272060D01*
X30814571Y-45472545D01*
X30614086Y-45472545D01*
X30413600Y-45472545D01*
X30413600Y-45272060D01*
X30413600Y-45071574D01*
X30213114Y-45071574D01*
X30012628Y-45071574D01*
X30012628Y-44862916D01*
X30012628Y-44654259D01*
X30209259Y-44658575D01*
G37*
G36*
X34454159Y-50538666D02*
G01*
X34454159Y-50746862D01*
X34263954Y-50746862D01*
X34190255Y-50746073D01*
X34128115Y-50743919D01*
X34083843Y-50740725D01*
X34063751Y-50736815D01*
X34063468Y-50736581D01*
X34059600Y-50718089D01*
X34056396Y-50674924D01*
X34054162Y-50613255D01*
X34053202Y-50539250D01*
X34053187Y-50528384D01*
X34053187Y-50330469D01*
X34253673Y-50330469D01*
X34454159Y-50330469D01*
X34454159Y-50538666D01*
G37*
G36*
X34767148Y-45961921D02*
G01*
X34870552Y-46046950D01*
X34870552Y-46368916D01*
X34870552Y-46690882D01*
X34547858Y-46690882D01*
X34225165Y-46690882D01*
X34140313Y-46588656D01*
X34055461Y-46486429D01*
X34134201Y-46388170D01*
X34212942Y-46289910D01*
X34333550Y-46289910D01*
X34454159Y-46289910D01*
X34454159Y-46169610D01*
X34454159Y-46049310D01*
X34558951Y-45963101D01*
X34663743Y-45876891D01*
X34767148Y-45961921D01*
G37*
G36*
X42566120Y-46891368D02*
G01*
X42566120Y-47091853D01*
X42365634Y-47091853D01*
X42165148Y-47091853D01*
X42165148Y-47292339D01*
X42165148Y-47492825D01*
X41956951Y-47492825D01*
X41748755Y-47492825D01*
X41748755Y-47292339D01*
X41748755Y-47091853D01*
X41956951Y-47091853D01*
X42165148Y-47091853D01*
X42165148Y-46891368D01*
X42165148Y-46690882D01*
X42365634Y-46690882D01*
X42566120Y-46690882D01*
X42566120Y-46891368D01*
G37*
G36*
X44890074Y-44336837D02*
G01*
X44986958Y-44416140D01*
X44987164Y-44944343D01*
X44987370Y-45472545D01*
X44667364Y-45472339D01*
X44347358Y-45472133D01*
X44265704Y-45372391D01*
X44184050Y-45272649D01*
X44264616Y-45172112D01*
X44345182Y-45071574D01*
X44465791Y-45071574D01*
X44586399Y-45071574D01*
X44586399Y-44748520D01*
X44586399Y-44425465D01*
X44689794Y-44341500D01*
X44793190Y-44257535D01*
X44890074Y-44336837D01*
G37*
G36*
X41567251Y-40223032D02*
G01*
X41588439Y-40238432D01*
X41625012Y-40267583D01*
X41668161Y-40303426D01*
X41749498Y-40372252D01*
X41745271Y-40618339D01*
X41741044Y-40864427D01*
X41646767Y-40939771D01*
X41552489Y-41015115D01*
X41450136Y-40934401D01*
X41347783Y-40853687D01*
X41347783Y-40612106D01*
X41347783Y-40370526D01*
X41447731Y-40290995D01*
X41503559Y-40249837D01*
X41544528Y-40226508D01*
X41567165Y-40222983D01*
X41567251Y-40223032D01*
G37*
G36*
X31950653Y-43550017D02*
G01*
X32030329Y-43647355D01*
X31950653Y-43749618D01*
X31870977Y-43851880D01*
X31628928Y-43852559D01*
X31386879Y-43853238D01*
X31314692Y-43764621D01*
X31278468Y-43718861D01*
X31250284Y-43680861D01*
X31235723Y-43658180D01*
X31235218Y-43657013D01*
X31240848Y-43636757D01*
X31262367Y-43600402D01*
X31295416Y-43555119D01*
X31302702Y-43546020D01*
X31377474Y-43454018D01*
X31624225Y-43453348D01*
X31870977Y-43452678D01*
X31950653Y-43550017D01*
G37*
G36*
X32834851Y-41624762D02*
G01*
X32834851Y-43035873D01*
X31423740Y-43035873D01*
X30012628Y-43035873D01*
X30012628Y-42619479D01*
X30429022Y-42619479D01*
X31423740Y-42619479D01*
X32418457Y-42619479D01*
X32418457Y-41624762D01*
X32418457Y-40630044D01*
X31423740Y-40630044D01*
X30429022Y-40630044D01*
X30429022Y-41624762D01*
X30429022Y-42619479D01*
X30012628Y-42619479D01*
X30012628Y-41624762D01*
X30012628Y-40213650D01*
X31423740Y-40213650D01*
X32834851Y-40213650D01*
X32834851Y-41624762D01*
G37*
G36*
X32834851Y-53777281D02*
G01*
X32834851Y-55188392D01*
X31423740Y-55188392D01*
X30012628Y-55188392D01*
X30012628Y-54771999D01*
X30429022Y-54771999D01*
X31423740Y-54771999D01*
X32418457Y-54771999D01*
X32418457Y-53777281D01*
X32418457Y-52782564D01*
X31423740Y-52782564D01*
X30429022Y-52782564D01*
X30429022Y-53777281D01*
X30429022Y-54771999D01*
X30012628Y-54771999D01*
X30012628Y-53777281D01*
X30012628Y-52366170D01*
X31423740Y-52366170D01*
X32834851Y-52366170D01*
X32834851Y-53777281D01*
G37*
G36*
X32842562Y-43453348D02*
G01*
X33089313Y-43454018D01*
X33164085Y-43546020D01*
X33198846Y-43592196D01*
X33222912Y-43630816D01*
X33231924Y-43654713D01*
X33231569Y-43657013D01*
X33218733Y-43677681D01*
X33191696Y-43714450D01*
X33156044Y-43759758D01*
X33152095Y-43764621D01*
X33079908Y-43853238D01*
X32837859Y-43852559D01*
X32595810Y-43851880D01*
X32516134Y-43749618D01*
X32436458Y-43647355D01*
X32516134Y-43550017D01*
X32595810Y-43452678D01*
X32842562Y-43453348D01*
G37*
G36*
X33550276Y-53249434D02*
G01*
X33650840Y-53330044D01*
X33651528Y-53571605D01*
X33652216Y-53813167D01*
X33558335Y-53891611D01*
X33511959Y-53928506D01*
X33473289Y-53955896D01*
X33449274Y-53968948D01*
X33446526Y-53969412D01*
X33426587Y-53959830D01*
X33390672Y-53935164D01*
X33346132Y-53900509D01*
X33340842Y-53896158D01*
X33253088Y-53823547D01*
X33252166Y-53575707D01*
X33251244Y-53327868D01*
X33350478Y-53248346D01*
X33449713Y-53168825D01*
X33550276Y-53249434D01*
G37*
G36*
X37111521Y-41441009D02*
G01*
X37146610Y-41464865D01*
X37191467Y-41498737D01*
X37199681Y-41505241D01*
X37291550Y-41578496D01*
X37291676Y-41826335D01*
X37291803Y-42074175D01*
X37192885Y-42153443D01*
X37093968Y-42232710D01*
X36993318Y-42152355D01*
X36892668Y-42071999D01*
X36891750Y-41830438D01*
X36890831Y-41588876D01*
X36984712Y-41510431D01*
X37030611Y-41473524D01*
X37068197Y-41445949D01*
X37090769Y-41432554D01*
X37093202Y-41431987D01*
X37111521Y-41441009D01*
G37*
G36*
X39947276Y-44679834D02*
G01*
X39980197Y-44704325D01*
X40023791Y-44739275D01*
X40035566Y-44749047D01*
X40129447Y-44827492D01*
X40129241Y-45069053D01*
X40129035Y-45310615D01*
X40030286Y-45391452D01*
X39931536Y-45472289D01*
X39830694Y-45391452D01*
X39729852Y-45310615D01*
X39729164Y-45069493D01*
X39728475Y-44828371D01*
X39824798Y-44749487D01*
X39870827Y-44712765D01*
X39907705Y-44685152D01*
X39929075Y-44671351D01*
X39931403Y-44670603D01*
X39947276Y-44679834D01*
G37*
G36*
X43289178Y-43949560D02*
G01*
X43325848Y-43995258D01*
X43353445Y-44031408D01*
X43367289Y-44051818D01*
X43368063Y-44053882D01*
X43359030Y-44068774D01*
X43335041Y-44101224D01*
X43300759Y-44144987D01*
X43290253Y-44158045D01*
X43212442Y-44254209D01*
X42967719Y-44254209D01*
X42722995Y-44254209D01*
X42643666Y-44154514D01*
X42564336Y-44054820D01*
X42645105Y-43954029D01*
X42725874Y-43853238D01*
X42968084Y-43853238D01*
X43210294Y-43853238D01*
X43289178Y-43949560D01*
G37*
G36*
X43782126Y-53588165D02*
G01*
X44034259Y-53592218D01*
X44109215Y-53686008D01*
X44184172Y-53779799D01*
X44098811Y-53882639D01*
X44013450Y-53985478D01*
X43776905Y-53985478D01*
X43540360Y-53985478D01*
X43461922Y-53886904D01*
X43425580Y-53839947D01*
X43398175Y-53802093D01*
X43384314Y-53779787D01*
X43383485Y-53777118D01*
X43392520Y-53760529D01*
X43416406Y-53726921D01*
X43450316Y-53683022D01*
X43456739Y-53675009D01*
X43529993Y-53584112D01*
X43782126Y-53588165D01*
G37*
G36*
X44908486Y-48406512D02*
G01*
X44945156Y-48452210D01*
X44972753Y-48488360D01*
X44986596Y-48508770D01*
X44987370Y-48510834D01*
X44978338Y-48525726D01*
X44954349Y-48558176D01*
X44920067Y-48601939D01*
X44909560Y-48614997D01*
X44831750Y-48711161D01*
X44588466Y-48711161D01*
X44345182Y-48711161D01*
X44264616Y-48610623D01*
X44184050Y-48510086D01*
X44265704Y-48410344D01*
X44347358Y-48310602D01*
X44588480Y-48310396D01*
X44829602Y-48310190D01*
X44908486Y-48406512D01*
G37*
G36*
X44987370Y-41624762D02*
G01*
X44987370Y-43035873D01*
X43576259Y-43035873D01*
X42165148Y-43035873D01*
X42165148Y-42619479D01*
X42581542Y-42619479D01*
X43576259Y-42619479D01*
X44570977Y-42619479D01*
X44570977Y-41624762D01*
X44570977Y-40630044D01*
X43576259Y-40630044D01*
X42581542Y-40630044D01*
X42581542Y-41624762D01*
X42581542Y-42619479D01*
X42165148Y-42619479D01*
X42165148Y-41624762D01*
X42165148Y-40213650D01*
X43576259Y-40213650D01*
X44987370Y-40213650D01*
X44987370Y-41624762D01*
G37*
G36*
X38510139Y-41825247D02*
G01*
X38510139Y-42233930D01*
X38309653Y-42233930D01*
X38109168Y-42233930D01*
X38108961Y-42353450D01*
X38108755Y-42472970D01*
X38009850Y-42553936D01*
X37963935Y-42591060D01*
X37928025Y-42619223D01*
X37908013Y-42633835D01*
X37905893Y-42634901D01*
X37892481Y-42625837D01*
X37861298Y-42601745D01*
X37818323Y-42567280D01*
X37804519Y-42556017D01*
X37708196Y-42477133D01*
X37708196Y-41946849D01*
X37708196Y-41416565D01*
X38109168Y-41416565D01*
X38510139Y-41416565D01*
X38510139Y-41825247D01*
G37*
G36*
X44098811Y-50433308D02*
G01*
X44184172Y-50536148D01*
X44109287Y-50629939D01*
X44034403Y-50723729D01*
X43882441Y-50733484D01*
X43733869Y-50739910D01*
X43569244Y-50741778D01*
X43403017Y-50739113D01*
X43256388Y-50732382D01*
X43121580Y-50723729D01*
X43045409Y-50631226D01*
X43006884Y-50582515D01*
X42986615Y-50550588D01*
X42981777Y-50529718D01*
X42988356Y-50515561D01*
X43007691Y-50492003D01*
X43039379Y-50453266D01*
X43073540Y-50411434D01*
X43139605Y-50330469D01*
X43576527Y-50330469D01*
X44013450Y-50330469D01*
X44098811Y-50433308D01*
G37*
G36*
X39238913Y-42234262D02*
G01*
X39566545Y-42234594D01*
X39647804Y-42334703D01*
X39729063Y-42434812D01*
X39648892Y-42534857D01*
X39568721Y-42634901D01*
X39448112Y-42634901D01*
X39327504Y-42634901D01*
X39327504Y-42755510D01*
X39327504Y-42876118D01*
X39227826Y-42955995D01*
X39180555Y-42992690D01*
X39142170Y-43020292D01*
X39119101Y-43034254D01*
X39116016Y-43035099D01*
X39099289Y-43025457D01*
X39065612Y-43000533D01*
X39021417Y-42965154D01*
X39008154Y-42954133D01*
X38912422Y-42873942D01*
X38911851Y-42553936D01*
X38911280Y-42233930D01*
X39238913Y-42234262D01*
G37*
G36*
X44816528Y-52380274D02*
G01*
X44850859Y-52405934D01*
X44894851Y-52440289D01*
X44898608Y-52443280D01*
X44985649Y-52512679D01*
X44986510Y-52840396D01*
X44987370Y-53168113D01*
X44667364Y-53167907D01*
X44347358Y-53167701D01*
X44265704Y-53067959D01*
X44184050Y-52968217D01*
X44264616Y-52867679D01*
X44345182Y-52767142D01*
X44465791Y-52767142D01*
X44586399Y-52767142D01*
X44586399Y-52646459D01*
X44586399Y-52525776D01*
X44686429Y-52444617D01*
X44733622Y-52408046D01*
X44772126Y-52381385D01*
X44795591Y-52368916D01*
X44799013Y-52368670D01*
X44816528Y-52380274D01*
G37*
G36*
X34679336Y-43060265D02*
G01*
X34712782Y-43084114D01*
X34757442Y-43118251D01*
X34771978Y-43129732D01*
X34870552Y-43208170D01*
X34870552Y-43444691D01*
X34870552Y-43681211D01*
X34789587Y-43748526D01*
X34744778Y-43785517D01*
X34706926Y-43816302D01*
X34685355Y-43833339D01*
X34669142Y-43838398D01*
X34645532Y-43830382D01*
X34609391Y-43806597D01*
X34558577Y-43766777D01*
X34455066Y-43682718D01*
X34455066Y-43446520D01*
X34455066Y-43210322D01*
X34554291Y-43130808D01*
X34601160Y-43094153D01*
X34638752Y-43066431D01*
X34660765Y-43052233D01*
X34663460Y-43051295D01*
X34679336Y-43060265D01*
G37*
G36*
X39531504Y-40226412D02*
G01*
X39572357Y-40249609D01*
X39628093Y-40290649D01*
X39628528Y-40290995D01*
X39728475Y-40370526D01*
X39728475Y-40612297D01*
X39728475Y-40854069D01*
X39640914Y-40923265D01*
X39595463Y-40958795D01*
X39558443Y-40987032D01*
X39537446Y-41002191D01*
X39536815Y-41002586D01*
X39517884Y-40998340D01*
X39482312Y-40978064D01*
X39436892Y-40945788D01*
X39423891Y-40935595D01*
X39327504Y-40858478D01*
X39327504Y-40615047D01*
X39327504Y-40371617D01*
X39408469Y-40303109D01*
X39452284Y-40266730D01*
X39488560Y-40237857D01*
X39509008Y-40223032D01*
X39531504Y-40226412D01*
G37*
G36*
X42161855Y-54387326D02*
G01*
X42404189Y-54388201D01*
X42477443Y-54478380D01*
X42512800Y-54524086D01*
X42538790Y-54561837D01*
X42550482Y-54584390D01*
X42550698Y-54585995D01*
X42541639Y-54605729D01*
X42517694Y-54641934D01*
X42483711Y-54687375D01*
X42477443Y-54695300D01*
X42404189Y-54787168D01*
X42157437Y-54786434D01*
X41910686Y-54785699D01*
X41844879Y-54702314D01*
X41810348Y-54657002D01*
X41783624Y-54619062D01*
X41770705Y-54597126D01*
X41776039Y-54575188D01*
X41798408Y-54537135D01*
X41833879Y-54489476D01*
X41840930Y-54480886D01*
X41919521Y-54386450D01*
X42161855Y-54387326D01*
G37*
G36*
X32355321Y-44765841D02*
G01*
X32392260Y-44815303D01*
X32415693Y-44854595D01*
X32422195Y-44877842D01*
X32421564Y-44879473D01*
X32406942Y-44900089D01*
X32378777Y-44936820D01*
X32343036Y-44981893D01*
X32341347Y-44983990D01*
X32271948Y-45070115D01*
X32031820Y-45070844D01*
X31791691Y-45071574D01*
X31710773Y-44970597D01*
X31674364Y-44923194D01*
X31647715Y-44884697D01*
X31635080Y-44861401D01*
X31634751Y-44858013D01*
X31646182Y-44840989D01*
X31671689Y-44807048D01*
X31705950Y-44763254D01*
X31709046Y-44759365D01*
X31778445Y-44672324D01*
X32028352Y-44671463D01*
X32278259Y-44670603D01*
X32355321Y-44765841D01*
G37*
G36*
X32754973Y-47592503D02*
G01*
X32791695Y-47639324D01*
X32819511Y-47676686D01*
X32833853Y-47698383D01*
X32834851Y-47701021D01*
X32825851Y-47716316D01*
X32801899Y-47749284D01*
X32767561Y-47793721D01*
X32754973Y-47809540D01*
X32675096Y-47909218D01*
X32233394Y-47909218D01*
X31791691Y-47909218D01*
X31711814Y-47809540D01*
X31675092Y-47762719D01*
X31647276Y-47725357D01*
X31632934Y-47703660D01*
X31631936Y-47701021D01*
X31640936Y-47685727D01*
X31664888Y-47652759D01*
X31699226Y-47608322D01*
X31711814Y-47592503D01*
X31791691Y-47492825D01*
X32233394Y-47492825D01*
X32675096Y-47492825D01*
X32754973Y-47592503D01*
G37*
G36*
X33467351Y-51974495D02*
G01*
X33502321Y-51999148D01*
X33547042Y-52034299D01*
X33558335Y-52043643D01*
X33652216Y-52122088D01*
X33651520Y-52363649D01*
X33650824Y-52605211D01*
X33556835Y-52678465D01*
X33509931Y-52713278D01*
X33471206Y-52738844D01*
X33447841Y-52750492D01*
X33445721Y-52750746D01*
X33426136Y-52741084D01*
X33390358Y-52716501D01*
X33345692Y-52682062D01*
X33340062Y-52677492D01*
X33251528Y-52605211D01*
X33252262Y-52358459D01*
X33252996Y-52111708D01*
X33343175Y-52038453D01*
X33388585Y-52003140D01*
X33425688Y-51977161D01*
X33447395Y-51965427D01*
X33448904Y-51965199D01*
X33467351Y-51974495D01*
G37*
G36*
X33571250Y-49117393D02*
G01*
X33891256Y-49127488D01*
X33957307Y-49200775D01*
X34003614Y-49252920D01*
X34030317Y-49289953D01*
X34037947Y-49320131D01*
X34027034Y-49351710D01*
X33998106Y-49392945D01*
X33971788Y-49426436D01*
X33891280Y-49528526D01*
X33771748Y-49528526D01*
X33652216Y-49528526D01*
X33652216Y-49929497D01*
X33652216Y-50330469D01*
X32922439Y-50330469D01*
X32192662Y-50330469D01*
X32112096Y-50229931D01*
X32031531Y-50129393D01*
X32113185Y-50029652D01*
X32194839Y-49929910D01*
X32723041Y-49929704D01*
X33251244Y-49929497D01*
X33251244Y-49518398D01*
X33251244Y-49107298D01*
X33571250Y-49117393D01*
G37*
G36*
X36705017Y-44679702D02*
G01*
X36737339Y-44703881D01*
X36780963Y-44738457D01*
X36794509Y-44749487D01*
X36890831Y-44828371D01*
X36890499Y-45069493D01*
X36890167Y-45310615D01*
X36790417Y-45391580D01*
X36744384Y-45428495D01*
X36708547Y-45456388D01*
X36688722Y-45470764D01*
X36686650Y-45471771D01*
X36673810Y-45462253D01*
X36643205Y-45437627D01*
X36600689Y-45402625D01*
X36586484Y-45390806D01*
X36490334Y-45310615D01*
X36490097Y-45068419D01*
X36489860Y-44826223D01*
X36586024Y-44748413D01*
X36631787Y-44712135D01*
X36667936Y-44684882D01*
X36688228Y-44671314D01*
X36690187Y-44670603D01*
X36705017Y-44679702D01*
G37*
G36*
X39134305Y-44679608D02*
G01*
X39167492Y-44703577D01*
X39212056Y-44737936D01*
X39227826Y-44750480D01*
X39327504Y-44830357D01*
X39327504Y-45064757D01*
X39327504Y-45299157D01*
X39246539Y-45366817D01*
X39201768Y-45404001D01*
X39163933Y-45435021D01*
X39142307Y-45452310D01*
X39126333Y-45457645D01*
X39103269Y-45450143D01*
X39067942Y-45427097D01*
X39015175Y-45385797D01*
X39015075Y-45385717D01*
X38911111Y-45301289D01*
X38911317Y-45066911D01*
X38911523Y-44832533D01*
X39010428Y-44751568D01*
X39056957Y-44714346D01*
X39094220Y-44686151D01*
X39116022Y-44671614D01*
X39118740Y-44670603D01*
X39134305Y-44679608D01*
G37*
G36*
X34053187Y-41216079D02*
G01*
X34053187Y-41416565D01*
X34173796Y-41416565D01*
X34294404Y-41416565D01*
X34374281Y-41516243D01*
X34411024Y-41563194D01*
X34438846Y-41600841D01*
X34453172Y-41622915D01*
X34454159Y-41625674D01*
X34445010Y-41641448D01*
X34420847Y-41674142D01*
X34386592Y-41717144D01*
X34380904Y-41724055D01*
X34307650Y-41812683D01*
X34114875Y-41822758D01*
X34038030Y-41825901D01*
X33938899Y-41828650D01*
X33826039Y-41830841D01*
X33708007Y-41832310D01*
X33593360Y-41832893D01*
X33586672Y-41832896D01*
X33251244Y-41832958D01*
X33251244Y-41424276D01*
X33251244Y-41015593D01*
X33652216Y-41015593D01*
X34053187Y-41015593D01*
X34053187Y-41216079D01*
G37*
G36*
X30814571Y-48022190D02*
G01*
X30814571Y-48551556D01*
X30716213Y-48631358D01*
X30670272Y-48668041D01*
X30634270Y-48695679D01*
X30614193Y-48709716D01*
X30612115Y-48710592D01*
X30598307Y-48701315D01*
X30566709Y-48677175D01*
X30523397Y-48642845D01*
X30509987Y-48632034D01*
X30413600Y-48554045D01*
X30413600Y-48231632D01*
X30413600Y-47909218D01*
X30292991Y-47909218D01*
X30172383Y-47909218D01*
X30092506Y-47809540D01*
X30055784Y-47762719D01*
X30027968Y-47725357D01*
X30013626Y-47703660D01*
X30012628Y-47701021D01*
X30021628Y-47685727D01*
X30045580Y-47652759D01*
X30079918Y-47608322D01*
X30092506Y-47592503D01*
X30172383Y-47492825D01*
X30493477Y-47492825D01*
X30814571Y-47492825D01*
X30814571Y-48022190D01*
G37*
G36*
X35593775Y-51649928D02*
G01*
X35633319Y-51700791D01*
X35655301Y-51734337D01*
X35662524Y-51756413D01*
X35657792Y-51772866D01*
X35654785Y-51777160D01*
X35634377Y-51803037D01*
X35602369Y-51842881D01*
X35575081Y-51876522D01*
X35515403Y-51949777D01*
X35393463Y-51949777D01*
X35271523Y-51949777D01*
X35271523Y-52072452D01*
X35271523Y-52195128D01*
X35175359Y-52272938D01*
X35129358Y-52309253D01*
X35092684Y-52336518D01*
X35071701Y-52350054D01*
X35069559Y-52350748D01*
X35053643Y-52341910D01*
X35020213Y-52318503D01*
X34975865Y-52285193D01*
X34965933Y-52277494D01*
X34871944Y-52204239D01*
X34871248Y-51876522D01*
X34870552Y-51548805D01*
X35191646Y-51548805D01*
X35512740Y-51548805D01*
X35593775Y-51649928D01*
G37*
G36*
X35879603Y-53985684D02*
G01*
X36327929Y-53985890D01*
X36407605Y-54083229D01*
X36487281Y-54180567D01*
X36407605Y-54282830D01*
X36327929Y-54385092D01*
X36208409Y-54385771D01*
X36088888Y-54386450D01*
X36088888Y-54500588D01*
X36088888Y-54614727D01*
X36000212Y-54690723D01*
X35955010Y-54728841D01*
X35917584Y-54759282D01*
X35895192Y-54776160D01*
X35893715Y-54777079D01*
X35874309Y-54772810D01*
X35838141Y-54752377D01*
X35791841Y-54719721D01*
X35774883Y-54706465D01*
X35673871Y-54625490D01*
X35673183Y-54505970D01*
X35672495Y-54386450D01*
X35552963Y-54386450D01*
X35433430Y-54386450D01*
X35353212Y-54284725D01*
X35272993Y-54183001D01*
X35352136Y-54084239D01*
X35431278Y-53985478D01*
X35879603Y-53985684D01*
G37*
G36*
X38436885Y-40214307D02*
G01*
X38764602Y-40214964D01*
X38826290Y-40293970D01*
X38868005Y-40347771D01*
X38891940Y-40384988D01*
X38898330Y-40414075D01*
X38887408Y-40443488D01*
X38859406Y-40481680D01*
X38832385Y-40514935D01*
X38751505Y-40614622D01*
X38630822Y-40614622D01*
X38510139Y-40614622D01*
X38510139Y-40815108D01*
X38510139Y-41015593D01*
X38187605Y-41015593D01*
X37865072Y-41015593D01*
X37785032Y-40915006D01*
X37745926Y-40864396D01*
X37724245Y-40831121D01*
X37717200Y-40809219D01*
X37721998Y-40792729D01*
X37725462Y-40787774D01*
X37746135Y-40761577D01*
X37778342Y-40721491D01*
X37805610Y-40687876D01*
X37865288Y-40614622D01*
X37987228Y-40614622D01*
X38109168Y-40614622D01*
X38109168Y-40414136D01*
X38109168Y-40213650D01*
X38436885Y-40214307D01*
G37*
G36*
X36294161Y-52375345D02*
G01*
X36328270Y-52397667D01*
X36373225Y-52431354D01*
X36389830Y-52444617D01*
X36489860Y-52525776D01*
X36489860Y-52646459D01*
X36489860Y-52767142D01*
X36812285Y-52767142D01*
X37134711Y-52767142D01*
X37194389Y-52840396D01*
X37230009Y-52884363D01*
X37260178Y-52922025D01*
X37274537Y-52940294D01*
X37282446Y-52956315D01*
X37279379Y-52975898D01*
X37262543Y-53005002D01*
X37229149Y-53049589D01*
X37214967Y-53067526D01*
X37134927Y-53168113D01*
X37012879Y-53168113D01*
X36890831Y-53168113D01*
X36890831Y-53368599D01*
X36890831Y-53569085D01*
X36489860Y-53569085D01*
X36088888Y-53569085D01*
X36089749Y-53040882D01*
X36090610Y-52512679D01*
X36177651Y-52443280D01*
X36222111Y-52408456D01*
X36257487Y-52381896D01*
X36276626Y-52368958D01*
X36277246Y-52368670D01*
X36294161Y-52375345D01*
G37*
G36*
X34776494Y-42324700D02*
G01*
X34813895Y-42370133D01*
X34841650Y-42408156D01*
X34854721Y-42431757D01*
X34855130Y-42434131D01*
X34845956Y-42454438D01*
X34821731Y-42490883D01*
X34787400Y-42536116D01*
X34781876Y-42542970D01*
X34708621Y-42633149D01*
X34581390Y-42634025D01*
X34454159Y-42634901D01*
X34453091Y-42762133D01*
X34452023Y-42889364D01*
X34361162Y-42962618D01*
X34316059Y-42997709D01*
X34279914Y-43023484D01*
X34259531Y-43035143D01*
X34258131Y-43035375D01*
X34241316Y-43025953D01*
X34207434Y-43001363D01*
X34162956Y-42966371D01*
X34149574Y-42955431D01*
X34053187Y-42875984D01*
X34053187Y-42755443D01*
X34053187Y-42634901D01*
X33932579Y-42634901D01*
X33811970Y-42634901D01*
X33731404Y-42534364D01*
X33650838Y-42433826D01*
X33732492Y-42334084D01*
X33814146Y-42234342D01*
X34256002Y-42234136D01*
X34697858Y-42233930D01*
X34776494Y-42324700D01*
G37*
G36*
X39132154Y-41033725D02*
G01*
X39162635Y-41052852D01*
X39208996Y-41089276D01*
X39224279Y-41101891D01*
X39327504Y-41187571D01*
X39327504Y-41302068D01*
X39327504Y-41416565D01*
X39442830Y-41416565D01*
X39558155Y-41416565D01*
X39642732Y-41519101D01*
X39727309Y-41621638D01*
X39697657Y-41661755D01*
X39668979Y-41698292D01*
X39631823Y-41742871D01*
X39617275Y-41759676D01*
X39566545Y-41817480D01*
X39250394Y-41827173D01*
X39154557Y-41829529D01*
X39069276Y-41830517D01*
X38999329Y-41830172D01*
X38949493Y-41828530D01*
X38924545Y-41825626D01*
X38922786Y-41824740D01*
X38919335Y-41806282D01*
X38916348Y-41761807D01*
X38913988Y-41696138D01*
X38912418Y-41614100D01*
X38911802Y-41520518D01*
X38911809Y-41499867D01*
X38912289Y-41187121D01*
X38992665Y-41121549D01*
X39037721Y-41084748D01*
X39075850Y-41053529D01*
X39097048Y-41036093D01*
X39112107Y-41029077D01*
X39132154Y-41033725D01*
G37*
G36*
X33164840Y-50841823D02*
G01*
X33200597Y-50887247D01*
X33221224Y-50920452D01*
X33225890Y-50948770D01*
X33213762Y-50979531D01*
X33184010Y-51020065D01*
X33138430Y-51074579D01*
X33076774Y-51147834D01*
X32554841Y-51147834D01*
X32032908Y-51147834D01*
X32032908Y-51468928D01*
X32032908Y-51790022D01*
X31933229Y-51869900D01*
X31887002Y-51906527D01*
X31850943Y-51934312D01*
X31830969Y-51948726D01*
X31828908Y-51949777D01*
X31815634Y-51940785D01*
X31784485Y-51916895D01*
X31741459Y-51882740D01*
X31728100Y-51871967D01*
X31631936Y-51794157D01*
X31631936Y-51470995D01*
X31631936Y-51147834D01*
X31510975Y-51147834D01*
X31390013Y-51147834D01*
X31328357Y-51074579D01*
X31281013Y-51017886D01*
X31252088Y-50977960D01*
X31240750Y-50947472D01*
X31246167Y-50919091D01*
X31267507Y-50885485D01*
X31301947Y-50841823D01*
X31377474Y-50747115D01*
X32233394Y-50747115D01*
X33089313Y-50747115D01*
X33164840Y-50841823D01*
G37*
G36*
X44185428Y-44261920D02*
G01*
X44185428Y-45071574D01*
X43984942Y-45071574D01*
X43784456Y-45071574D01*
X43784456Y-45185365D01*
X43784456Y-45299157D01*
X43703491Y-45366817D01*
X43658534Y-45404155D01*
X43620334Y-45435477D01*
X43598351Y-45453063D01*
X43582665Y-45459123D01*
X43561190Y-45453015D01*
X43528579Y-45431923D01*
X43479490Y-45393033D01*
X43470916Y-45385940D01*
X43367656Y-45300230D01*
X43371715Y-44781075D01*
X43375774Y-44261920D01*
X43580115Y-44257617D01*
X43784456Y-44253314D01*
X43784456Y-44053276D01*
X43784456Y-43853238D01*
X43661928Y-43853238D01*
X43539399Y-43853238D01*
X43467212Y-43764621D01*
X43431038Y-43718965D01*
X43402938Y-43681180D01*
X43388471Y-43658771D01*
X43387968Y-43657614D01*
X43393666Y-43637622D01*
X43415152Y-43601401D01*
X43448080Y-43556087D01*
X43455452Y-43546813D01*
X43529993Y-43454402D01*
X43857710Y-43453334D01*
X44185428Y-43452266D01*
X44185428Y-44261920D01*
G37*
G36*
X37704680Y-44254541D02*
G01*
X38348208Y-44254874D01*
X38430177Y-44355850D01*
X38470148Y-44406611D01*
X38492415Y-44440139D01*
X38499809Y-44462217D01*
X38495160Y-44478628D01*
X38492275Y-44482749D01*
X38471959Y-44508515D01*
X38440020Y-44548276D01*
X38412725Y-44581926D01*
X38353047Y-44655181D01*
X38231107Y-44655181D01*
X38109168Y-44655181D01*
X38109168Y-44863377D01*
X38109168Y-45071574D01*
X37908682Y-45071574D01*
X37708196Y-45071574D01*
X37708196Y-45185365D01*
X37708196Y-45299157D01*
X37627231Y-45366817D01*
X37582274Y-45404155D01*
X37544074Y-45435477D01*
X37522091Y-45453063D01*
X37506394Y-45459129D01*
X37484910Y-45453016D01*
X37452286Y-45431907D01*
X37403171Y-45392986D01*
X37394860Y-45386109D01*
X37291803Y-45300568D01*
X37291803Y-44977874D01*
X37291803Y-44655181D01*
X37171194Y-44655181D01*
X37050586Y-44655181D01*
X36971699Y-44556738D01*
X36892812Y-44458295D01*
X36976982Y-44356252D01*
X37061151Y-44254209D01*
X37704680Y-44254541D01*
G37*
G36*
X34683832Y-48331450D02*
G01*
X34717748Y-48355965D01*
X34762675Y-48389824D01*
X34773600Y-48398220D01*
X34869424Y-48472120D01*
X34869988Y-48799837D01*
X34870552Y-49127555D01*
X34991514Y-49127555D01*
X35112475Y-49127555D01*
X35172858Y-49200809D01*
X35208390Y-49244153D01*
X35238052Y-49280751D01*
X35252082Y-49298415D01*
X35258391Y-49314077D01*
X35252691Y-49335275D01*
X35232169Y-49367434D01*
X35194008Y-49415979D01*
X35186063Y-49425646D01*
X35101203Y-49528526D01*
X34787962Y-49528526D01*
X34692659Y-49528053D01*
X34608042Y-49526734D01*
X34538891Y-49524716D01*
X34489985Y-49522148D01*
X34466102Y-49519178D01*
X34464687Y-49518492D01*
X34462304Y-49501209D01*
X34460144Y-49456751D01*
X34458276Y-49388787D01*
X34456767Y-49300986D01*
X34455684Y-49197016D01*
X34455096Y-49080545D01*
X34455014Y-48994110D01*
X34455374Y-48479762D01*
X34556367Y-48398831D01*
X34603619Y-48362231D01*
X34641706Y-48335080D01*
X34664412Y-48321724D01*
X34667569Y-48321110D01*
X34683832Y-48331450D01*
G37*
G36*
X35668946Y-40538910D02*
G01*
X35664784Y-40864410D01*
X35570507Y-40939762D01*
X35476230Y-41015115D01*
X35373877Y-40934401D01*
X35271523Y-40853687D01*
X35271523Y-40734154D01*
X35271523Y-40614622D01*
X35071038Y-40614622D01*
X34870552Y-40614622D01*
X34870552Y-40935716D01*
X34870552Y-41256810D01*
X34770874Y-41336688D01*
X34724333Y-41373365D01*
X34687587Y-41401166D01*
X34666704Y-41415542D01*
X34664333Y-41416565D01*
X34649899Y-41407589D01*
X34618026Y-41383863D01*
X34575128Y-41350192D01*
X34567382Y-41343970D01*
X34522168Y-41306655D01*
X34486342Y-41275461D01*
X34466889Y-41256494D01*
X34465961Y-41255294D01*
X34462508Y-41235586D01*
X34459455Y-41189944D01*
X34456976Y-41123275D01*
X34455244Y-41040487D01*
X34454432Y-40946491D01*
X34454395Y-40926917D01*
X34454159Y-40614622D01*
X34134152Y-40613934D01*
X33814146Y-40613246D01*
X33733033Y-40512065D01*
X33651920Y-40410884D01*
X33727673Y-40316123D01*
X33803426Y-40221361D01*
X34738267Y-40217386D01*
X35673109Y-40213411D01*
X35668946Y-40538910D01*
G37*
G36*
X38510139Y-42835387D02*
G01*
X38510139Y-43035873D01*
X38309653Y-43035873D01*
X38109168Y-43035873D01*
X38108249Y-43363590D01*
X38107331Y-43691307D01*
X38006681Y-43771662D01*
X37906031Y-43852018D01*
X37807114Y-43772750D01*
X37708196Y-43693483D01*
X37708196Y-43572875D01*
X37708196Y-43452266D01*
X37499999Y-43452266D01*
X37291803Y-43452266D01*
X37291803Y-43572875D01*
X37291803Y-43693483D01*
X37192885Y-43772750D01*
X37093968Y-43852018D01*
X36993318Y-43771662D01*
X36892668Y-43691307D01*
X36891750Y-43363590D01*
X36890831Y-43035873D01*
X37091317Y-43035873D01*
X37291803Y-43035873D01*
X37291803Y-42920660D01*
X37291803Y-42805448D01*
X37390695Y-42726200D01*
X37437552Y-42689601D01*
X37475206Y-42661951D01*
X37497312Y-42647852D01*
X37499999Y-42646953D01*
X37516059Y-42655969D01*
X37549615Y-42679948D01*
X37594322Y-42714289D01*
X37609304Y-42726200D01*
X37708196Y-42805448D01*
X37708196Y-42920660D01*
X37708196Y-43035873D01*
X37908682Y-43035873D01*
X38109168Y-43035873D01*
X38109168Y-42835387D01*
X38109168Y-42634901D01*
X38309653Y-42634901D01*
X38510139Y-42634901D01*
X38510139Y-42835387D01*
G37*
G36*
X34454159Y-47292339D02*
G01*
X34454159Y-47492825D01*
X34862841Y-47492825D01*
X35271523Y-47492825D01*
X35270835Y-47820542D01*
X35270147Y-48148259D01*
X35169305Y-48229096D01*
X35068462Y-48309933D01*
X34969713Y-48229096D01*
X34870964Y-48148259D01*
X34870758Y-48028739D01*
X34870552Y-47909218D01*
X34662355Y-47909218D01*
X34454159Y-47909218D01*
X34454159Y-48030013D01*
X34454159Y-48150808D01*
X34389106Y-48203510D01*
X34332291Y-48250150D01*
X34293631Y-48279850D01*
X34265941Y-48293253D01*
X34242035Y-48291002D01*
X34214726Y-48273740D01*
X34176828Y-48242110D01*
X34155660Y-48224394D01*
X34053187Y-48139869D01*
X34053187Y-48024544D01*
X34053187Y-47909218D01*
X33733181Y-47908886D01*
X33413175Y-47908554D01*
X33332210Y-47808803D01*
X33295104Y-47762191D01*
X33266947Y-47725108D01*
X33252321Y-47703654D01*
X33251244Y-47701021D01*
X33260305Y-47686177D01*
X33284434Y-47653658D01*
X33319048Y-47609562D01*
X33332210Y-47593239D01*
X33413175Y-47493489D01*
X33532695Y-47493157D01*
X33652216Y-47492825D01*
X33652216Y-47292339D01*
X33652216Y-47091853D01*
X34053187Y-47091853D01*
X34454159Y-47091853D01*
X34454159Y-47292339D01*
G37*
G36*
X36890831Y-42556017D02*
G01*
X36890831Y-42878104D01*
X36794509Y-42956988D01*
X36748810Y-42993658D01*
X36712661Y-43021255D01*
X36692251Y-43035099D01*
X36690187Y-43035873D01*
X36675295Y-43026840D01*
X36642845Y-43002851D01*
X36599082Y-42968569D01*
X36586024Y-42958063D01*
X36489860Y-42880253D01*
X36489860Y-42757577D01*
X36489860Y-42634901D01*
X36289374Y-42634901D01*
X36088888Y-42634901D01*
X36088888Y-42834926D01*
X36088888Y-43034951D01*
X36285519Y-43039267D01*
X36482149Y-43043584D01*
X36486312Y-43361798D01*
X36490475Y-43680011D01*
X36401491Y-43756273D01*
X36356616Y-43794187D01*
X36319926Y-43824192D01*
X36298449Y-43840557D01*
X36296982Y-43841477D01*
X36278631Y-43836561D01*
X36243635Y-43815577D01*
X36198647Y-43782667D01*
X36185173Y-43771884D01*
X36088888Y-43693349D01*
X36088888Y-43573255D01*
X36088888Y-43453161D01*
X35884547Y-43448858D01*
X35680206Y-43444555D01*
X35676094Y-43039728D01*
X35671983Y-42634901D01*
X35551630Y-42634901D01*
X35431278Y-42634901D01*
X35351107Y-42534857D01*
X35270936Y-42434812D01*
X35352195Y-42334703D01*
X35433454Y-42234594D01*
X36162143Y-42234262D01*
X36890831Y-42233930D01*
X36890831Y-42556017D01*
G37*
G36*
X44082941Y-45554121D02*
G01*
X44183591Y-45634476D01*
X44184509Y-45753997D01*
X44185428Y-45873517D01*
X44586599Y-45873517D01*
X44987770Y-45873517D01*
X44983715Y-46407084D01*
X44979659Y-46940652D01*
X44885382Y-47016013D01*
X44791105Y-47091375D01*
X44688752Y-47010661D01*
X44586399Y-46929947D01*
X44586399Y-46609928D01*
X44586399Y-46289910D01*
X44385913Y-46289910D01*
X44185428Y-46289910D01*
X44185428Y-46610120D01*
X44185428Y-46930329D01*
X44097866Y-46999525D01*
X44052415Y-47035055D01*
X44015395Y-47063292D01*
X43994398Y-47078450D01*
X43993767Y-47078846D01*
X43974836Y-47074600D01*
X43939264Y-47054324D01*
X43893844Y-47022048D01*
X43880843Y-47011855D01*
X43784456Y-46934738D01*
X43784456Y-46812810D01*
X43784456Y-46690882D01*
X43460934Y-46690882D01*
X43137411Y-46690882D01*
X43053241Y-46588839D01*
X42969072Y-46486796D01*
X43047959Y-46388353D01*
X43126846Y-46289910D01*
X43247007Y-46289910D01*
X43367167Y-46289910D01*
X43371470Y-46085569D01*
X43375774Y-45881228D01*
X43580115Y-45876925D01*
X43784456Y-45872622D01*
X43784456Y-45752461D01*
X43784456Y-45632300D01*
X43883373Y-45553033D01*
X43982291Y-45473765D01*
X44082941Y-45554121D01*
G37*
G36*
X43368063Y-54185964D02*
G01*
X43368063Y-54386450D01*
X43776745Y-54386450D01*
X44185428Y-54386450D01*
X44185428Y-54185964D01*
X44185428Y-53985478D01*
X44586399Y-53985478D01*
X44987370Y-53985478D01*
X44986510Y-54513681D01*
X44985649Y-55041884D01*
X44898608Y-55111283D01*
X44854147Y-55146106D01*
X44818771Y-55172667D01*
X44799633Y-55185605D01*
X44799013Y-55185893D01*
X44782097Y-55179217D01*
X44747989Y-55156895D01*
X44703034Y-55123209D01*
X44686429Y-55109946D01*
X44586399Y-55028787D01*
X44586399Y-54908104D01*
X44586399Y-54787421D01*
X44185428Y-54787421D01*
X43784456Y-54787421D01*
X43784456Y-54987907D01*
X43784456Y-55188392D01*
X43253834Y-55188392D01*
X42723212Y-55188392D01*
X42663534Y-55115138D01*
X42627960Y-55071227D01*
X42597880Y-55033674D01*
X42583587Y-55015483D01*
X42575899Y-54999592D01*
X42579361Y-54980091D01*
X42596845Y-54951146D01*
X42631222Y-54906924D01*
X42645685Y-54889289D01*
X42728050Y-54789494D01*
X43048057Y-54788457D01*
X43368063Y-54787421D01*
X43368063Y-54586935D01*
X43368063Y-54386450D01*
X43167577Y-54386450D01*
X42967091Y-54386450D01*
X42967091Y-54185964D01*
X42967091Y-53985478D01*
X43167577Y-53985478D01*
X43368063Y-53985478D01*
X43368063Y-54185964D01*
G37*
G36*
X33062829Y-47928570D02*
G01*
X33099230Y-47952605D01*
X33145162Y-47986841D01*
X33155911Y-47995324D01*
X33250992Y-48071149D01*
X33251118Y-48190669D01*
X33251244Y-48310190D01*
X33572413Y-48310190D01*
X33893582Y-48310190D01*
X33974812Y-48410307D01*
X34056042Y-48510425D01*
X33976177Y-48610793D01*
X33896312Y-48711161D01*
X33573778Y-48711161D01*
X33251244Y-48711161D01*
X33251244Y-48831770D01*
X33251244Y-48952378D01*
X33151566Y-49032255D01*
X33104295Y-49068949D01*
X33065910Y-49096552D01*
X33042841Y-49110513D01*
X33039756Y-49111358D01*
X33023015Y-49101741D01*
X32989278Y-49076873D01*
X32944980Y-49041565D01*
X32931475Y-49030393D01*
X32835325Y-48950202D01*
X32835088Y-48830681D01*
X32834851Y-48711161D01*
X32715330Y-48711035D01*
X32595810Y-48710909D01*
X32522556Y-48619040D01*
X32487377Y-48572766D01*
X32461432Y-48534529D01*
X32449569Y-48511563D01*
X32449301Y-48509735D01*
X32458459Y-48490046D01*
X32482645Y-48454086D01*
X32516927Y-48409101D01*
X32522556Y-48402121D01*
X32595810Y-48311942D01*
X32715330Y-48311066D01*
X32834851Y-48310190D01*
X32834977Y-48190669D01*
X32835103Y-48071149D01*
X32930184Y-47995324D01*
X32977267Y-47959473D01*
X33016390Y-47932769D01*
X33040462Y-47919974D01*
X33043047Y-47919499D01*
X33062829Y-47928570D01*
G37*
G36*
X33871016Y-50756094D02*
G01*
X33903938Y-50780585D01*
X33947531Y-50815535D01*
X33959307Y-50825307D01*
X34053187Y-50903752D01*
X34053187Y-51025793D01*
X34053187Y-51147834D01*
X34380904Y-51148710D01*
X34708621Y-51149586D01*
X34781876Y-51239765D01*
X34817262Y-51285663D01*
X34843259Y-51323838D01*
X34854922Y-51346941D01*
X34855130Y-51348604D01*
X34845604Y-51368475D01*
X34820385Y-51404172D01*
X34784512Y-51448683D01*
X34776494Y-51458035D01*
X34697858Y-51548805D01*
X34375523Y-51548805D01*
X34053187Y-51548805D01*
X34053187Y-51670853D01*
X34053187Y-51792901D01*
X33954613Y-51871339D01*
X33908487Y-51907478D01*
X33872433Y-51934667D01*
X33852483Y-51948392D01*
X33850515Y-51949207D01*
X33836811Y-51939934D01*
X33805296Y-51915800D01*
X33762032Y-51881478D01*
X33748603Y-51870650D01*
X33652216Y-51792661D01*
X33652216Y-51670733D01*
X33652216Y-51548805D01*
X33530168Y-51548805D01*
X33408120Y-51548805D01*
X33328354Y-51448562D01*
X33248588Y-51348320D01*
X33328354Y-51248077D01*
X33408120Y-51147834D01*
X33530168Y-51147834D01*
X33652216Y-51147834D01*
X33652216Y-51026232D01*
X33652216Y-50904631D01*
X33748538Y-50825747D01*
X33794567Y-50789025D01*
X33831445Y-50761412D01*
X33852815Y-50747611D01*
X33855143Y-50746862D01*
X33871016Y-50756094D01*
G37*
G36*
X31116626Y-45553033D02*
G01*
X31215543Y-45632300D01*
X31215543Y-45961105D01*
X31215543Y-46289910D01*
X31824711Y-46289910D01*
X32433879Y-46289910D01*
X32433879Y-46081714D01*
X32433879Y-45873517D01*
X32634365Y-45873517D01*
X32834851Y-45873517D01*
X32834851Y-46081714D01*
X32834851Y-46289910D01*
X32634365Y-46289910D01*
X32433879Y-46289910D01*
X32433879Y-46490396D01*
X32433879Y-46690882D01*
X32556555Y-46690882D01*
X32679231Y-46690882D01*
X32757041Y-46787046D01*
X32793318Y-46832809D01*
X32820572Y-46868958D01*
X32834139Y-46889250D01*
X32834851Y-46891209D01*
X32825751Y-46906039D01*
X32801572Y-46938361D01*
X32766996Y-46981985D01*
X32755966Y-46995531D01*
X32677082Y-47091853D01*
X31946313Y-47091853D01*
X31215543Y-47091853D01*
X31215543Y-46690882D01*
X31215543Y-46289910D01*
X30614086Y-46289910D01*
X30012628Y-46289910D01*
X30012628Y-45960919D01*
X30012628Y-45631927D01*
X30077681Y-45579225D01*
X30134496Y-45532585D01*
X30173156Y-45502885D01*
X30200846Y-45489482D01*
X30224752Y-45491733D01*
X30252061Y-45508995D01*
X30289959Y-45540625D01*
X30311127Y-45558341D01*
X30413600Y-45642866D01*
X30413600Y-45758191D01*
X30413600Y-45873517D01*
X30614086Y-45873517D01*
X30814571Y-45873517D01*
X30815490Y-45753997D01*
X30816408Y-45634476D01*
X30917058Y-45554121D01*
X31017708Y-45473765D01*
X31116626Y-45553033D01*
G37*
G36*
X36705017Y-50755962D02*
G01*
X36737339Y-50780141D01*
X36780963Y-50814717D01*
X36794509Y-50825747D01*
X36890831Y-50904631D01*
X36890831Y-51226718D01*
X36890831Y-51548805D01*
X37090668Y-51548805D01*
X37290505Y-51548805D01*
X37295010Y-51430257D01*
X37299514Y-51311708D01*
X37396546Y-51229366D01*
X37455565Y-51182969D01*
X37495596Y-51160150D01*
X37515075Y-51159053D01*
X37536889Y-51174668D01*
X37574092Y-51204456D01*
X37618934Y-51242195D01*
X37622384Y-51245168D01*
X37708196Y-51319253D01*
X37708196Y-51434029D01*
X37708196Y-51548805D01*
X38029290Y-51548805D01*
X38350385Y-51548805D01*
X38431153Y-51649596D01*
X38511922Y-51750387D01*
X38432593Y-51850082D01*
X38353264Y-51949777D01*
X37822533Y-51949777D01*
X37291803Y-51949777D01*
X37291803Y-52157973D01*
X37291803Y-52366170D01*
X36890831Y-52366170D01*
X36489860Y-52366170D01*
X36489860Y-51957488D01*
X36489860Y-51548805D01*
X36368258Y-51548805D01*
X36246657Y-51548805D01*
X36167773Y-51452483D01*
X36131103Y-51406784D01*
X36103506Y-51370635D01*
X36089662Y-51350225D01*
X36088888Y-51348161D01*
X36097921Y-51333269D01*
X36121910Y-51300819D01*
X36156192Y-51257056D01*
X36166698Y-51243998D01*
X36244508Y-51147834D01*
X36367184Y-51147834D01*
X36489860Y-51147834D01*
X36489860Y-51025158D01*
X36489860Y-50902482D01*
X36586024Y-50824672D01*
X36631787Y-50788395D01*
X36667936Y-50761141D01*
X36688228Y-50747574D01*
X36690187Y-50746862D01*
X36705017Y-50755962D01*
G37*
G36*
X37515089Y-53187643D02*
G01*
X37547713Y-53208752D01*
X37596828Y-53247673D01*
X37605139Y-53254549D01*
X37708196Y-53340091D01*
X37708196Y-53863270D01*
X37708196Y-54386450D01*
X38109168Y-54386450D01*
X38510139Y-54386450D01*
X38510139Y-54063916D01*
X38510139Y-53741382D01*
X38608713Y-53662944D01*
X38655556Y-53626620D01*
X38693158Y-53599221D01*
X38715133Y-53585345D01*
X38717707Y-53584507D01*
X38733923Y-53593573D01*
X38767026Y-53617485D01*
X38810235Y-53651312D01*
X38815763Y-53655792D01*
X38903400Y-53727077D01*
X38911111Y-53852422D01*
X38918822Y-53977767D01*
X39042197Y-53982897D01*
X39165573Y-53988027D01*
X39240345Y-54079631D01*
X39275145Y-54125672D01*
X39299216Y-54164180D01*
X39308184Y-54187981D01*
X39307829Y-54190225D01*
X39294992Y-54210893D01*
X39267956Y-54247662D01*
X39232303Y-54292970D01*
X39228355Y-54297832D01*
X39156168Y-54386450D01*
X38833153Y-54386450D01*
X38510139Y-54386450D01*
X38510139Y-54709611D01*
X38510139Y-55032772D01*
X38413975Y-55110582D01*
X38368189Y-55146863D01*
X38331990Y-55174118D01*
X38311631Y-55187682D01*
X38309653Y-55188392D01*
X38294684Y-55179358D01*
X38262173Y-55155364D01*
X38218375Y-55121076D01*
X38205332Y-55110582D01*
X38109168Y-55032772D01*
X38109168Y-54910097D01*
X38109168Y-54787421D01*
X37700485Y-54787421D01*
X37291803Y-54787421D01*
X37291803Y-54064461D01*
X37291803Y-53341502D01*
X37372768Y-53273842D01*
X37417725Y-53236503D01*
X37455925Y-53205182D01*
X37477908Y-53187595D01*
X37493605Y-53181529D01*
X37515089Y-53187643D01*
G37*
G36*
X36817577Y-40213777D02*
G01*
X37546265Y-40213903D01*
X37621792Y-40308611D01*
X37657549Y-40354035D01*
X37678176Y-40387240D01*
X37682842Y-40415558D01*
X37670714Y-40446319D01*
X37640962Y-40486853D01*
X37595382Y-40541368D01*
X37533726Y-40614622D01*
X37413388Y-40614622D01*
X37293050Y-40614622D01*
X37288571Y-40739566D01*
X37284092Y-40864509D01*
X37189815Y-40939812D01*
X37095537Y-41015115D01*
X36993184Y-40934401D01*
X36890831Y-40853687D01*
X36890831Y-40734154D01*
X36890831Y-40614622D01*
X36690346Y-40614622D01*
X36489860Y-40614622D01*
X36489860Y-40815108D01*
X36489860Y-41015593D01*
X36609392Y-41015593D01*
X36728925Y-41015593D01*
X36809639Y-41117946D01*
X36890353Y-41220300D01*
X36815050Y-41314577D01*
X36739747Y-41408854D01*
X36614803Y-41413333D01*
X36489860Y-41417812D01*
X36489860Y-41539237D01*
X36489860Y-41660661D01*
X36391286Y-41739099D01*
X36344055Y-41775381D01*
X36305566Y-41802553D01*
X36282401Y-41816043D01*
X36279476Y-41816742D01*
X36261861Y-41807120D01*
X36227945Y-41782545D01*
X36184811Y-41748175D01*
X36181420Y-41745361D01*
X36096599Y-41674774D01*
X36088888Y-41549525D01*
X36081177Y-41424276D01*
X35957802Y-41419146D01*
X35834426Y-41414016D01*
X35759654Y-41322412D01*
X35724854Y-41276371D01*
X35700783Y-41237863D01*
X35691815Y-41214062D01*
X35692170Y-41211818D01*
X35705006Y-41191150D01*
X35732043Y-41154381D01*
X35767696Y-41109073D01*
X35771644Y-41104210D01*
X35843831Y-41015593D01*
X35966360Y-41015593D01*
X36088888Y-41015593D01*
X36088888Y-40614622D01*
X36088888Y-40213650D01*
X36817577Y-40213777D01*
G37*
G36*
X31628420Y-48712198D02*
G01*
X32271948Y-48713234D01*
X32354314Y-48813029D01*
X32394449Y-48863072D01*
X32416831Y-48896020D01*
X32424324Y-48917721D01*
X32419793Y-48934021D01*
X32416138Y-48939224D01*
X32395390Y-48965194D01*
X32362983Y-49005047D01*
X32335214Y-49038878D01*
X32274831Y-49112133D01*
X32153870Y-49112133D01*
X32032908Y-49112133D01*
X32032908Y-49320329D01*
X32032908Y-49528526D01*
X31832422Y-49528526D01*
X31631936Y-49528526D01*
X31631936Y-49929497D01*
X31631936Y-50330469D01*
X31223254Y-50330469D01*
X30814571Y-50330469D01*
X30814571Y-50739151D01*
X30814571Y-51147834D01*
X30614086Y-51147834D01*
X30413600Y-51147834D01*
X30413600Y-51468928D01*
X30413600Y-51790022D01*
X30313922Y-51869900D01*
X30267694Y-51906527D01*
X30231636Y-51934312D01*
X30211661Y-51948726D01*
X30209600Y-51949777D01*
X30196327Y-51940785D01*
X30165177Y-51916895D01*
X30122151Y-51882740D01*
X30108793Y-51871967D01*
X30012628Y-51794157D01*
X30012628Y-51062313D01*
X30012628Y-50330469D01*
X30213114Y-50330469D01*
X30413600Y-50330469D01*
X30413600Y-50129983D01*
X30413600Y-49929497D01*
X30291552Y-49929497D01*
X30169504Y-49929497D01*
X30091066Y-49830923D01*
X30054783Y-49784346D01*
X30027398Y-49747326D01*
X30013489Y-49726119D01*
X30012628Y-49723770D01*
X30021815Y-49708697D01*
X30046178Y-49676406D01*
X30080925Y-49633187D01*
X30090301Y-49621859D01*
X30167973Y-49528526D01*
X30691758Y-49528526D01*
X31215543Y-49528526D01*
X31215543Y-49320329D01*
X31215543Y-49112133D01*
X31094934Y-49112133D01*
X30974326Y-49112133D01*
X30895439Y-49013690D01*
X30816552Y-48915247D01*
X30900722Y-48813204D01*
X30984892Y-48711161D01*
X31628420Y-48712198D01*
G37*
G36*
X38510139Y-50129983D02*
G01*
X38510139Y-50330469D01*
X38710625Y-50330469D01*
X38911111Y-50330469D01*
X38911111Y-50129983D01*
X38911111Y-49929497D01*
X39238828Y-49929830D01*
X39566545Y-49930162D01*
X39647804Y-50030271D01*
X39729063Y-50130380D01*
X39648892Y-50230424D01*
X39568721Y-50330469D01*
X39448112Y-50330469D01*
X39327504Y-50330469D01*
X39327504Y-50739151D01*
X39327504Y-51147834D01*
X38918822Y-51147834D01*
X38510139Y-51147834D01*
X38510139Y-50739151D01*
X38510139Y-50330469D01*
X38309653Y-50330469D01*
X38109168Y-50330469D01*
X38109168Y-50653483D01*
X38109168Y-50976497D01*
X38020551Y-51048684D01*
X37974910Y-51084851D01*
X37937154Y-51112939D01*
X37914783Y-51127394D01*
X37913628Y-51127896D01*
X37893648Y-51122233D01*
X37857307Y-51100882D01*
X37811732Y-51068146D01*
X37801885Y-51060412D01*
X37708449Y-50985903D01*
X37708322Y-50866383D01*
X37708196Y-50746862D01*
X37526988Y-50745051D01*
X37434594Y-50743328D01*
X37333924Y-50740172D01*
X37240066Y-50736108D01*
X37193818Y-50733484D01*
X37041856Y-50723729D01*
X36967709Y-50630861D01*
X36893562Y-50537993D01*
X36977825Y-50434231D01*
X37062088Y-50330469D01*
X37176945Y-50330469D01*
X37291803Y-50330469D01*
X37291803Y-50215972D01*
X37291803Y-50101475D01*
X37394860Y-50015934D01*
X37446652Y-49974353D01*
X37481218Y-49950970D01*
X37503913Y-49942968D01*
X37520086Y-49947532D01*
X37522091Y-49948979D01*
X37546017Y-49968145D01*
X37584866Y-50000028D01*
X37627231Y-50035226D01*
X37708196Y-50102886D01*
X37708196Y-50216677D01*
X37708196Y-50330469D01*
X37908682Y-50330469D01*
X38109168Y-50330469D01*
X38109168Y-50129983D01*
X38109168Y-49929497D01*
X38309653Y-49929497D01*
X38510139Y-49929497D01*
X38510139Y-50129983D01*
G37*
G36*
X44098735Y-47595573D02*
G01*
X44140394Y-47647452D01*
X44163857Y-47682092D01*
X44171939Y-47704832D01*
X44167455Y-47721015D01*
X44165946Y-47723113D01*
X44146780Y-47747039D01*
X44114897Y-47785888D01*
X44079699Y-47828253D01*
X44012039Y-47909218D01*
X43898248Y-47909218D01*
X43784456Y-47909218D01*
X43784456Y-48109704D01*
X43784456Y-48310190D01*
X43576259Y-48310190D01*
X43368063Y-48310190D01*
X43368063Y-48711161D01*
X43368063Y-49112133D01*
X43576259Y-49112133D01*
X43784456Y-49112133D01*
X43784582Y-48992612D01*
X43784709Y-48873092D01*
X43878145Y-48798583D01*
X43929012Y-48761390D01*
X43969538Y-48738259D01*
X43993719Y-48732593D01*
X43994258Y-48732776D01*
X44017379Y-48746357D01*
X44055944Y-48773483D01*
X44100320Y-48807285D01*
X44183706Y-48873092D01*
X44184567Y-49401295D01*
X44185428Y-49929497D01*
X43776745Y-49929497D01*
X43368063Y-49929497D01*
X43368063Y-49729012D01*
X43368063Y-49528526D01*
X43167577Y-49528526D01*
X42967091Y-49528526D01*
X42967091Y-49320329D01*
X42967091Y-49112133D01*
X42845151Y-49112133D01*
X42723212Y-49112133D01*
X42663534Y-49038878D01*
X42627960Y-48994968D01*
X42597880Y-48957414D01*
X42583587Y-48939224D01*
X42575899Y-48923332D01*
X42579361Y-48903831D01*
X42596845Y-48874887D01*
X42631222Y-48830664D01*
X42645685Y-48813029D01*
X42728050Y-48713234D01*
X42847571Y-48712198D01*
X42967091Y-48711161D01*
X42967091Y-48510675D01*
X42967091Y-48310190D01*
X42766605Y-48310190D01*
X42566120Y-48310190D01*
X42567188Y-47982473D01*
X42568256Y-47654756D01*
X42659117Y-47581501D01*
X42704707Y-47546268D01*
X42741896Y-47520309D01*
X42763628Y-47508498D01*
X42765202Y-47508247D01*
X42783530Y-47517516D01*
X42818409Y-47542082D01*
X42863046Y-47577085D01*
X42873759Y-47585919D01*
X42967091Y-47663591D01*
X42967091Y-47786405D01*
X42967091Y-47909218D01*
X43167129Y-47909218D01*
X43367167Y-47909218D01*
X43371470Y-47704877D01*
X43375774Y-47500536D01*
X43694356Y-47496372D01*
X44012938Y-47492208D01*
X44098735Y-47595573D01*
G37*
G36*
X41646767Y-43929019D02*
G01*
X41741044Y-44004322D01*
X41745523Y-44129265D01*
X41750002Y-44254209D01*
X42158061Y-44254209D01*
X42566120Y-44254209D01*
X42566120Y-44662892D01*
X42566120Y-45071574D01*
X42766605Y-45071574D01*
X42967091Y-45071574D01*
X42967091Y-45272060D01*
X42967091Y-45472545D01*
X43089139Y-45472545D01*
X43211187Y-45472545D01*
X43290718Y-45572493D01*
X43331876Y-45628321D01*
X43355205Y-45669290D01*
X43358730Y-45691927D01*
X43358681Y-45692013D01*
X43343269Y-45713222D01*
X43314126Y-45749788D01*
X43278605Y-45792552D01*
X43210096Y-45873517D01*
X42888108Y-45873517D01*
X42566120Y-45873517D01*
X42566120Y-45673031D01*
X42566120Y-45472545D01*
X42365634Y-45472545D01*
X42165148Y-45472545D01*
X42165148Y-45793640D01*
X42165148Y-46114734D01*
X42065470Y-46194611D01*
X42018492Y-46231358D01*
X41980785Y-46259182D01*
X41958632Y-46273504D01*
X41955847Y-46274488D01*
X41939970Y-46265518D01*
X41906525Y-46241669D01*
X41861865Y-46207532D01*
X41847329Y-46196051D01*
X41748755Y-46117613D01*
X41748755Y-45995565D01*
X41748755Y-45873517D01*
X41548269Y-45873517D01*
X41347783Y-45873517D01*
X41347783Y-46081714D01*
X41347783Y-46289910D01*
X40946812Y-46289910D01*
X40545840Y-46289910D01*
X40545840Y-45881228D01*
X40545840Y-45472545D01*
X40746326Y-45472545D01*
X40946812Y-45472545D01*
X41748755Y-45472545D01*
X41956951Y-45472545D01*
X42165148Y-45472545D01*
X42165148Y-45272060D01*
X42165148Y-45071574D01*
X41956951Y-45071574D01*
X41748755Y-45071574D01*
X41748755Y-45272060D01*
X41748755Y-45472545D01*
X40946812Y-45472545D01*
X40946812Y-45272060D01*
X40946812Y-45071574D01*
X40746326Y-45071574D01*
X40545840Y-45071574D01*
X40545840Y-44862916D01*
X40545840Y-44654259D01*
X40742471Y-44658575D01*
X40939101Y-44662892D01*
X40943404Y-44867233D01*
X40947707Y-45071574D01*
X41147745Y-45071574D01*
X41347783Y-45071574D01*
X41347783Y-44863377D01*
X41347783Y-44655181D01*
X41225844Y-44655181D01*
X41103904Y-44655181D01*
X41044226Y-44581926D01*
X41008743Y-44538126D01*
X40978839Y-44500786D01*
X40964676Y-44482749D01*
X40957316Y-44466870D01*
X40961251Y-44446852D01*
X40979310Y-44416914D01*
X41014325Y-44371272D01*
X41026774Y-44355850D01*
X41108743Y-44254874D01*
X41228263Y-44254541D01*
X41347783Y-44254209D01*
X41347783Y-44134677D01*
X41347783Y-44015144D01*
X41450136Y-43934430D01*
X41552489Y-43853716D01*
X41646767Y-43929019D01*
G37*
G36*
X34454159Y-52157973D02*
G01*
X34454159Y-52366170D01*
X34662355Y-52366170D01*
X34870552Y-52366170D01*
X34870552Y-52566656D01*
X34870552Y-52767142D01*
X35071038Y-52767142D01*
X35271523Y-52767142D01*
X35271523Y-52645094D01*
X35271523Y-52523046D01*
X35371471Y-52443515D01*
X35427299Y-52402357D01*
X35468268Y-52379028D01*
X35490905Y-52375502D01*
X35490991Y-52375552D01*
X35512200Y-52390964D01*
X35548766Y-52420107D01*
X35591530Y-52455628D01*
X35672495Y-52524137D01*
X35672495Y-52846125D01*
X35672495Y-53168113D01*
X35472009Y-53168113D01*
X35271523Y-53168113D01*
X35271523Y-53576796D01*
X35271523Y-53985478D01*
X35071038Y-53985478D01*
X34870552Y-53985478D01*
X34870552Y-54185964D01*
X34870552Y-54386450D01*
X34990072Y-54386656D01*
X35109593Y-54386862D01*
X35191247Y-54486604D01*
X35272901Y-54586346D01*
X35192335Y-54686883D01*
X35111769Y-54787421D01*
X34991160Y-54787421D01*
X34870552Y-54787421D01*
X34870552Y-54987907D01*
X34870552Y-55188392D01*
X34339517Y-55188392D01*
X33808482Y-55188392D01*
X33734204Y-55093466D01*
X33699637Y-55046721D01*
X33674959Y-55008374D01*
X33664544Y-54985368D01*
X33664603Y-54983048D01*
X33676056Y-54964218D01*
X33701940Y-54928885D01*
X33736949Y-54884253D01*
X33741713Y-54878365D01*
X33814146Y-54789173D01*
X33933667Y-54788297D01*
X34053187Y-54787421D01*
X34053187Y-54586935D01*
X34053187Y-54386450D01*
X33933667Y-54386323D01*
X33814146Y-54386197D01*
X33741199Y-54294711D01*
X33705581Y-54248936D01*
X33678361Y-54211878D01*
X33664676Y-54190573D01*
X33664089Y-54189105D01*
X33671116Y-54171193D01*
X33693482Y-54136383D01*
X33726746Y-54091440D01*
X33735590Y-54080231D01*
X33811254Y-53985478D01*
X34132706Y-53985478D01*
X34454159Y-53985478D01*
X34454159Y-53777281D01*
X34454159Y-53569085D01*
X34253673Y-53569085D01*
X34053187Y-53569085D01*
X34053519Y-53249079D01*
X34053852Y-52929072D01*
X34154828Y-52847103D01*
X34205589Y-52807133D01*
X34239117Y-52784866D01*
X34261195Y-52777472D01*
X34277606Y-52782121D01*
X34281727Y-52785006D01*
X34307493Y-52805322D01*
X34347254Y-52837261D01*
X34380904Y-52864556D01*
X34454159Y-52924234D01*
X34454159Y-53046173D01*
X34454159Y-53168113D01*
X34662355Y-53168113D01*
X34870552Y-53168113D01*
X34870552Y-52968075D01*
X34870552Y-52768037D01*
X34666211Y-52763734D01*
X34461870Y-52759431D01*
X34457557Y-52563258D01*
X34453244Y-52367085D01*
X34257071Y-52362772D01*
X34060898Y-52358459D01*
X34056595Y-52154118D01*
X34052292Y-51949777D01*
X34253225Y-51949777D01*
X34454159Y-51949777D01*
X34454159Y-52157973D01*
G37*
G36*
X35556257Y-43513512D02*
G01*
X35601118Y-43549105D01*
X35637153Y-43579480D01*
X35655942Y-43597413D01*
X35660889Y-43618924D01*
X35665266Y-43670104D01*
X35669030Y-43749784D01*
X35672137Y-43856793D01*
X35674543Y-43989961D01*
X35676142Y-44139874D01*
X35680206Y-44662892D01*
X35805551Y-44670603D01*
X35930896Y-44678314D01*
X36002181Y-44765950D01*
X36036865Y-44809914D01*
X36062223Y-44844584D01*
X36073326Y-44863179D01*
X36073466Y-44864006D01*
X36064490Y-44880112D01*
X36040627Y-44913741D01*
X36006473Y-44958507D01*
X35995029Y-44973000D01*
X35916591Y-45071574D01*
X35393571Y-45071574D01*
X34870552Y-45071574D01*
X34870552Y-45272060D01*
X34870552Y-45472545D01*
X34662355Y-45472545D01*
X34454159Y-45472545D01*
X34454159Y-45673031D01*
X34454159Y-45873517D01*
X34253673Y-45873517D01*
X34053187Y-45873517D01*
X34052326Y-46000748D01*
X34051466Y-46127980D01*
X33968080Y-46193787D01*
X33923130Y-46228145D01*
X33885938Y-46254577D01*
X33864834Y-46267215D01*
X33844308Y-46261678D01*
X33807491Y-46240194D01*
X33761407Y-46207015D01*
X33748595Y-46196852D01*
X33652216Y-46118868D01*
X33652216Y-45795707D01*
X33652216Y-45472545D01*
X33451730Y-45472545D01*
X33251244Y-45472545D01*
X33250514Y-45592066D01*
X33249785Y-45711586D01*
X33163660Y-45780985D01*
X33118094Y-45817113D01*
X33080211Y-45846092D01*
X33057952Y-45861853D01*
X33057509Y-45862116D01*
X33034615Y-45858412D01*
X32993137Y-45832955D01*
X32936167Y-45787896D01*
X32834851Y-45701944D01*
X32834851Y-45587245D01*
X32834851Y-45472545D01*
X32715330Y-45471669D01*
X32595810Y-45470793D01*
X32522556Y-45380614D01*
X32487199Y-45334909D01*
X32461208Y-45297158D01*
X32449517Y-45274605D01*
X32449301Y-45273000D01*
X32458360Y-45253266D01*
X32482305Y-45217061D01*
X32516287Y-45171620D01*
X32522556Y-45163695D01*
X32595810Y-45071826D01*
X32715330Y-45071700D01*
X32834851Y-45071574D01*
X32835057Y-44952054D01*
X32835263Y-44832533D01*
X32934168Y-44751568D01*
X32980697Y-44714346D01*
X33017960Y-44686151D01*
X33039762Y-44671614D01*
X33042480Y-44670603D01*
X33058045Y-44679608D01*
X33091232Y-44703577D01*
X33135796Y-44737936D01*
X33151566Y-44750480D01*
X33251244Y-44830357D01*
X33251244Y-44950966D01*
X33251244Y-45071574D01*
X33451730Y-45071574D01*
X33652216Y-45071574D01*
X34052292Y-45071574D01*
X34253225Y-45071574D01*
X34454159Y-45071574D01*
X34454159Y-44862916D01*
X34454159Y-44654259D01*
X34257528Y-44658575D01*
X34060898Y-44662892D01*
X34056595Y-44867233D01*
X34052292Y-45071574D01*
X33652216Y-45071574D01*
X33652216Y-44662892D01*
X33652216Y-44254209D01*
X33530168Y-44254209D01*
X33408120Y-44254209D01*
X33328354Y-44153966D01*
X33248588Y-44053723D01*
X33328354Y-43953480D01*
X33408120Y-43853238D01*
X33730653Y-43853238D01*
X34053187Y-43853238D01*
X34053187Y-44053723D01*
X34053187Y-44254209D01*
X34461870Y-44254209D01*
X34870552Y-44254209D01*
X34870552Y-44454695D01*
X34870552Y-44655181D01*
X35071038Y-44655181D01*
X35271523Y-44655181D01*
X35271523Y-44132161D01*
X35271523Y-43609142D01*
X35372116Y-43529098D01*
X35472708Y-43449054D01*
X35556257Y-43513512D01*
G37*
G36*
X41246992Y-46769867D02*
G01*
X41347783Y-46850636D01*
X41347783Y-47379927D01*
X41347783Y-47909218D01*
X41756466Y-47909218D01*
X42165148Y-47909218D01*
X42165148Y-48109704D01*
X42165148Y-48310190D01*
X42284669Y-48311066D01*
X42404189Y-48311942D01*
X42477443Y-48402121D01*
X42512800Y-48447826D01*
X42538790Y-48485578D01*
X42550482Y-48508130D01*
X42550698Y-48509735D01*
X42541639Y-48529469D01*
X42517694Y-48565674D01*
X42483711Y-48611115D01*
X42477443Y-48619040D01*
X42404189Y-48710909D01*
X42076472Y-48711035D01*
X41748755Y-48711161D01*
X41748755Y-48911647D01*
X41748755Y-49112133D01*
X41548269Y-49112133D01*
X41347783Y-49112133D01*
X41347783Y-49320329D01*
X41347783Y-49528526D01*
X41756466Y-49528526D01*
X42165148Y-49528526D01*
X42165274Y-49401295D01*
X42165401Y-49274063D01*
X42257270Y-49200809D01*
X42302381Y-49165806D01*
X42338071Y-49139906D01*
X42357715Y-49127879D01*
X42359055Y-49127555D01*
X42374919Y-49136524D01*
X42408353Y-49160373D01*
X42453007Y-49194509D01*
X42467546Y-49205992D01*
X42566120Y-49284430D01*
X42566120Y-49406478D01*
X42566120Y-49528526D01*
X42688168Y-49528526D01*
X42810216Y-49528526D01*
X42889391Y-49628028D01*
X42968567Y-49727529D01*
X42886864Y-49828181D01*
X42805160Y-49928833D01*
X42685640Y-49929165D01*
X42566120Y-49929497D01*
X42566120Y-50452409D01*
X42566120Y-50975320D01*
X42485154Y-51041385D01*
X42440178Y-51077973D01*
X42402287Y-51108601D01*
X42381056Y-51125552D01*
X42364891Y-51131296D01*
X42341947Y-51123844D01*
X42306776Y-51100416D01*
X42261872Y-51064778D01*
X42165821Y-50985903D01*
X42165485Y-50658186D01*
X42165148Y-50330469D01*
X41956951Y-50330469D01*
X41748755Y-50330469D01*
X41747879Y-50658186D01*
X41747003Y-50985903D01*
X41656824Y-51059157D01*
X41611414Y-51094470D01*
X41574311Y-51120449D01*
X41552604Y-51132184D01*
X41551095Y-51132412D01*
X41532648Y-51123115D01*
X41497678Y-51098463D01*
X41452957Y-51063312D01*
X41441664Y-51053967D01*
X41347783Y-50975523D01*
X41347783Y-50452510D01*
X41347783Y-49929497D01*
X41147298Y-49929497D01*
X40946812Y-49929497D01*
X40946812Y-50129983D01*
X40946812Y-50330469D01*
X40746774Y-50330469D01*
X40546736Y-50330469D01*
X40542433Y-50534810D01*
X40538129Y-50739151D01*
X40214268Y-50735344D01*
X39890406Y-50731537D01*
X39839676Y-50673656D01*
X39802562Y-50629999D01*
X39769026Y-50588435D01*
X39759294Y-50575659D01*
X39729642Y-50535542D01*
X39814219Y-50433006D01*
X39898796Y-50330469D01*
X40014121Y-50330469D01*
X40129447Y-50330469D01*
X40129447Y-50129983D01*
X40129447Y-49929497D01*
X40337644Y-49929497D01*
X40545840Y-49929497D01*
X40545840Y-49119844D01*
X40545840Y-48711161D01*
X40946812Y-48711161D01*
X41147298Y-48711161D01*
X41347783Y-48711161D01*
X41347783Y-48510675D01*
X41347783Y-48310190D01*
X41147298Y-48310190D01*
X40946812Y-48310190D01*
X40946812Y-48510675D01*
X40946812Y-48711161D01*
X40545840Y-48711161D01*
X40545840Y-48510675D01*
X40545840Y-48310190D01*
X40337644Y-48310190D01*
X40129447Y-48310190D01*
X40129241Y-49038878D01*
X40129035Y-49767567D01*
X40030286Y-49848404D01*
X39931536Y-49929241D01*
X39830694Y-49848404D01*
X39729852Y-49767567D01*
X39729164Y-48838392D01*
X39728475Y-47909218D01*
X39928961Y-47909218D01*
X40129447Y-47909218D01*
X40129447Y-47701021D01*
X40129447Y-47492825D01*
X39928961Y-47492825D01*
X39728475Y-47492825D01*
X39728475Y-47091853D01*
X39728475Y-46690882D01*
X40137899Y-46690882D01*
X40547323Y-46690882D01*
X40545795Y-46895223D01*
X40545235Y-46996986D01*
X40544922Y-47111816D01*
X40544883Y-47223746D01*
X40545053Y-47296194D01*
X40545840Y-47492825D01*
X40746326Y-47492825D01*
X40946812Y-47492825D01*
X40946812Y-47170291D01*
X40946812Y-46847757D01*
X41046506Y-46768428D01*
X41146201Y-46689099D01*
X41246992Y-46769867D01*
G37*
G36*
X40865798Y-40311910D02*
G01*
X40944538Y-40410170D01*
X40859686Y-40512396D01*
X40774834Y-40614622D01*
X40660337Y-40614622D01*
X40545840Y-40614622D01*
X40545840Y-40815108D01*
X40545840Y-41015593D01*
X40946812Y-41015593D01*
X41347783Y-41015593D01*
X41347783Y-41216079D01*
X41347783Y-41416565D01*
X41467304Y-41416897D01*
X41586824Y-41417229D01*
X41668833Y-41518254D01*
X41708036Y-41567225D01*
X41730569Y-41602639D01*
X41735714Y-41632046D01*
X41722752Y-41663001D01*
X41690965Y-41703054D01*
X41646601Y-41752099D01*
X41586824Y-41817749D01*
X41266818Y-41827771D01*
X40946812Y-41837793D01*
X40946812Y-42436833D01*
X40946812Y-43035873D01*
X41147298Y-43035873D01*
X41347783Y-43035873D01*
X41348644Y-42916352D01*
X41349505Y-42796832D01*
X41432891Y-42731025D01*
X41478366Y-42696417D01*
X41516644Y-42669561D01*
X41538953Y-42656516D01*
X41562360Y-42661418D01*
X41602352Y-42683920D01*
X41652922Y-42720620D01*
X41655066Y-42722323D01*
X41748502Y-42796832D01*
X41748629Y-43124549D01*
X41748755Y-43452266D01*
X41347783Y-43452266D01*
X40946812Y-43452266D01*
X40946812Y-43853238D01*
X40946812Y-44254209D01*
X40746326Y-44254209D01*
X40545840Y-44254209D01*
X40545604Y-44366018D01*
X40544012Y-44423042D01*
X40540042Y-44468244D01*
X40534524Y-44492485D01*
X40534038Y-44493250D01*
X40515482Y-44512447D01*
X40481924Y-44542509D01*
X40440497Y-44577568D01*
X40398337Y-44611756D01*
X40362576Y-44639206D01*
X40340351Y-44654048D01*
X40337155Y-44655181D01*
X40320873Y-44646091D01*
X40287241Y-44621916D01*
X40242623Y-44587300D01*
X40227805Y-44575378D01*
X40129447Y-44495575D01*
X40129447Y-44374892D01*
X40129447Y-44254209D01*
X39928961Y-44254209D01*
X39728475Y-44254209D01*
X39728475Y-44454695D01*
X39728475Y-44655181D01*
X39527990Y-44655181D01*
X39327504Y-44655181D01*
X39327504Y-44454695D01*
X39327504Y-44254209D01*
X39527990Y-44254209D01*
X39728475Y-44254209D01*
X39728475Y-44053723D01*
X39728475Y-43853238D01*
X39405461Y-43853238D01*
X39082447Y-43853238D01*
X39010260Y-43764621D01*
X38974086Y-43718965D01*
X38945986Y-43681180D01*
X38931519Y-43658771D01*
X38931016Y-43657614D01*
X38936714Y-43637622D01*
X38958200Y-43601401D01*
X38991128Y-43556087D01*
X38998500Y-43546813D01*
X39073041Y-43454402D01*
X39400758Y-43453334D01*
X39728475Y-43452266D01*
X39729336Y-43124549D01*
X39730197Y-42796832D01*
X39813583Y-42731025D01*
X39859058Y-42696417D01*
X39897336Y-42669561D01*
X39919645Y-42656516D01*
X39943052Y-42661418D01*
X39983044Y-42683920D01*
X40033614Y-42720620D01*
X40035758Y-42722323D01*
X40129194Y-42796832D01*
X40129321Y-43124997D01*
X40129447Y-43453161D01*
X40333788Y-43448858D01*
X40538129Y-43444555D01*
X40542241Y-43039728D01*
X40546352Y-42634901D01*
X40337900Y-42634901D01*
X40129447Y-42634901D01*
X40129447Y-42434416D01*
X40129447Y-42233930D01*
X40009915Y-42233930D01*
X39890382Y-42233930D01*
X39809668Y-42131577D01*
X39728954Y-42029224D01*
X39804257Y-41934946D01*
X39879560Y-41840669D01*
X40004503Y-41836190D01*
X40094661Y-41832958D01*
X40545840Y-41832958D01*
X40746326Y-41832958D01*
X40946812Y-41832958D01*
X40946812Y-41624762D01*
X40946812Y-41416565D01*
X40746326Y-41416565D01*
X40545840Y-41416565D01*
X40545840Y-41624762D01*
X40545840Y-41832958D01*
X40094661Y-41832958D01*
X40129447Y-41831711D01*
X40129447Y-41624762D01*
X40129447Y-41624138D01*
X40129447Y-41416565D01*
X40008480Y-41416565D01*
X39887514Y-41416565D01*
X39811850Y-41321812D01*
X39776685Y-41275479D01*
X39751381Y-41237702D01*
X39740382Y-41215247D01*
X39740349Y-41212938D01*
X39751411Y-41194782D01*
X39776825Y-41159755D01*
X39811452Y-41114894D01*
X39817458Y-41107332D01*
X39890406Y-41015846D01*
X40009927Y-41015720D01*
X40129447Y-41015593D01*
X40129447Y-40614622D01*
X40129447Y-40213650D01*
X40458252Y-40213650D01*
X40787057Y-40213650D01*
X40865798Y-40311910D01*
G37*
G36*
X44513145Y-50747519D02*
G01*
X44840862Y-50748176D01*
X44902550Y-50827182D01*
X44944264Y-50880983D01*
X44968200Y-50918200D01*
X44974590Y-50947287D01*
X44963667Y-50976700D01*
X44935665Y-51014892D01*
X44908645Y-51048147D01*
X44827765Y-51147834D01*
X44707082Y-51147834D01*
X44586399Y-51147834D01*
X44586399Y-51348320D01*
X44586399Y-51548805D01*
X44385913Y-51548805D01*
X44185428Y-51548805D01*
X44185428Y-52157973D01*
X44185428Y-52767142D01*
X43984942Y-52767142D01*
X43784456Y-52767142D01*
X43784456Y-52967627D01*
X43784456Y-53168113D01*
X43576259Y-53168113D01*
X43368063Y-53168113D01*
X43368063Y-53368599D01*
X43368063Y-53569085D01*
X43167577Y-53569085D01*
X42967091Y-53569085D01*
X42967091Y-53777281D01*
X42967091Y-53985478D01*
X42566567Y-53985478D01*
X42166043Y-53985478D01*
X42161740Y-53781137D01*
X42157437Y-53576796D01*
X41953096Y-53572492D01*
X41748755Y-53568189D01*
X41747879Y-53695868D01*
X41747003Y-53823547D01*
X41656824Y-53896802D01*
X41611414Y-53932114D01*
X41574311Y-53958093D01*
X41552604Y-53969828D01*
X41551095Y-53970056D01*
X41532648Y-53960759D01*
X41497678Y-53936107D01*
X41452957Y-53900956D01*
X41441664Y-53891611D01*
X41347783Y-53813167D01*
X41347783Y-53691126D01*
X41347783Y-53569085D01*
X41147298Y-53569085D01*
X40946812Y-53569085D01*
X40946812Y-53777281D01*
X40946812Y-53985478D01*
X40623758Y-53985478D01*
X40300703Y-53985478D01*
X40216945Y-53882337D01*
X40133186Y-53779197D01*
X40210724Y-53682438D01*
X40288261Y-53585680D01*
X40413195Y-53581238D01*
X40538129Y-53576796D01*
X40542433Y-53372454D01*
X40546736Y-53168113D01*
X41748755Y-53168113D01*
X42357923Y-53168113D01*
X42967091Y-53168113D01*
X42967091Y-52558945D01*
X42967091Y-51949777D01*
X42357923Y-51949777D01*
X41748755Y-51949777D01*
X41748755Y-52558945D01*
X41748755Y-53168113D01*
X40546736Y-53168113D01*
X40338091Y-53168113D01*
X40129447Y-53168113D01*
X40129447Y-53368599D01*
X40129447Y-53569085D01*
X39925106Y-53570213D01*
X39790833Y-53570605D01*
X39684472Y-53570052D01*
X39603103Y-53568435D01*
X39543806Y-53565635D01*
X39503660Y-53561531D01*
X39479744Y-53556005D01*
X39471561Y-53551628D01*
X39453149Y-53532133D01*
X39422898Y-53496005D01*
X39389178Y-53453402D01*
X39325149Y-53370408D01*
X39406204Y-53269261D01*
X39487259Y-53168113D01*
X39607867Y-53168113D01*
X39728475Y-53168113D01*
X39728475Y-52967627D01*
X39728475Y-52767142D01*
X39527990Y-52767142D01*
X39327504Y-52767142D01*
X39326847Y-52886662D01*
X39326190Y-53006182D01*
X39246918Y-53067870D01*
X39201386Y-53103079D01*
X39162586Y-53132693D01*
X39141817Y-53148172D01*
X39125620Y-53154524D01*
X39104519Y-53149179D01*
X39072940Y-53129273D01*
X39025306Y-53091944D01*
X39013549Y-53082289D01*
X38911111Y-52997793D01*
X38911111Y-52882467D01*
X38911111Y-52767142D01*
X38591104Y-52766454D01*
X38271098Y-52765766D01*
X38189985Y-52664585D01*
X38108872Y-52563403D01*
X38184562Y-52468642D01*
X38260252Y-52373881D01*
X38385195Y-52369402D01*
X38510139Y-52364923D01*
X38510139Y-52157350D01*
X38510139Y-51949777D01*
X38710625Y-51949777D01*
X38911111Y-51949777D01*
X38911111Y-51749291D01*
X38911111Y-51548805D01*
X39319793Y-51548805D01*
X39728475Y-51548805D01*
X39728475Y-51348320D01*
X39728475Y-51147834D01*
X39928961Y-51147834D01*
X40129447Y-51147834D01*
X40129447Y-51348320D01*
X40129447Y-51548805D01*
X39928961Y-51548805D01*
X39728475Y-51548805D01*
X39728475Y-52157973D01*
X39728475Y-52767142D01*
X39928961Y-52767142D01*
X40129447Y-52767142D01*
X40129447Y-52243134D01*
X40129447Y-51719125D01*
X40232502Y-51634121D01*
X40283814Y-51593047D01*
X40317804Y-51569913D01*
X40339972Y-51561911D01*
X40355819Y-51566232D01*
X40359734Y-51569152D01*
X40383869Y-51589006D01*
X40423056Y-51621093D01*
X40464824Y-51655211D01*
X40545739Y-51721234D01*
X40545181Y-52039847D01*
X40545034Y-52153319D01*
X40544969Y-52272478D01*
X40544985Y-52387933D01*
X40545080Y-52490294D01*
X40545232Y-52562800D01*
X40545840Y-52767142D01*
X40946812Y-52767142D01*
X41347783Y-52767142D01*
X41347783Y-52558945D01*
X41347783Y-52157973D01*
X41347783Y-51548805D01*
X41147298Y-51548805D01*
X40946812Y-51548805D01*
X40946812Y-51348320D01*
X40946812Y-51147834D01*
X41147298Y-51147834D01*
X41347783Y-51147834D01*
X41347783Y-51348320D01*
X41347783Y-51548805D01*
X41548269Y-51548805D01*
X41748755Y-51548805D01*
X41749484Y-51429285D01*
X41750214Y-51309765D01*
X41836339Y-51240366D01*
X41881905Y-51204238D01*
X41919788Y-51175259D01*
X41942047Y-51159498D01*
X41942490Y-51159235D01*
X41965384Y-51162939D01*
X42006862Y-51188396D01*
X42063832Y-51233455D01*
X42165148Y-51319407D01*
X42165148Y-51434106D01*
X42165148Y-51548805D01*
X42566120Y-51548805D01*
X42967091Y-51548805D01*
X42967091Y-51348320D01*
X42967091Y-51147834D01*
X43576259Y-51147834D01*
X44185428Y-51147834D01*
X44185428Y-50947348D01*
X44185428Y-50746862D01*
X44513145Y-50747519D01*
G37*
G36*
X37712468Y-45553933D02*
G01*
X37950995Y-45589373D01*
X38186597Y-45651448D01*
X38417110Y-45740669D01*
X38640371Y-45857548D01*
X38838051Y-45990353D01*
X39029048Y-46152484D01*
X39201503Y-46337110D01*
X39352693Y-46540448D01*
X39479894Y-46758713D01*
X39580383Y-46988125D01*
X39603183Y-47053298D01*
X39659207Y-47246090D01*
X39695380Y-47430137D01*
X39713804Y-47618363D01*
X39717266Y-47754998D01*
X39705390Y-48002186D01*
X39668570Y-48235458D01*
X39605452Y-48460771D01*
X39514681Y-48684081D01*
X39498061Y-48718872D01*
X39369497Y-48948861D01*
X39217844Y-49159345D01*
X39044585Y-49348965D01*
X38851203Y-49516363D01*
X38639181Y-49660178D01*
X38410001Y-49779052D01*
X38286108Y-49829968D01*
X38214433Y-49852937D01*
X38160929Y-49858260D01*
X38117678Y-49844740D01*
X38076759Y-49811179D01*
X38063068Y-49796244D01*
X38016636Y-49743360D01*
X38015964Y-49331359D01*
X38015263Y-49187782D01*
X38013520Y-49071503D01*
X38010506Y-48978987D01*
X38005989Y-48906701D01*
X37999738Y-48851107D01*
X37991522Y-48808673D01*
X37981109Y-48775862D01*
X37979360Y-48771593D01*
X37979610Y-48759239D01*
X37994454Y-48747324D01*
X38028287Y-48733897D01*
X38085503Y-48717008D01*
X38127793Y-48705730D01*
X38212871Y-48679869D01*
X38309788Y-48644804D01*
X38403371Y-48606224D01*
X38446753Y-48586138D01*
X38523756Y-48546859D01*
X38584408Y-48510529D01*
X38638712Y-48469958D01*
X38696672Y-48417955D01*
X38741254Y-48374406D01*
X38847855Y-48255521D01*
X38928297Y-48134921D01*
X38984463Y-48007515D01*
X39018239Y-47868211D01*
X39031511Y-47711918D01*
X39029856Y-47594877D01*
X39012320Y-47415048D01*
X38976578Y-47257002D01*
X38921298Y-47116702D01*
X38845148Y-46990113D01*
X38818649Y-46954983D01*
X38757672Y-46877842D01*
X38783814Y-46819061D01*
X38797226Y-46777789D01*
X38805605Y-46722436D01*
X38809702Y-46646565D01*
X38810411Y-46590639D01*
X38810011Y-46513810D01*
X38807299Y-46459035D01*
X38800742Y-46417536D01*
X38788804Y-46380532D01*
X38769953Y-46339244D01*
X38764602Y-46328465D01*
X38738355Y-46278626D01*
X38717686Y-46250276D01*
X38695505Y-46236782D01*
X38664724Y-46231508D01*
X38660628Y-46231154D01*
X38576228Y-46235430D01*
X38477445Y-46258703D01*
X38371612Y-46298066D01*
X38266061Y-46350612D01*
X38168124Y-46413436D01*
X38133635Y-46440047D01*
X38042438Y-46514495D01*
X37933150Y-46483971D01*
X37889790Y-46473121D01*
X37844716Y-46465075D01*
X37792353Y-46459424D01*
X37727129Y-46455758D01*
X37643469Y-46453665D01*
X37535799Y-46452735D01*
X37507710Y-46452644D01*
X37397448Y-46452669D01*
X37312301Y-46453675D01*
X37246546Y-46456111D01*
X37194459Y-46460424D01*
X37150317Y-46467064D01*
X37108396Y-46476478D01*
X37070698Y-46486862D01*
X36949835Y-46521882D01*
X36868683Y-46447714D01*
X36786800Y-46384326D01*
X36690272Y-46327810D01*
X36586950Y-46281379D01*
X36484682Y-46248242D01*
X36391316Y-46231612D01*
X36339371Y-46231154D01*
X36302890Y-46237316D01*
X36278439Y-46253501D01*
X36256261Y-46287626D01*
X36246692Y-46306358D01*
X36208712Y-46411630D01*
X36189984Y-46529456D01*
X36190679Y-46650096D01*
X36210970Y-46763812D01*
X36237356Y-46834985D01*
X36262264Y-46887219D01*
X36192209Y-46973227D01*
X36107429Y-47093647D01*
X36044855Y-47221479D01*
X36002930Y-47361658D01*
X35980096Y-47519116D01*
X35974525Y-47662467D01*
X35975087Y-47751359D01*
X35977614Y-47817696D01*
X35983140Y-47869752D01*
X35992698Y-47915800D01*
X36007319Y-47964116D01*
X36014957Y-47986328D01*
X36040895Y-48054255D01*
X36070171Y-48121963D01*
X36096525Y-48174993D01*
X36096955Y-48175762D01*
X36167356Y-48277832D01*
X36261356Y-48379236D01*
X36372192Y-48473885D01*
X36493100Y-48555691D01*
X36559259Y-48591913D01*
X36607783Y-48612972D01*
X36677161Y-48638968D01*
X36758429Y-48666935D01*
X36842626Y-48693908D01*
X36920790Y-48716921D01*
X36983959Y-48733008D01*
X36988834Y-48734064D01*
X37019447Y-48744876D01*
X37026153Y-48764079D01*
X37023325Y-48777404D01*
X37015531Y-48813948D01*
X37007610Y-48864072D01*
X37005457Y-48880803D01*
X36996680Y-48953827D01*
X36989005Y-49002181D01*
X36978971Y-49031696D01*
X36963115Y-49048208D01*
X36937976Y-49057549D01*
X36900093Y-49065553D01*
X36895227Y-49066555D01*
X36791652Y-49076780D01*
X36679258Y-49069199D01*
X36573554Y-49044962D01*
X36564930Y-49042014D01*
X36464244Y-48990409D01*
X36371060Y-48909191D01*
X36311900Y-48837031D01*
X36226585Y-48740353D01*
X36132140Y-48671554D01*
X36030216Y-48631831D01*
X36028479Y-48631426D01*
X35966509Y-48623528D01*
X35915683Y-48628987D01*
X35882493Y-48646259D01*
X35872989Y-48668420D01*
X35883841Y-48686992D01*
X35912785Y-48719654D01*
X35954422Y-48760512D01*
X35972608Y-48777106D01*
X36025731Y-48827993D01*
X36067192Y-48877570D01*
X36104417Y-48936003D01*
X36144045Y-49011867D01*
X36209429Y-49127066D01*
X36281685Y-49217464D01*
X36366670Y-49289087D01*
X36470238Y-49347962D01*
X36470994Y-49348320D01*
X36514639Y-49368342D01*
X36551006Y-49382022D01*
X36587653Y-49390566D01*
X36632141Y-49395180D01*
X36692030Y-49397069D01*
X36774880Y-49397439D01*
X36779024Y-49397439D01*
X36983368Y-49397439D01*
X36983366Y-49563991D01*
X36980999Y-49659783D01*
X36972755Y-49730255D01*
X36956912Y-49780650D01*
X36931751Y-49816213D01*
X36895551Y-49842185D01*
X36891336Y-49844416D01*
X36862376Y-49858212D01*
X36837282Y-49864439D01*
X36808705Y-49862086D01*
X36769296Y-49850139D01*
X36711703Y-49827585D01*
X36682635Y-49815658D01*
X36494461Y-49730354D01*
X36327802Y-49636800D01*
X36173931Y-49529153D01*
X36024120Y-49401569D01*
X35933864Y-49314337D01*
X35756608Y-49117245D01*
X35608695Y-48911305D01*
X35489561Y-48695225D01*
X35398643Y-48467714D01*
X35335380Y-48227478D01*
X35299209Y-47973226D01*
X35291007Y-47837607D01*
X35294054Y-47586564D01*
X35321905Y-47350250D01*
X35375599Y-47123736D01*
X35456175Y-46902090D01*
X35514697Y-46775703D01*
X35642541Y-46551918D01*
X35791268Y-46349141D01*
X35958715Y-46167885D01*
X36142717Y-46008660D01*
X36341110Y-45871978D01*
X36551729Y-45758351D01*
X36772411Y-45668289D01*
X37000989Y-45602305D01*
X37235302Y-45560910D01*
X37473183Y-45544616D01*
X37712468Y-45553933D01*
G37*
D12*
%TO.C,J6*%
X103380000Y-56271022D02*
X111420000Y-56271022D01*
X103380000Y-77011022D02*
X103380000Y-56271022D01*
X103380000Y-77011022D02*
X111420000Y-77011022D01*
X107000000Y-57079022D02*
X107000000Y-56271022D01*
X107000000Y-62079022D02*
X107000000Y-60703022D01*
X107000000Y-67079022D02*
X107000000Y-65703022D01*
X107000000Y-72011022D02*
X107000000Y-70703022D01*
X107000000Y-77011022D02*
X107000000Y-75771022D01*
X108000000Y-57079022D02*
X108000000Y-56271022D01*
X108000000Y-62079022D02*
X108000000Y-60703022D01*
X108000000Y-67079022D02*
X108000000Y-65703022D01*
X108000000Y-72011022D02*
X108000000Y-70703022D01*
X108000000Y-77011022D02*
X108000000Y-75771022D01*
X109300000Y-58348022D02*
X109300000Y-56271022D01*
X109300000Y-63348022D02*
X109300000Y-59434022D01*
X109300000Y-68348022D02*
X109300000Y-64434022D01*
X109300000Y-72011022D02*
X109300000Y-69434022D01*
X109300000Y-77011022D02*
X109300000Y-75771022D01*
X111420000Y-73591022D02*
X111420000Y-56271022D01*
X111420000Y-77011022D02*
X111420000Y-74191022D01*
X112030000Y-74331022D02*
X111420000Y-73891022D01*
X112030000Y-73451022D01*
X112030000Y-74331022D01*
G36*
X112030000Y-74331022D02*
G01*
X111420000Y-73891022D01*
X112030000Y-73451022D01*
X112030000Y-74331022D01*
G37*
%TO.C,PWR_IN2*%
X43641584Y-85271022D02*
X43641584Y-83891022D01*
X45021584Y-85271022D02*
X43641584Y-85271022D01*
X46291584Y-82511022D02*
X48941584Y-82511022D01*
X46291584Y-85271022D02*
X46291584Y-82511022D01*
X46291584Y-85271022D02*
X48941584Y-85271022D01*
X48941584Y-85271022D02*
X48941584Y-82511022D01*
%TO.C,C6*%
X76652677Y-62016022D02*
X77652677Y-62016022D01*
X77152677Y-61516022D02*
X77152677Y-62516022D01*
X82132323Y-59811022D02*
X82132323Y-69971022D01*
X82172323Y-59811022D02*
X82172323Y-69971022D01*
X82212323Y-59812022D02*
X82212323Y-69970022D01*
X82252323Y-59812022D02*
X82252323Y-69970022D01*
X82292323Y-59814022D02*
X82292323Y-69968022D01*
X82332323Y-59815022D02*
X82332323Y-69967022D01*
X82372323Y-59817022D02*
X82372323Y-69965022D01*
X82412323Y-59819022D02*
X82412323Y-69963022D01*
X82452323Y-59821022D02*
X82452323Y-69961022D01*
X82492323Y-59824022D02*
X82492323Y-69958022D01*
X82532323Y-59827022D02*
X82532323Y-69955022D01*
X82572323Y-59830022D02*
X82572323Y-69952022D01*
X82612323Y-59834022D02*
X82612323Y-69948022D01*
X82652323Y-59837022D02*
X82652323Y-69945022D01*
X82692323Y-59842022D02*
X82692323Y-69940022D01*
X82732323Y-59846022D02*
X82732323Y-69936022D01*
X82772323Y-59851022D02*
X82772323Y-69931022D01*
X82812323Y-59856022D02*
X82812323Y-69926022D01*
X82852323Y-59862022D02*
X82852323Y-69920022D01*
X82892323Y-59868022D02*
X82892323Y-69914022D01*
X82932323Y-59874022D02*
X82932323Y-69908022D01*
X82972323Y-59880022D02*
X82972323Y-69902022D01*
X83012323Y-59887022D02*
X83012323Y-69895022D01*
X83052323Y-59894022D02*
X83052323Y-69888022D01*
X83092323Y-59902022D02*
X83092323Y-69880022D01*
X83132323Y-59910022D02*
X83132323Y-69872022D01*
X83172323Y-59918022D02*
X83172323Y-69864022D01*
X83212323Y-59926022D02*
X83212323Y-69856022D01*
X83252323Y-59935022D02*
X83252323Y-69847022D01*
X83292323Y-59944022D02*
X83292323Y-69838022D01*
X83332323Y-59954022D02*
X83332323Y-69828022D01*
X83372323Y-59963022D02*
X83372323Y-69819022D01*
X83412323Y-59974022D02*
X83412323Y-63651022D01*
X83412323Y-66131022D02*
X83412323Y-69808022D01*
X83452323Y-59984022D02*
X83452323Y-63651022D01*
X83452323Y-66131022D02*
X83452323Y-69798022D01*
X83492323Y-59995022D02*
X83492323Y-63651022D01*
X83492323Y-66131022D02*
X83492323Y-69787022D01*
X83532323Y-60006022D02*
X83532323Y-63651022D01*
X83532323Y-66131022D02*
X83532323Y-69776022D01*
X83572323Y-60018022D02*
X83572323Y-63651022D01*
X83572323Y-66131022D02*
X83572323Y-69764022D01*
X83612323Y-60030022D02*
X83612323Y-63651022D01*
X83612323Y-66131022D02*
X83612323Y-69752022D01*
X83652323Y-60042022D02*
X83652323Y-63651022D01*
X83652323Y-66131022D02*
X83652323Y-69740022D01*
X83692323Y-60054022D02*
X83692323Y-63651022D01*
X83692323Y-66131022D02*
X83692323Y-69728022D01*
X83732323Y-60067022D02*
X83732323Y-63651022D01*
X83732323Y-66131022D02*
X83732323Y-69715022D01*
X83772323Y-60081022D02*
X83772323Y-63651022D01*
X83772323Y-66131022D02*
X83772323Y-69701022D01*
X83812323Y-60094022D02*
X83812323Y-63651022D01*
X83812323Y-66131022D02*
X83812323Y-69688022D01*
X83852323Y-60109022D02*
X83852323Y-63651022D01*
X83852323Y-66131022D02*
X83852323Y-69673022D01*
X83892323Y-60123022D02*
X83892323Y-63651022D01*
X83892323Y-66131022D02*
X83892323Y-69659022D01*
X83932323Y-60138022D02*
X83932323Y-63651022D01*
X83932323Y-66131022D02*
X83932323Y-69644022D01*
X83972323Y-60153022D02*
X83972323Y-63651022D01*
X83972323Y-66131022D02*
X83972323Y-69629022D01*
X84012323Y-60169022D02*
X84012323Y-63651022D01*
X84012323Y-66131022D02*
X84012323Y-69613022D01*
X84052323Y-60185022D02*
X84052323Y-63651022D01*
X84052323Y-66131022D02*
X84052323Y-69597022D01*
X84092323Y-60201022D02*
X84092323Y-63651022D01*
X84092323Y-66131022D02*
X84092323Y-69581022D01*
X84132323Y-60218022D02*
X84132323Y-63651022D01*
X84132323Y-66131022D02*
X84132323Y-69564022D01*
X84172323Y-60235022D02*
X84172323Y-63651022D01*
X84172323Y-66131022D02*
X84172323Y-69547022D01*
X84212323Y-60253022D02*
X84212323Y-63651022D01*
X84212323Y-66131022D02*
X84212323Y-69529022D01*
X84252323Y-60271022D02*
X84252323Y-63651022D01*
X84252323Y-66131022D02*
X84252323Y-69511022D01*
X84292323Y-60289022D02*
X84292323Y-63651022D01*
X84292323Y-66131022D02*
X84292323Y-69493022D01*
X84332323Y-60308022D02*
X84332323Y-63651022D01*
X84332323Y-66131022D02*
X84332323Y-69474022D01*
X84372323Y-60327022D02*
X84372323Y-63651022D01*
X84372323Y-66131022D02*
X84372323Y-69455022D01*
X84412323Y-60347022D02*
X84412323Y-63651022D01*
X84412323Y-66131022D02*
X84412323Y-69435022D01*
X84452323Y-60367022D02*
X84452323Y-63651022D01*
X84452323Y-66131022D02*
X84452323Y-69415022D01*
X84492323Y-60387022D02*
X84492323Y-63651022D01*
X84492323Y-66131022D02*
X84492323Y-69395022D01*
X84532323Y-60408022D02*
X84532323Y-63651022D01*
X84532323Y-66131022D02*
X84532323Y-69374022D01*
X84572323Y-60430022D02*
X84572323Y-63651022D01*
X84572323Y-66131022D02*
X84572323Y-69352022D01*
X84612323Y-60452022D02*
X84612323Y-63651022D01*
X84612323Y-66131022D02*
X84612323Y-69330022D01*
X84652323Y-60474022D02*
X84652323Y-63651022D01*
X84652323Y-66131022D02*
X84652323Y-69308022D01*
X84692323Y-60497022D02*
X84692323Y-63651022D01*
X84692323Y-66131022D02*
X84692323Y-69285022D01*
X84732323Y-60520022D02*
X84732323Y-63651022D01*
X84732323Y-66131022D02*
X84732323Y-69262022D01*
X84772323Y-60544022D02*
X84772323Y-63651022D01*
X84772323Y-66131022D02*
X84772323Y-69238022D01*
X84812323Y-60568022D02*
X84812323Y-63651022D01*
X84812323Y-66131022D02*
X84812323Y-69214022D01*
X84852323Y-60593022D02*
X84852323Y-63651022D01*
X84852323Y-66131022D02*
X84852323Y-69189022D01*
X84892323Y-60619022D02*
X84892323Y-63651022D01*
X84892323Y-66131022D02*
X84892323Y-69163022D01*
X84932323Y-60644022D02*
X84932323Y-63651022D01*
X84932323Y-66131022D02*
X84932323Y-69138022D01*
X84972323Y-60671022D02*
X84972323Y-63651022D01*
X84972323Y-66131022D02*
X84972323Y-69111022D01*
X85012323Y-60698022D02*
X85012323Y-63651022D01*
X85012323Y-66131022D02*
X85012323Y-69084022D01*
X85052323Y-60725022D02*
X85052323Y-63651022D01*
X85052323Y-66131022D02*
X85052323Y-69057022D01*
X85092323Y-60753022D02*
X85092323Y-63651022D01*
X85092323Y-66131022D02*
X85092323Y-69029022D01*
X85132323Y-60782022D02*
X85132323Y-63651022D01*
X85132323Y-66131022D02*
X85132323Y-69000022D01*
X85172323Y-60811022D02*
X85172323Y-63651022D01*
X85172323Y-66131022D02*
X85172323Y-68971022D01*
X85212323Y-60841022D02*
X85212323Y-63651022D01*
X85212323Y-66131022D02*
X85212323Y-68941022D01*
X85252323Y-60871022D02*
X85252323Y-63651022D01*
X85252323Y-66131022D02*
X85252323Y-68911022D01*
X85292323Y-60903022D02*
X85292323Y-63651022D01*
X85292323Y-66131022D02*
X85292323Y-68879022D01*
X85332323Y-60934022D02*
X85332323Y-63651022D01*
X85332323Y-66131022D02*
X85332323Y-68848022D01*
X85372323Y-60967022D02*
X85372323Y-63651022D01*
X85372323Y-66131022D02*
X85372323Y-68815022D01*
X85412323Y-61000022D02*
X85412323Y-63651022D01*
X85412323Y-66131022D02*
X85412323Y-68782022D01*
X85452323Y-61033022D02*
X85452323Y-63651022D01*
X85452323Y-66131022D02*
X85452323Y-68749022D01*
X85492323Y-61068022D02*
X85492323Y-63651022D01*
X85492323Y-66131022D02*
X85492323Y-68714022D01*
X85532323Y-61103022D02*
X85532323Y-63651022D01*
X85532323Y-66131022D02*
X85532323Y-68679022D01*
X85572323Y-61139022D02*
X85572323Y-63651022D01*
X85572323Y-66131022D02*
X85572323Y-68643022D01*
X85612323Y-61175022D02*
X85612323Y-63651022D01*
X85612323Y-66131022D02*
X85612323Y-68607022D01*
X85652323Y-61213022D02*
X85652323Y-63651022D01*
X85652323Y-66131022D02*
X85652323Y-68569022D01*
X85692323Y-61251022D02*
X85692323Y-63651022D01*
X85692323Y-66131022D02*
X85692323Y-68531022D01*
X85732323Y-61290022D02*
X85732323Y-63651022D01*
X85732323Y-66131022D02*
X85732323Y-68492022D01*
X85772323Y-61330022D02*
X85772323Y-63651022D01*
X85772323Y-66131022D02*
X85772323Y-68452022D01*
X85812323Y-61371022D02*
X85812323Y-63651022D01*
X85812323Y-66131022D02*
X85812323Y-68411022D01*
X85852323Y-61413022D02*
X85852323Y-63651022D01*
X85852323Y-66131022D02*
X85852323Y-68369022D01*
X85892323Y-61456022D02*
X85892323Y-68326022D01*
X85932323Y-61500022D02*
X85932323Y-68282022D01*
X85972323Y-61544022D02*
X85972323Y-68238022D01*
X86012323Y-61590022D02*
X86012323Y-68192022D01*
X86052323Y-61637022D02*
X86052323Y-68145022D01*
X86092323Y-61686022D02*
X86092323Y-68096022D01*
X86132323Y-61735022D02*
X86132323Y-68047022D01*
X86172323Y-61786022D02*
X86172323Y-67996022D01*
X86212323Y-61838022D02*
X86212323Y-67944022D01*
X86252323Y-61891022D02*
X86252323Y-67891022D01*
X86292323Y-61946022D02*
X86292323Y-67836022D01*
X86332323Y-62003022D02*
X86332323Y-67779022D01*
X86372323Y-62061022D02*
X86372323Y-67721022D01*
X86412323Y-62121022D02*
X86412323Y-67661022D01*
X86452323Y-62183022D02*
X86452323Y-67599022D01*
X86492323Y-62247022D02*
X86492323Y-67535022D01*
X86532323Y-62313022D02*
X86532323Y-67469022D01*
X86572323Y-62381022D02*
X86572323Y-67401022D01*
X86612323Y-62452022D02*
X86612323Y-67330022D01*
X86652323Y-62526022D02*
X86652323Y-67256022D01*
X86692323Y-62603022D02*
X86692323Y-67179022D01*
X86732323Y-62683022D02*
X86732323Y-67099022D01*
X86772323Y-62767022D02*
X86772323Y-67015022D01*
X86812323Y-62854022D02*
X86812323Y-66928022D01*
X86852323Y-62947022D02*
X86852323Y-66835022D01*
X86892323Y-63045022D02*
X86892323Y-66737022D01*
X86932323Y-63149022D02*
X86932323Y-66633022D01*
X86972323Y-63261022D02*
X86972323Y-66521022D01*
X87012323Y-63382022D02*
X87012323Y-66400022D01*
X87052323Y-63514022D02*
X87052323Y-66268022D01*
X87092323Y-63661022D02*
X87092323Y-66121022D01*
X87132323Y-63829022D02*
X87132323Y-65953022D01*
X87172323Y-64029022D02*
X87172323Y-65753022D01*
X87212323Y-64292022D02*
X87212323Y-65490022D01*
X87252323Y-64891022D02*
G75*
G02*
X77012323Y-64891022I-5120000J0D01*
G01*
X77012323Y-64891022D02*
G75*
G02*
X87252323Y-64891022I5120000J0D01*
G01*
%TO.C,J5*%
X95880000Y-78271022D02*
X95880000Y-86311022D01*
X95880000Y-78271022D02*
X111620000Y-78271022D01*
X95880000Y-81891022D02*
X97120000Y-81891022D01*
X95880000Y-82891022D02*
X97120000Y-82891022D01*
X95880000Y-84191022D02*
X97120000Y-84191022D01*
X95880000Y-86311022D02*
X98700000Y-86311022D01*
X99300000Y-86311022D02*
X111620000Y-86311022D01*
X100880000Y-81891022D02*
X102188000Y-81891022D01*
X100880000Y-82891022D02*
X102188000Y-82891022D01*
X100880000Y-84191022D02*
X103457000Y-84191022D01*
X104543000Y-84191022D02*
X108457000Y-84191022D01*
X105812000Y-81891022D02*
X107188000Y-81891022D01*
X105812000Y-82891022D02*
X107188000Y-82891022D01*
X109543000Y-84191022D02*
X111620000Y-84191022D01*
X110812000Y-81891022D02*
X111620000Y-81891022D01*
X110812000Y-82891022D02*
X111620000Y-82891022D01*
X111620000Y-78271022D02*
X111620000Y-86311022D01*
X99440000Y-86921022D02*
X98560000Y-86921022D01*
X99000000Y-86311022D01*
X99440000Y-86921022D01*
G36*
X99440000Y-86921022D02*
G01*
X98560000Y-86921022D01*
X99000000Y-86311022D01*
X99440000Y-86921022D01*
G37*
%TO.C,C5*%
X60960000Y-63698643D02*
X58779000Y-63698643D01*
X60960000Y-63738643D02*
X58782000Y-63738643D01*
X60960000Y-63778643D02*
X58786000Y-63778643D01*
X60960000Y-63818643D02*
X58790000Y-63818643D01*
X60960000Y-63858643D02*
X58795000Y-63858643D01*
X60960000Y-63898643D02*
X58800000Y-63898643D01*
X60960000Y-63938643D02*
X58805000Y-63938643D01*
X60960000Y-63978643D02*
X58812000Y-63978643D01*
X60960000Y-64018643D02*
X58818000Y-64018643D01*
X60960000Y-64058643D02*
X58826000Y-64058643D01*
X60960000Y-64098643D02*
X58833000Y-64098643D01*
X60960000Y-64138643D02*
X58841000Y-64138643D01*
X60960000Y-64178643D02*
X58850000Y-64178643D01*
X60960000Y-64218643D02*
X58860000Y-64218643D01*
X60960000Y-64258643D02*
X58869000Y-64258643D01*
X60960000Y-64298643D02*
X58880000Y-64298643D01*
X60960000Y-64338643D02*
X58891000Y-64338643D01*
X60960000Y-64378643D02*
X58902000Y-64378643D01*
X60960000Y-64418643D02*
X58914000Y-64418643D01*
X60960000Y-64458643D02*
X58927000Y-64458643D01*
X60960000Y-64498643D02*
X58940000Y-64498643D01*
X60960000Y-64538643D02*
X58953000Y-64538643D01*
X60960000Y-64578643D02*
X58968000Y-64578643D01*
X60960000Y-64618643D02*
X58983000Y-64618643D01*
X60960000Y-64658643D02*
X58998000Y-64658643D01*
X60960000Y-64698643D02*
X59014000Y-64698643D01*
X60960000Y-64738643D02*
X59031000Y-64738643D01*
X60960000Y-64778643D02*
X59048000Y-64778643D01*
X60960000Y-64818643D02*
X59066000Y-64818643D01*
X60960000Y-64858643D02*
X59085000Y-64858643D01*
X60960000Y-64898643D02*
X59104000Y-64898643D01*
X60960000Y-64938643D02*
X59124000Y-64938643D01*
X60960000Y-64978643D02*
X59145000Y-64978643D01*
X60960000Y-65018643D02*
X59166000Y-65018643D01*
X60960000Y-65058643D02*
X59188000Y-65058643D01*
X60960000Y-65098643D02*
X59211000Y-65098643D01*
X60960000Y-65138643D02*
X59235000Y-65138643D01*
X60960000Y-65178643D02*
X59259000Y-65178643D01*
X60960000Y-65218643D02*
X59284000Y-65218643D01*
X60960000Y-65258643D02*
X59310000Y-65258643D01*
X60960000Y-65298643D02*
X59337000Y-65298643D01*
X60960000Y-65338643D02*
X59364000Y-65338643D01*
X60960000Y-65378643D02*
X59393000Y-65378643D01*
X60960000Y-65418643D02*
X59423000Y-65418643D01*
X60960000Y-65458643D02*
X59453000Y-65458643D01*
X60960000Y-65498643D02*
X59484000Y-65498643D01*
X60960000Y-65538643D02*
X59517000Y-65538643D01*
X60960000Y-65578643D02*
X59550000Y-65578643D01*
X60960000Y-65618643D02*
X59585000Y-65618643D01*
X60960000Y-65658643D02*
X59621000Y-65658643D01*
X60960000Y-65698643D02*
X59658000Y-65698643D01*
X60960000Y-65738643D02*
X59696000Y-65738643D01*
X62402000Y-66698643D02*
X61598000Y-66698643D01*
X62633000Y-66658643D02*
X61367000Y-66658643D01*
X62801000Y-66618643D02*
X61199000Y-66618643D01*
X62939000Y-66578643D02*
X61061000Y-66578643D01*
X63058000Y-66538643D02*
X60942000Y-66538643D01*
X63165000Y-66498643D02*
X60835000Y-66498643D01*
X63261000Y-66458643D02*
X60739000Y-66458643D01*
X63350000Y-66418643D02*
X60650000Y-66418643D01*
X63432000Y-66378643D02*
X60568000Y-66378643D01*
X63509000Y-66338643D02*
X60491000Y-66338643D01*
X63581000Y-66298643D02*
X60419000Y-66298643D01*
X63649000Y-66258643D02*
X60351000Y-66258643D01*
X63714000Y-66218643D02*
X60286000Y-66218643D01*
X63775000Y-66178643D02*
X60225000Y-66178643D01*
X63834000Y-66138643D02*
X60166000Y-66138643D01*
X63839000Y-59958402D02*
X63839000Y-60588402D01*
X63890000Y-66098643D02*
X60110000Y-66098643D01*
X63943000Y-66058643D02*
X60057000Y-66058643D01*
X63995000Y-66018643D02*
X60005000Y-66018643D01*
X64044000Y-65978643D02*
X59956000Y-65978643D01*
X64091000Y-65938643D02*
X59909000Y-65938643D01*
X64137000Y-65898643D02*
X59863000Y-65898643D01*
X64154000Y-60273402D02*
X63524000Y-60273402D01*
X64181000Y-65858643D02*
X59819000Y-65858643D01*
X64223000Y-65818643D02*
X59777000Y-65818643D01*
X64264000Y-65778643D02*
X59736000Y-65778643D01*
X64304000Y-65738643D02*
X63040000Y-65738643D01*
X64342000Y-65698643D02*
X63040000Y-65698643D01*
X64379000Y-65658643D02*
X63040000Y-65658643D01*
X64415000Y-65618643D02*
X63040000Y-65618643D01*
X64450000Y-65578643D02*
X63040000Y-65578643D01*
X64483000Y-65538643D02*
X63040000Y-65538643D01*
X64516000Y-65498643D02*
X63040000Y-65498643D01*
X64547000Y-65458643D02*
X63040000Y-65458643D01*
X64577000Y-65418643D02*
X63040000Y-65418643D01*
X64607000Y-65378643D02*
X63040000Y-65378643D01*
X64636000Y-65338643D02*
X63040000Y-65338643D01*
X64663000Y-65298643D02*
X63040000Y-65298643D01*
X64690000Y-65258643D02*
X63040000Y-65258643D01*
X64716000Y-65218643D02*
X63040000Y-65218643D01*
X64741000Y-65178643D02*
X63040000Y-65178643D01*
X64765000Y-65138643D02*
X63040000Y-65138643D01*
X64789000Y-65098643D02*
X63040000Y-65098643D01*
X64812000Y-65058643D02*
X63040000Y-65058643D01*
X64834000Y-65018643D02*
X63040000Y-65018643D01*
X64855000Y-64978643D02*
X63040000Y-64978643D01*
X64876000Y-64938643D02*
X63040000Y-64938643D01*
X64896000Y-64898643D02*
X63040000Y-64898643D01*
X64915000Y-64858643D02*
X63040000Y-64858643D01*
X64934000Y-64818643D02*
X63040000Y-64818643D01*
X64952000Y-64778643D02*
X63040000Y-64778643D01*
X64969000Y-64738643D02*
X63040000Y-64738643D01*
X64986000Y-64698643D02*
X63040000Y-64698643D01*
X65002000Y-64658643D02*
X63040000Y-64658643D01*
X65017000Y-64618643D02*
X63040000Y-64618643D01*
X65032000Y-64578643D02*
X63040000Y-64578643D01*
X65047000Y-64538643D02*
X63040000Y-64538643D01*
X65060000Y-64498643D02*
X63040000Y-64498643D01*
X65073000Y-64458643D02*
X63040000Y-64458643D01*
X65086000Y-64418643D02*
X63040000Y-64418643D01*
X65098000Y-64378643D02*
X63040000Y-64378643D01*
X65109000Y-64338643D02*
X63040000Y-64338643D01*
X65120000Y-64298643D02*
X63040000Y-64298643D01*
X65131000Y-64258643D02*
X63040000Y-64258643D01*
X65140000Y-64218643D02*
X63040000Y-64218643D01*
X65150000Y-64178643D02*
X63040000Y-64178643D01*
X65159000Y-64138643D02*
X63040000Y-64138643D01*
X65167000Y-64098643D02*
X63040000Y-64098643D01*
X65174000Y-64058643D02*
X63040000Y-64058643D01*
X65182000Y-64018643D02*
X63040000Y-64018643D01*
X65188000Y-63978643D02*
X63040000Y-63978643D01*
X65195000Y-63938643D02*
X63040000Y-63938643D01*
X65200000Y-63898643D02*
X63040000Y-63898643D01*
X65205000Y-63858643D02*
X63040000Y-63858643D01*
X65210000Y-63818643D02*
X63040000Y-63818643D01*
X65214000Y-63778643D02*
X63040000Y-63778643D01*
X65218000Y-63738643D02*
X63040000Y-63738643D01*
X65221000Y-63698643D02*
X63040000Y-63698643D01*
X65224000Y-63658643D02*
X58776000Y-63658643D01*
X65226000Y-63618643D02*
X58774000Y-63618643D01*
X65228000Y-63578643D02*
X58772000Y-63578643D01*
X65229000Y-63538643D02*
X58771000Y-63538643D01*
X65230000Y-63458643D02*
X58770000Y-63458643D01*
X65230000Y-63498643D02*
X58770000Y-63498643D01*
X65270000Y-63458643D02*
G75*
G02*
X58730000Y-63458643I-3270000J0D01*
G01*
X58730000Y-63458643D02*
G75*
G02*
X65270000Y-63458643I3270000J0D01*
G01*
%TO.C,C3*%
X83287677Y-50180022D02*
X83287677Y-48982022D01*
X83327677Y-50443022D02*
X83327677Y-48719022D01*
X83367677Y-50643022D02*
X83367677Y-48519022D01*
X83407677Y-50811022D02*
X83407677Y-48351022D01*
X83447677Y-50958022D02*
X83447677Y-48204022D01*
X83487677Y-51090022D02*
X83487677Y-48072022D01*
X83527677Y-51211022D02*
X83527677Y-47951022D01*
X83567677Y-51323022D02*
X83567677Y-47839022D01*
X83607677Y-51427022D02*
X83607677Y-47735022D01*
X83647677Y-51525022D02*
X83647677Y-47637022D01*
X83687677Y-51618022D02*
X83687677Y-47544022D01*
X83727677Y-51705022D02*
X83727677Y-47457022D01*
X83767677Y-51789022D02*
X83767677Y-47373022D01*
X83807677Y-51869022D02*
X83807677Y-47293022D01*
X83847677Y-51946022D02*
X83847677Y-47216022D01*
X83887677Y-52020022D02*
X83887677Y-47142022D01*
X83927677Y-52091022D02*
X83927677Y-47071022D01*
X83967677Y-52159022D02*
X83967677Y-47003022D01*
X84007677Y-52225022D02*
X84007677Y-46937022D01*
X84047677Y-52289022D02*
X84047677Y-46873022D01*
X84087677Y-52351022D02*
X84087677Y-46811022D01*
X84127677Y-52411022D02*
X84127677Y-46751022D01*
X84167677Y-52469022D02*
X84167677Y-46693022D01*
X84207677Y-52526022D02*
X84207677Y-46636022D01*
X84247677Y-52581022D02*
X84247677Y-46581022D01*
X84287677Y-52634022D02*
X84287677Y-46528022D01*
X84327677Y-52686022D02*
X84327677Y-46476022D01*
X84367677Y-52737022D02*
X84367677Y-46425022D01*
X84407677Y-52786022D02*
X84407677Y-46376022D01*
X84447677Y-52835022D02*
X84447677Y-46327022D01*
X84487677Y-52882022D02*
X84487677Y-46280022D01*
X84527677Y-52928022D02*
X84527677Y-46234022D01*
X84567677Y-52972022D02*
X84567677Y-46190022D01*
X84607677Y-53016022D02*
X84607677Y-46146022D01*
X84647677Y-48341022D02*
X84647677Y-46103022D01*
X84647677Y-53059022D02*
X84647677Y-50821022D01*
X84687677Y-48341022D02*
X84687677Y-46061022D01*
X84687677Y-53101022D02*
X84687677Y-50821022D01*
X84727677Y-48341022D02*
X84727677Y-46020022D01*
X84727677Y-53142022D02*
X84727677Y-50821022D01*
X84767677Y-48341022D02*
X84767677Y-45980022D01*
X84767677Y-53182022D02*
X84767677Y-50821022D01*
X84807677Y-48341022D02*
X84807677Y-45941022D01*
X84807677Y-53221022D02*
X84807677Y-50821022D01*
X84847677Y-48341022D02*
X84847677Y-45903022D01*
X84847677Y-53259022D02*
X84847677Y-50821022D01*
X84887677Y-48341022D02*
X84887677Y-45865022D01*
X84887677Y-53297022D02*
X84887677Y-50821022D01*
X84927677Y-48341022D02*
X84927677Y-45829022D01*
X84927677Y-53333022D02*
X84927677Y-50821022D01*
X84967677Y-48341022D02*
X84967677Y-45793022D01*
X84967677Y-53369022D02*
X84967677Y-50821022D01*
X85007677Y-48341022D02*
X85007677Y-45758022D01*
X85007677Y-53404022D02*
X85007677Y-50821022D01*
X85047677Y-48341022D02*
X85047677Y-45723022D01*
X85047677Y-53439022D02*
X85047677Y-50821022D01*
X85087677Y-48341022D02*
X85087677Y-45690022D01*
X85087677Y-53472022D02*
X85087677Y-50821022D01*
X85127677Y-48341022D02*
X85127677Y-45657022D01*
X85127677Y-53505022D02*
X85127677Y-50821022D01*
X85167677Y-48341022D02*
X85167677Y-45624022D01*
X85167677Y-53538022D02*
X85167677Y-50821022D01*
X85207677Y-48341022D02*
X85207677Y-45593022D01*
X85207677Y-53569022D02*
X85207677Y-50821022D01*
X85247677Y-48341022D02*
X85247677Y-45561022D01*
X85247677Y-53601022D02*
X85247677Y-50821022D01*
X85287677Y-48341022D02*
X85287677Y-45531022D01*
X85287677Y-53631022D02*
X85287677Y-50821022D01*
X85327677Y-48341022D02*
X85327677Y-45501022D01*
X85327677Y-53661022D02*
X85327677Y-50821022D01*
X85367677Y-48341022D02*
X85367677Y-45472022D01*
X85367677Y-53690022D02*
X85367677Y-50821022D01*
X85407677Y-48341022D02*
X85407677Y-45443022D01*
X85407677Y-53719022D02*
X85407677Y-50821022D01*
X85447677Y-48341022D02*
X85447677Y-45415022D01*
X85447677Y-53747022D02*
X85447677Y-50821022D01*
X85487677Y-48341022D02*
X85487677Y-45388022D01*
X85487677Y-53774022D02*
X85487677Y-50821022D01*
X85527677Y-48341022D02*
X85527677Y-45361022D01*
X85527677Y-53801022D02*
X85527677Y-50821022D01*
X85567677Y-48341022D02*
X85567677Y-45334022D01*
X85567677Y-53828022D02*
X85567677Y-50821022D01*
X85607677Y-48341022D02*
X85607677Y-45309022D01*
X85607677Y-53853022D02*
X85607677Y-50821022D01*
X85647677Y-48341022D02*
X85647677Y-45283022D01*
X85647677Y-53879022D02*
X85647677Y-50821022D01*
X85687677Y-48341022D02*
X85687677Y-45258022D01*
X85687677Y-53904022D02*
X85687677Y-50821022D01*
X85727677Y-48341022D02*
X85727677Y-45234022D01*
X85727677Y-53928022D02*
X85727677Y-50821022D01*
X85767677Y-48341022D02*
X85767677Y-45210022D01*
X85767677Y-53952022D02*
X85767677Y-50821022D01*
X85807677Y-48341022D02*
X85807677Y-45187022D01*
X85807677Y-53975022D02*
X85807677Y-50821022D01*
X85847677Y-48341022D02*
X85847677Y-45164022D01*
X85847677Y-53998022D02*
X85847677Y-50821022D01*
X85887677Y-48341022D02*
X85887677Y-45142022D01*
X85887677Y-54020022D02*
X85887677Y-50821022D01*
X85927677Y-48341022D02*
X85927677Y-45120022D01*
X85927677Y-54042022D02*
X85927677Y-50821022D01*
X85967677Y-48341022D02*
X85967677Y-45098022D01*
X85967677Y-54064022D02*
X85967677Y-50821022D01*
X86007677Y-48341022D02*
X86007677Y-45077022D01*
X86007677Y-54085022D02*
X86007677Y-50821022D01*
X86047677Y-48341022D02*
X86047677Y-45057022D01*
X86047677Y-54105022D02*
X86047677Y-50821022D01*
X86087677Y-48341022D02*
X86087677Y-45037022D01*
X86087677Y-54125022D02*
X86087677Y-50821022D01*
X86127677Y-48341022D02*
X86127677Y-45017022D01*
X86127677Y-54145022D02*
X86127677Y-50821022D01*
X86167677Y-48341022D02*
X86167677Y-44998022D01*
X86167677Y-54164022D02*
X86167677Y-50821022D01*
X86207677Y-48341022D02*
X86207677Y-44979022D01*
X86207677Y-54183022D02*
X86207677Y-50821022D01*
X86247677Y-48341022D02*
X86247677Y-44961022D01*
X86247677Y-54201022D02*
X86247677Y-50821022D01*
X86287677Y-48341022D02*
X86287677Y-44943022D01*
X86287677Y-54219022D02*
X86287677Y-50821022D01*
X86327677Y-48341022D02*
X86327677Y-44925022D01*
X86327677Y-54237022D02*
X86327677Y-50821022D01*
X86367677Y-48341022D02*
X86367677Y-44908022D01*
X86367677Y-54254022D02*
X86367677Y-50821022D01*
X86407677Y-48341022D02*
X86407677Y-44891022D01*
X86407677Y-54271022D02*
X86407677Y-50821022D01*
X86447677Y-48341022D02*
X86447677Y-44875022D01*
X86447677Y-54287022D02*
X86447677Y-50821022D01*
X86487677Y-48341022D02*
X86487677Y-44859022D01*
X86487677Y-54303022D02*
X86487677Y-50821022D01*
X86527677Y-48341022D02*
X86527677Y-44843022D01*
X86527677Y-54319022D02*
X86527677Y-50821022D01*
X86567677Y-48341022D02*
X86567677Y-44828022D01*
X86567677Y-54334022D02*
X86567677Y-50821022D01*
X86607677Y-48341022D02*
X86607677Y-44813022D01*
X86607677Y-54349022D02*
X86607677Y-50821022D01*
X86647677Y-48341022D02*
X86647677Y-44799022D01*
X86647677Y-54363022D02*
X86647677Y-50821022D01*
X86687677Y-48341022D02*
X86687677Y-44784022D01*
X86687677Y-54378022D02*
X86687677Y-50821022D01*
X86727677Y-48341022D02*
X86727677Y-44771022D01*
X86727677Y-54391022D02*
X86727677Y-50821022D01*
X86767677Y-48341022D02*
X86767677Y-44757022D01*
X86767677Y-54405022D02*
X86767677Y-50821022D01*
X86807677Y-48341022D02*
X86807677Y-44744022D01*
X86807677Y-54418022D02*
X86807677Y-50821022D01*
X86847677Y-48341022D02*
X86847677Y-44732022D01*
X86847677Y-54430022D02*
X86847677Y-50821022D01*
X86887677Y-48341022D02*
X86887677Y-44720022D01*
X86887677Y-54442022D02*
X86887677Y-50821022D01*
X86927677Y-48341022D02*
X86927677Y-44708022D01*
X86927677Y-54454022D02*
X86927677Y-50821022D01*
X86967677Y-48341022D02*
X86967677Y-44696022D01*
X86967677Y-54466022D02*
X86967677Y-50821022D01*
X87007677Y-48341022D02*
X87007677Y-44685022D01*
X87007677Y-54477022D02*
X87007677Y-50821022D01*
X87047677Y-48341022D02*
X87047677Y-44674022D01*
X87047677Y-54488022D02*
X87047677Y-50821022D01*
X87087677Y-48341022D02*
X87087677Y-44664022D01*
X87087677Y-54498022D02*
X87087677Y-50821022D01*
X87127677Y-54509022D02*
X87127677Y-44653022D01*
X87167677Y-54518022D02*
X87167677Y-44644022D01*
X87207677Y-54528022D02*
X87207677Y-44634022D01*
X87247677Y-54537022D02*
X87247677Y-44625022D01*
X87287677Y-54546022D02*
X87287677Y-44616022D01*
X87327677Y-54554022D02*
X87327677Y-44608022D01*
X87367677Y-54562022D02*
X87367677Y-44600022D01*
X87407677Y-54570022D02*
X87407677Y-44592022D01*
X87447677Y-54578022D02*
X87447677Y-44584022D01*
X87487677Y-54585022D02*
X87487677Y-44577022D01*
X87527677Y-54592022D02*
X87527677Y-44570022D01*
X87567677Y-54598022D02*
X87567677Y-44564022D01*
X87607677Y-54604022D02*
X87607677Y-44558022D01*
X87647677Y-54610022D02*
X87647677Y-44552022D01*
X87687677Y-54616022D02*
X87687677Y-44546022D01*
X87727677Y-54621022D02*
X87727677Y-44541022D01*
X87767677Y-54626022D02*
X87767677Y-44536022D01*
X87807677Y-54630022D02*
X87807677Y-44532022D01*
X87847677Y-54635022D02*
X87847677Y-44527022D01*
X87887677Y-54638022D02*
X87887677Y-44524022D01*
X87927677Y-54642022D02*
X87927677Y-44520022D01*
X87967677Y-54645022D02*
X87967677Y-44517022D01*
X88007677Y-54648022D02*
X88007677Y-44514022D01*
X88047677Y-54651022D02*
X88047677Y-44511022D01*
X88087677Y-54653022D02*
X88087677Y-44509022D01*
X88127677Y-54655022D02*
X88127677Y-44507022D01*
X88167677Y-54657022D02*
X88167677Y-44505022D01*
X88207677Y-54658022D02*
X88207677Y-44504022D01*
X88247677Y-54660022D02*
X88247677Y-44502022D01*
X88287677Y-54660022D02*
X88287677Y-44502022D01*
X88327677Y-54661022D02*
X88327677Y-44501022D01*
X88367677Y-54661022D02*
X88367677Y-44501022D01*
X93347323Y-52956022D02*
X93347323Y-51956022D01*
X93847323Y-52456022D02*
X92847323Y-52456022D01*
X93487677Y-49581022D02*
G75*
G02*
X83247677Y-49581022I-5120000J0D01*
G01*
X83247677Y-49581022D02*
G75*
G02*
X93487677Y-49581022I5120000J0D01*
G01*
%TO.C,D3*%
X106000000Y-41851021D02*
X108860000Y-41851021D01*
X108860000Y-39931021D02*
X106000000Y-39931021D01*
X108860000Y-41851021D02*
X108860000Y-39931021D01*
%TO.C,J3*%
X52540000Y-82511022D02*
X52540000Y-85271022D01*
X60270000Y-82511022D02*
X52540000Y-82511022D01*
X60270000Y-82511022D02*
X60270000Y-85271022D01*
X60270000Y-85271022D02*
X52540000Y-85271022D01*
X61540000Y-82511022D02*
X62920000Y-82511022D01*
X62920000Y-82511022D02*
X62920000Y-83891022D01*
%TO.C,R8*%
X96772936Y-75656022D02*
X97227064Y-75656022D01*
X96772936Y-77126022D02*
X97227064Y-77126022D01*
%TO.C,C1*%
X44770000Y-57101022D02*
X51230000Y-57101022D01*
X44770000Y-57141022D02*
X51230000Y-57141022D01*
X44771000Y-57061022D02*
X51229000Y-57061022D01*
X44772000Y-57021022D02*
X51228000Y-57021022D01*
X44774000Y-56981022D02*
X51226000Y-56981022D01*
X44776000Y-56941022D02*
X51224000Y-56941022D01*
X44779000Y-56901022D02*
X46960000Y-56901022D01*
X44782000Y-56861022D02*
X46960000Y-56861022D01*
X44786000Y-56821022D02*
X46960000Y-56821022D01*
X44790000Y-56781022D02*
X46960000Y-56781022D01*
X44795000Y-56741022D02*
X46960000Y-56741022D01*
X44800000Y-56701022D02*
X46960000Y-56701022D01*
X44805000Y-56661022D02*
X46960000Y-56661022D01*
X44812000Y-56621022D02*
X46960000Y-56621022D01*
X44818000Y-56581022D02*
X46960000Y-56581022D01*
X44826000Y-56541022D02*
X46960000Y-56541022D01*
X44833000Y-56501022D02*
X46960000Y-56501022D01*
X44841000Y-56461022D02*
X46960000Y-56461022D01*
X44850000Y-56421022D02*
X46960000Y-56421022D01*
X44860000Y-56381022D02*
X46960000Y-56381022D01*
X44869000Y-56341022D02*
X46960000Y-56341022D01*
X44880000Y-56301022D02*
X46960000Y-56301022D01*
X44891000Y-56261022D02*
X46960000Y-56261022D01*
X44902000Y-56221022D02*
X46960000Y-56221022D01*
X44914000Y-56181022D02*
X46960000Y-56181022D01*
X44927000Y-56141022D02*
X46960000Y-56141022D01*
X44940000Y-56101022D02*
X46960000Y-56101022D01*
X44953000Y-56061022D02*
X46960000Y-56061022D01*
X44968000Y-56021022D02*
X46960000Y-56021022D01*
X44983000Y-55981022D02*
X46960000Y-55981022D01*
X44998000Y-55941022D02*
X46960000Y-55941022D01*
X45014000Y-55901022D02*
X46960000Y-55901022D01*
X45031000Y-55861022D02*
X46960000Y-55861022D01*
X45048000Y-55821022D02*
X46960000Y-55821022D01*
X45066000Y-55781022D02*
X46960000Y-55781022D01*
X45085000Y-55741022D02*
X46960000Y-55741022D01*
X45104000Y-55701022D02*
X46960000Y-55701022D01*
X45124000Y-55661022D02*
X46960000Y-55661022D01*
X45145000Y-55621022D02*
X46960000Y-55621022D01*
X45166000Y-55581022D02*
X46960000Y-55581022D01*
X45188000Y-55541022D02*
X46960000Y-55541022D01*
X45211000Y-55501022D02*
X46960000Y-55501022D01*
X45235000Y-55461022D02*
X46960000Y-55461022D01*
X45259000Y-55421022D02*
X46960000Y-55421022D01*
X45284000Y-55381022D02*
X46960000Y-55381022D01*
X45310000Y-55341022D02*
X46960000Y-55341022D01*
X45337000Y-55301022D02*
X46960000Y-55301022D01*
X45364000Y-55261022D02*
X46960000Y-55261022D01*
X45393000Y-55221022D02*
X46960000Y-55221022D01*
X45423000Y-55181022D02*
X46960000Y-55181022D01*
X45453000Y-55141022D02*
X46960000Y-55141022D01*
X45484000Y-55101022D02*
X46960000Y-55101022D01*
X45517000Y-55061022D02*
X46960000Y-55061022D01*
X45550000Y-55021022D02*
X46960000Y-55021022D01*
X45585000Y-54981022D02*
X46960000Y-54981022D01*
X45621000Y-54941022D02*
X46960000Y-54941022D01*
X45658000Y-54901022D02*
X46960000Y-54901022D01*
X45696000Y-54861022D02*
X46960000Y-54861022D01*
X45736000Y-54821022D02*
X50264000Y-54821022D01*
X45777000Y-54781022D02*
X50223000Y-54781022D01*
X45819000Y-54741022D02*
X50181000Y-54741022D01*
X45846000Y-60326263D02*
X46476000Y-60326263D01*
X45863000Y-54701022D02*
X50137000Y-54701022D01*
X45909000Y-54661022D02*
X50091000Y-54661022D01*
X45956000Y-54621022D02*
X50044000Y-54621022D01*
X46005000Y-54581022D02*
X49995000Y-54581022D01*
X46057000Y-54541022D02*
X49943000Y-54541022D01*
X46110000Y-54501022D02*
X49890000Y-54501022D01*
X46161000Y-60641263D02*
X46161000Y-60011263D01*
X46166000Y-54461022D02*
X49834000Y-54461022D01*
X46225000Y-54421022D02*
X49775000Y-54421022D01*
X46286000Y-54381022D02*
X49714000Y-54381022D01*
X46351000Y-54341022D02*
X49649000Y-54341022D01*
X46419000Y-54301022D02*
X49581000Y-54301022D01*
X46491000Y-54261022D02*
X49509000Y-54261022D01*
X46568000Y-54221022D02*
X49432000Y-54221022D01*
X46650000Y-54181022D02*
X49350000Y-54181022D01*
X46739000Y-54141022D02*
X49261000Y-54141022D01*
X46835000Y-54101022D02*
X49165000Y-54101022D01*
X46942000Y-54061022D02*
X49058000Y-54061022D01*
X47061000Y-54021022D02*
X48939000Y-54021022D01*
X47199000Y-53981022D02*
X48801000Y-53981022D01*
X47367000Y-53941022D02*
X48633000Y-53941022D01*
X47598000Y-53901022D02*
X48402000Y-53901022D01*
X49040000Y-54861022D02*
X50304000Y-54861022D01*
X49040000Y-54901022D02*
X50342000Y-54901022D01*
X49040000Y-54941022D02*
X50379000Y-54941022D01*
X49040000Y-54981022D02*
X50415000Y-54981022D01*
X49040000Y-55021022D02*
X50450000Y-55021022D01*
X49040000Y-55061022D02*
X50483000Y-55061022D01*
X49040000Y-55101022D02*
X50516000Y-55101022D01*
X49040000Y-55141022D02*
X50547000Y-55141022D01*
X49040000Y-55181022D02*
X50577000Y-55181022D01*
X49040000Y-55221022D02*
X50607000Y-55221022D01*
X49040000Y-55261022D02*
X50636000Y-55261022D01*
X49040000Y-55301022D02*
X50663000Y-55301022D01*
X49040000Y-55341022D02*
X50690000Y-55341022D01*
X49040000Y-55381022D02*
X50716000Y-55381022D01*
X49040000Y-55421022D02*
X50741000Y-55421022D01*
X49040000Y-55461022D02*
X50765000Y-55461022D01*
X49040000Y-55501022D02*
X50789000Y-55501022D01*
X49040000Y-55541022D02*
X50812000Y-55541022D01*
X49040000Y-55581022D02*
X50834000Y-55581022D01*
X49040000Y-55621022D02*
X50855000Y-55621022D01*
X49040000Y-55661022D02*
X50876000Y-55661022D01*
X49040000Y-55701022D02*
X50896000Y-55701022D01*
X49040000Y-55741022D02*
X50915000Y-55741022D01*
X49040000Y-55781022D02*
X50934000Y-55781022D01*
X49040000Y-55821022D02*
X50952000Y-55821022D01*
X49040000Y-55861022D02*
X50969000Y-55861022D01*
X49040000Y-55901022D02*
X50986000Y-55901022D01*
X49040000Y-55941022D02*
X51002000Y-55941022D01*
X49040000Y-55981022D02*
X51017000Y-55981022D01*
X49040000Y-56021022D02*
X51032000Y-56021022D01*
X49040000Y-56061022D02*
X51047000Y-56061022D01*
X49040000Y-56101022D02*
X51060000Y-56101022D01*
X49040000Y-56141022D02*
X51073000Y-56141022D01*
X49040000Y-56181022D02*
X51086000Y-56181022D01*
X49040000Y-56221022D02*
X51098000Y-56221022D01*
X49040000Y-56261022D02*
X51109000Y-56261022D01*
X49040000Y-56301022D02*
X51120000Y-56301022D01*
X49040000Y-56341022D02*
X51131000Y-56341022D01*
X49040000Y-56381022D02*
X51140000Y-56381022D01*
X49040000Y-56421022D02*
X51150000Y-56421022D01*
X49040000Y-56461022D02*
X51159000Y-56461022D01*
X49040000Y-56501022D02*
X51167000Y-56501022D01*
X49040000Y-56541022D02*
X51174000Y-56541022D01*
X49040000Y-56581022D02*
X51182000Y-56581022D01*
X49040000Y-56621022D02*
X51188000Y-56621022D01*
X49040000Y-56661022D02*
X51195000Y-56661022D01*
X49040000Y-56701022D02*
X51200000Y-56701022D01*
X49040000Y-56741022D02*
X51205000Y-56741022D01*
X49040000Y-56781022D02*
X51210000Y-56781022D01*
X49040000Y-56821022D02*
X51214000Y-56821022D01*
X49040000Y-56861022D02*
X51218000Y-56861022D01*
X49040000Y-56901022D02*
X51221000Y-56901022D01*
X51270000Y-57141022D02*
G75*
G02*
X44730000Y-57141022I-3270000J0D01*
G01*
X44730000Y-57141022D02*
G75*
G02*
X51270000Y-57141022I3270000J0D01*
G01*
%TO.C,R5*%
X35177301Y-75350403D02*
X35177301Y-75804531D01*
X36647301Y-75350403D02*
X36647301Y-75804531D01*
%TO.C,U5*%
X47590000Y-73981022D02*
X47590000Y-75241022D01*
X47590000Y-80801022D02*
X47590000Y-79541022D01*
X51350000Y-73981022D02*
X47590000Y-73981022D01*
X51350000Y-80801022D02*
X47590000Y-80801022D01*
X52870000Y-81031022D02*
X52390000Y-81031022D01*
X52630000Y-80701022D01*
X52870000Y-81031022D01*
G36*
X52870000Y-81031022D02*
G01*
X52390000Y-81031022D01*
X52630000Y-80701022D01*
X52870000Y-81031022D01*
G37*
%TO.C,D5*%
X28893672Y-74654835D02*
X28893672Y-77514835D01*
X28893672Y-77514835D02*
X30813672Y-77514835D01*
X30813672Y-77514835D02*
X30813672Y-74654835D01*
%TO.C,JP1*%
X75890000Y-77001022D02*
X75890000Y-75891022D01*
X77000000Y-77001022D02*
X75890000Y-77001022D01*
X78000000Y-74781022D02*
X80110000Y-74781022D01*
X78000000Y-77001022D02*
X78000000Y-74781022D01*
X78000000Y-77001022D02*
X80110000Y-77001022D01*
X80110000Y-77001022D02*
X80110000Y-74781022D01*
%TO.C,J4*%
X64015000Y-78191022D02*
X94985000Y-78191022D01*
X64015000Y-87771022D02*
X64015000Y-78191022D01*
X84790000Y-77296684D02*
X85290000Y-77296684D01*
X85040000Y-77729697D02*
X84790000Y-77296684D01*
X85290000Y-77296684D02*
X85040000Y-77729697D01*
X94985000Y-78191022D02*
X94985000Y-87771022D01*
%TO.C,J2*%
X99120000Y-42571397D02*
X100500000Y-42571397D01*
X99120000Y-43951397D02*
X99120000Y-42571397D01*
X99120000Y-45221397D02*
X99120000Y-52951397D01*
X99120000Y-45221397D02*
X101880000Y-45221397D01*
X99120000Y-52951397D02*
X101880000Y-52951397D01*
X101880000Y-45221397D02*
X101880000Y-52951397D01*
%TO.C,U3*%
X83390000Y-43391022D02*
X83390000Y-38771022D01*
X86650000Y-43391022D02*
X86650000Y-42011022D01*
X90350000Y-43391022D02*
X90350000Y-42011022D01*
X93610000Y-38771022D02*
X83390000Y-38771022D01*
X93610000Y-42011022D02*
X83390000Y-42011022D01*
X93610000Y-43391022D02*
X83390000Y-43391022D01*
X93610000Y-43391022D02*
X93610000Y-38771022D01*
%TO.C,R3*%
X102772936Y-53656022D02*
X103227064Y-53656022D01*
X102772936Y-55126022D02*
X103227064Y-55126022D01*
%TO.C,U1*%
X52805000Y-57416022D02*
X52805000Y-55466022D01*
X52805000Y-57416022D02*
X52805000Y-59366022D01*
X57925000Y-57416022D02*
X57925000Y-55466022D01*
X57925000Y-57416022D02*
X57925000Y-59366022D01*
X52900000Y-60116022D02*
X52570000Y-60356022D01*
X52570000Y-59876022D01*
X52900000Y-60116022D01*
G36*
X52900000Y-60116022D02*
G01*
X52570000Y-60356022D01*
X52570000Y-59876022D01*
X52900000Y-60116022D01*
G37*
%TO.C,U6*%
X66240000Y-61081022D02*
X70860000Y-61081022D01*
X66240000Y-64341022D02*
X67620000Y-64341022D01*
X66240000Y-68041022D02*
X67620000Y-68041022D01*
X66240000Y-71301022D02*
X66240000Y-61081022D01*
X66240000Y-71301022D02*
X70860000Y-71301022D01*
X67620000Y-71301022D02*
X67620000Y-61081022D01*
X70860000Y-71301022D02*
X70860000Y-61081022D01*
%TO.C,R6*%
X51227064Y-71656022D02*
X50772936Y-71656022D01*
X51227064Y-73126022D02*
X50772936Y-73126022D01*
%TO.C,C2*%
X67420000Y-50056183D02*
X67420000Y-48858183D01*
X67460000Y-50319183D02*
X67460000Y-48595183D01*
X67500000Y-50519183D02*
X67500000Y-48395183D01*
X67540000Y-50687183D02*
X67540000Y-48227183D01*
X67580000Y-50834183D02*
X67580000Y-48080183D01*
X67620000Y-50966183D02*
X67620000Y-47948183D01*
X67660000Y-51087183D02*
X67660000Y-47827183D01*
X67700000Y-51199183D02*
X67700000Y-47715183D01*
X67740000Y-51303183D02*
X67740000Y-47611183D01*
X67780000Y-51401183D02*
X67780000Y-47513183D01*
X67820000Y-51494183D02*
X67820000Y-47420183D01*
X67860000Y-51581183D02*
X67860000Y-47333183D01*
X67900000Y-51665183D02*
X67900000Y-47249183D01*
X67940000Y-51745183D02*
X67940000Y-47169183D01*
X67980000Y-51822183D02*
X67980000Y-47092183D01*
X68020000Y-51896183D02*
X68020000Y-47018183D01*
X68060000Y-51967183D02*
X68060000Y-46947183D01*
X68100000Y-52035183D02*
X68100000Y-46879183D01*
X68140000Y-52101183D02*
X68140000Y-46813183D01*
X68180000Y-52165183D02*
X68180000Y-46749183D01*
X68220000Y-52227183D02*
X68220000Y-46687183D01*
X68260000Y-52287183D02*
X68260000Y-46627183D01*
X68300000Y-52345183D02*
X68300000Y-46569183D01*
X68340000Y-52402183D02*
X68340000Y-46512183D01*
X68380000Y-52457183D02*
X68380000Y-46457183D01*
X68420000Y-52510183D02*
X68420000Y-46404183D01*
X68460000Y-52562183D02*
X68460000Y-46352183D01*
X68500000Y-52613183D02*
X68500000Y-46301183D01*
X68540000Y-52662183D02*
X68540000Y-46252183D01*
X68580000Y-52711183D02*
X68580000Y-46203183D01*
X68620000Y-52758183D02*
X68620000Y-46156183D01*
X68660000Y-52804183D02*
X68660000Y-46110183D01*
X68700000Y-52848183D02*
X68700000Y-46066183D01*
X68740000Y-52892183D02*
X68740000Y-46022183D01*
X68780000Y-48217183D02*
X68780000Y-45979183D01*
X68780000Y-52935183D02*
X68780000Y-50697183D01*
X68820000Y-48217183D02*
X68820000Y-45937183D01*
X68820000Y-52977183D02*
X68820000Y-50697183D01*
X68860000Y-48217183D02*
X68860000Y-45896183D01*
X68860000Y-53018183D02*
X68860000Y-50697183D01*
X68900000Y-48217183D02*
X68900000Y-45856183D01*
X68900000Y-53058183D02*
X68900000Y-50697183D01*
X68940000Y-48217183D02*
X68940000Y-45817183D01*
X68940000Y-53097183D02*
X68940000Y-50697183D01*
X68980000Y-48217183D02*
X68980000Y-45779183D01*
X68980000Y-53135183D02*
X68980000Y-50697183D01*
X69020000Y-48217183D02*
X69020000Y-45741183D01*
X69020000Y-53173183D02*
X69020000Y-50697183D01*
X69060000Y-48217183D02*
X69060000Y-45705183D01*
X69060000Y-53209183D02*
X69060000Y-50697183D01*
X69100000Y-48217183D02*
X69100000Y-45669183D01*
X69100000Y-53245183D02*
X69100000Y-50697183D01*
X69140000Y-48217183D02*
X69140000Y-45634183D01*
X69140000Y-53280183D02*
X69140000Y-50697183D01*
X69180000Y-48217183D02*
X69180000Y-45599183D01*
X69180000Y-53315183D02*
X69180000Y-50697183D01*
X69220000Y-48217183D02*
X69220000Y-45566183D01*
X69220000Y-53348183D02*
X69220000Y-50697183D01*
X69260000Y-48217183D02*
X69260000Y-45533183D01*
X69260000Y-53381183D02*
X69260000Y-50697183D01*
X69300000Y-48217183D02*
X69300000Y-45500183D01*
X69300000Y-53414183D02*
X69300000Y-50697183D01*
X69340000Y-48217183D02*
X69340000Y-45469183D01*
X69340000Y-53445183D02*
X69340000Y-50697183D01*
X69380000Y-48217183D02*
X69380000Y-45437183D01*
X69380000Y-53477183D02*
X69380000Y-50697183D01*
X69420000Y-48217183D02*
X69420000Y-45407183D01*
X69420000Y-53507183D02*
X69420000Y-50697183D01*
X69460000Y-48217183D02*
X69460000Y-45377183D01*
X69460000Y-53537183D02*
X69460000Y-50697183D01*
X69500000Y-48217183D02*
X69500000Y-45348183D01*
X69500000Y-53566183D02*
X69500000Y-50697183D01*
X69540000Y-48217183D02*
X69540000Y-45319183D01*
X69540000Y-53595183D02*
X69540000Y-50697183D01*
X69580000Y-48217183D02*
X69580000Y-45291183D01*
X69580000Y-53623183D02*
X69580000Y-50697183D01*
X69620000Y-48217183D02*
X69620000Y-45264183D01*
X69620000Y-53650183D02*
X69620000Y-50697183D01*
X69660000Y-48217183D02*
X69660000Y-45237183D01*
X69660000Y-53677183D02*
X69660000Y-50697183D01*
X69700000Y-48217183D02*
X69700000Y-45210183D01*
X69700000Y-53704183D02*
X69700000Y-50697183D01*
X69740000Y-48217183D02*
X69740000Y-45185183D01*
X69740000Y-53729183D02*
X69740000Y-50697183D01*
X69780000Y-48217183D02*
X69780000Y-45159183D01*
X69780000Y-53755183D02*
X69780000Y-50697183D01*
X69820000Y-48217183D02*
X69820000Y-45134183D01*
X69820000Y-53780183D02*
X69820000Y-50697183D01*
X69860000Y-48217183D02*
X69860000Y-45110183D01*
X69860000Y-53804183D02*
X69860000Y-50697183D01*
X69900000Y-48217183D02*
X69900000Y-45086183D01*
X69900000Y-53828183D02*
X69900000Y-50697183D01*
X69940000Y-48217183D02*
X69940000Y-45063183D01*
X69940000Y-53851183D02*
X69940000Y-50697183D01*
X69980000Y-48217183D02*
X69980000Y-45040183D01*
X69980000Y-53874183D02*
X69980000Y-50697183D01*
X70020000Y-48217183D02*
X70020000Y-45018183D01*
X70020000Y-53896183D02*
X70020000Y-50697183D01*
X70060000Y-48217183D02*
X70060000Y-44996183D01*
X70060000Y-53918183D02*
X70060000Y-50697183D01*
X70100000Y-48217183D02*
X70100000Y-44974183D01*
X70100000Y-53940183D02*
X70100000Y-50697183D01*
X70140000Y-48217183D02*
X70140000Y-44953183D01*
X70140000Y-53961183D02*
X70140000Y-50697183D01*
X70180000Y-48217183D02*
X70180000Y-44933183D01*
X70180000Y-53981183D02*
X70180000Y-50697183D01*
X70220000Y-48217183D02*
X70220000Y-44913183D01*
X70220000Y-54001183D02*
X70220000Y-50697183D01*
X70260000Y-48217183D02*
X70260000Y-44893183D01*
X70260000Y-54021183D02*
X70260000Y-50697183D01*
X70300000Y-48217183D02*
X70300000Y-44874183D01*
X70300000Y-54040183D02*
X70300000Y-50697183D01*
X70340000Y-48217183D02*
X70340000Y-44855183D01*
X70340000Y-54059183D02*
X70340000Y-50697183D01*
X70380000Y-48217183D02*
X70380000Y-44837183D01*
X70380000Y-54077183D02*
X70380000Y-50697183D01*
X70420000Y-48217183D02*
X70420000Y-44819183D01*
X70420000Y-54095183D02*
X70420000Y-50697183D01*
X70460000Y-48217183D02*
X70460000Y-44801183D01*
X70460000Y-54113183D02*
X70460000Y-50697183D01*
X70500000Y-48217183D02*
X70500000Y-44784183D01*
X70500000Y-54130183D02*
X70500000Y-50697183D01*
X70540000Y-48217183D02*
X70540000Y-44767183D01*
X70540000Y-54147183D02*
X70540000Y-50697183D01*
X70580000Y-48217183D02*
X70580000Y-44751183D01*
X70580000Y-54163183D02*
X70580000Y-50697183D01*
X70620000Y-48217183D02*
X70620000Y-44735183D01*
X70620000Y-54179183D02*
X70620000Y-50697183D01*
X70660000Y-48217183D02*
X70660000Y-44719183D01*
X70660000Y-54195183D02*
X70660000Y-50697183D01*
X70700000Y-48217183D02*
X70700000Y-44704183D01*
X70700000Y-54210183D02*
X70700000Y-50697183D01*
X70740000Y-48217183D02*
X70740000Y-44689183D01*
X70740000Y-54225183D02*
X70740000Y-50697183D01*
X70780000Y-48217183D02*
X70780000Y-44675183D01*
X70780000Y-54239183D02*
X70780000Y-50697183D01*
X70820000Y-48217183D02*
X70820000Y-44660183D01*
X70820000Y-54254183D02*
X70820000Y-50697183D01*
X70860000Y-48217183D02*
X70860000Y-44647183D01*
X70860000Y-54267183D02*
X70860000Y-50697183D01*
X70900000Y-48217183D02*
X70900000Y-44633183D01*
X70900000Y-54281183D02*
X70900000Y-50697183D01*
X70940000Y-48217183D02*
X70940000Y-44620183D01*
X70940000Y-54294183D02*
X70940000Y-50697183D01*
X70980000Y-48217183D02*
X70980000Y-44608183D01*
X70980000Y-54306183D02*
X70980000Y-50697183D01*
X71020000Y-48217183D02*
X71020000Y-44596183D01*
X71020000Y-54318183D02*
X71020000Y-50697183D01*
X71060000Y-48217183D02*
X71060000Y-44584183D01*
X71060000Y-54330183D02*
X71060000Y-50697183D01*
X71100000Y-48217183D02*
X71100000Y-44572183D01*
X71100000Y-54342183D02*
X71100000Y-50697183D01*
X71140000Y-48217183D02*
X71140000Y-44561183D01*
X71140000Y-54353183D02*
X71140000Y-50697183D01*
X71180000Y-48217183D02*
X71180000Y-44550183D01*
X71180000Y-54364183D02*
X71180000Y-50697183D01*
X71220000Y-48217183D02*
X71220000Y-44540183D01*
X71220000Y-54374183D02*
X71220000Y-50697183D01*
X71260000Y-54385183D02*
X71260000Y-44529183D01*
X71300000Y-54394183D02*
X71300000Y-44520183D01*
X71340000Y-54404183D02*
X71340000Y-44510183D01*
X71380000Y-54413183D02*
X71380000Y-44501183D01*
X71420000Y-54422183D02*
X71420000Y-44492183D01*
X71460000Y-54430183D02*
X71460000Y-44484183D01*
X71500000Y-54438183D02*
X71500000Y-44476183D01*
X71540000Y-54446183D02*
X71540000Y-44468183D01*
X71580000Y-54454183D02*
X71580000Y-44460183D01*
X71620000Y-54461183D02*
X71620000Y-44453183D01*
X71660000Y-54468183D02*
X71660000Y-44446183D01*
X71700000Y-54474183D02*
X71700000Y-44440183D01*
X71740000Y-54480183D02*
X71740000Y-44434183D01*
X71780000Y-54486183D02*
X71780000Y-44428183D01*
X71820000Y-54492183D02*
X71820000Y-44422183D01*
X71860000Y-54497183D02*
X71860000Y-44417183D01*
X71900000Y-54502183D02*
X71900000Y-44412183D01*
X71940000Y-54506183D02*
X71940000Y-44408183D01*
X71980000Y-54511183D02*
X71980000Y-44403183D01*
X72020000Y-54514183D02*
X72020000Y-44400183D01*
X72060000Y-54518183D02*
X72060000Y-44396183D01*
X72100000Y-54521183D02*
X72100000Y-44393183D01*
X72140000Y-54524183D02*
X72140000Y-44390183D01*
X72180000Y-54527183D02*
X72180000Y-44387183D01*
X72220000Y-54529183D02*
X72220000Y-44385183D01*
X72260000Y-54531183D02*
X72260000Y-44383183D01*
X72300000Y-54533183D02*
X72300000Y-44381183D01*
X72340000Y-54534183D02*
X72340000Y-44380183D01*
X72380000Y-54536183D02*
X72380000Y-44378183D01*
X72420000Y-54536183D02*
X72420000Y-44378183D01*
X72460000Y-54537183D02*
X72460000Y-44377183D01*
X72500000Y-54537183D02*
X72500000Y-44377183D01*
X77479646Y-52832183D02*
X77479646Y-51832183D01*
X77979646Y-52332183D02*
X76979646Y-52332183D01*
X77620000Y-49457183D02*
G75*
G02*
X67380000Y-49457183I-5120000J0D01*
G01*
X67380000Y-49457183D02*
G75*
G02*
X77620000Y-49457183I5120000J0D01*
G01*
%TO.C,R7*%
X86227064Y-70656022D02*
X85772936Y-70656022D01*
X86227064Y-72126022D02*
X85772936Y-72126022D01*
%TO.C,R1*%
X59130000Y-53188958D02*
X59130000Y-53643086D01*
X60600000Y-53188958D02*
X60600000Y-53643086D01*
%TO.C,D1*%
X58905000Y-55581022D02*
X58905000Y-58441022D01*
X60825000Y-55581022D02*
X58905000Y-55581022D01*
X60825000Y-58441022D02*
X60825000Y-55581022D01*
%TO.C,JP2*%
X89390000Y-74781022D02*
X89390000Y-77001022D01*
X91500000Y-74781022D02*
X89390000Y-74781022D01*
X91500000Y-74781022D02*
X91500000Y-77001022D01*
X91500000Y-77001022D02*
X89390000Y-77001022D01*
X92500000Y-74781022D02*
X93610000Y-74781022D01*
X93610000Y-74781022D02*
X93610000Y-75891022D01*
%TO.C,D2*%
X105140000Y-53431022D02*
X105140000Y-55351022D01*
X105140000Y-55351022D02*
X108000000Y-55351022D01*
X108000000Y-53431022D02*
X105140000Y-53431022D01*
%TO.C,D6*%
X46000000Y-73351022D02*
X48860000Y-73351022D01*
X48860000Y-71431022D02*
X46000000Y-71431022D01*
X48860000Y-73351022D02*
X48860000Y-71431022D01*
%TO.C,C4*%
X45567380Y-66052022D02*
X46197380Y-66052022D01*
X45882380Y-65737022D02*
X45882380Y-66367022D01*
X49067621Y-64661022D02*
X49067621Y-71121022D01*
X49107621Y-64661022D02*
X49107621Y-71121022D01*
X49147621Y-64662022D02*
X49147621Y-71120022D01*
X49187621Y-64663022D02*
X49187621Y-71119022D01*
X49227621Y-64665022D02*
X49227621Y-71117022D01*
X49267621Y-64667022D02*
X49267621Y-71115022D01*
X49307621Y-64670022D02*
X49307621Y-66851022D01*
X49307621Y-68931022D02*
X49307621Y-71112022D01*
X49347621Y-64673022D02*
X49347621Y-66851022D01*
X49347621Y-68931022D02*
X49347621Y-71109022D01*
X49387621Y-64677022D02*
X49387621Y-66851022D01*
X49387621Y-68931022D02*
X49387621Y-71105022D01*
X49427621Y-64681022D02*
X49427621Y-66851022D01*
X49427621Y-68931022D02*
X49427621Y-71101022D01*
X49467621Y-64686022D02*
X49467621Y-66851022D01*
X49467621Y-68931022D02*
X49467621Y-71096022D01*
X49507621Y-64691022D02*
X49507621Y-66851022D01*
X49507621Y-68931022D02*
X49507621Y-71091022D01*
X49547621Y-64696022D02*
X49547621Y-66851022D01*
X49547621Y-68931022D02*
X49547621Y-71086022D01*
X49587621Y-64703022D02*
X49587621Y-66851022D01*
X49587621Y-68931022D02*
X49587621Y-71079022D01*
X49627621Y-64709022D02*
X49627621Y-66851022D01*
X49627621Y-68931022D02*
X49627621Y-71073022D01*
X49667621Y-64717022D02*
X49667621Y-66851022D01*
X49667621Y-68931022D02*
X49667621Y-71065022D01*
X49707621Y-64724022D02*
X49707621Y-66851022D01*
X49707621Y-68931022D02*
X49707621Y-71058022D01*
X49747621Y-64732022D02*
X49747621Y-66851022D01*
X49747621Y-68931022D02*
X49747621Y-71050022D01*
X49787621Y-64741022D02*
X49787621Y-66851022D01*
X49787621Y-68931022D02*
X49787621Y-71041022D01*
X49827621Y-64751022D02*
X49827621Y-66851022D01*
X49827621Y-68931022D02*
X49827621Y-71031022D01*
X49867621Y-64760022D02*
X49867621Y-66851022D01*
X49867621Y-68931022D02*
X49867621Y-71022022D01*
X49907621Y-64771022D02*
X49907621Y-66851022D01*
X49907621Y-68931022D02*
X49907621Y-71011022D01*
X49947621Y-64782022D02*
X49947621Y-66851022D01*
X49947621Y-68931022D02*
X49947621Y-71000022D01*
X49987621Y-64793022D02*
X49987621Y-66851022D01*
X49987621Y-68931022D02*
X49987621Y-70989022D01*
X50027621Y-64805022D02*
X50027621Y-66851022D01*
X50027621Y-68931022D02*
X50027621Y-70977022D01*
X50067621Y-64818022D02*
X50067621Y-66851022D01*
X50067621Y-68931022D02*
X50067621Y-70964022D01*
X50107621Y-64831022D02*
X50107621Y-66851022D01*
X50107621Y-68931022D02*
X50107621Y-70951022D01*
X50147621Y-64844022D02*
X50147621Y-66851022D01*
X50147621Y-68931022D02*
X50147621Y-70938022D01*
X50187621Y-64859022D02*
X50187621Y-66851022D01*
X50187621Y-68931022D02*
X50187621Y-70923022D01*
X50227621Y-64874022D02*
X50227621Y-66851022D01*
X50227621Y-68931022D02*
X50227621Y-70908022D01*
X50267621Y-64889022D02*
X50267621Y-66851022D01*
X50267621Y-68931022D02*
X50267621Y-70893022D01*
X50307621Y-64905022D02*
X50307621Y-66851022D01*
X50307621Y-68931022D02*
X50307621Y-70877022D01*
X50347621Y-64922022D02*
X50347621Y-66851022D01*
X50347621Y-68931022D02*
X50347621Y-70860022D01*
X50387621Y-64939022D02*
X50387621Y-66851022D01*
X50387621Y-68931022D02*
X50387621Y-70843022D01*
X50427621Y-64957022D02*
X50427621Y-66851022D01*
X50427621Y-68931022D02*
X50427621Y-70825022D01*
X50467621Y-64976022D02*
X50467621Y-66851022D01*
X50467621Y-68931022D02*
X50467621Y-70806022D01*
X50507621Y-64995022D02*
X50507621Y-66851022D01*
X50507621Y-68931022D02*
X50507621Y-70787022D01*
X50547621Y-65015022D02*
X50547621Y-66851022D01*
X50547621Y-68931022D02*
X50547621Y-70767022D01*
X50587621Y-65036022D02*
X50587621Y-66851022D01*
X50587621Y-68931022D02*
X50587621Y-70746022D01*
X50627621Y-65057022D02*
X50627621Y-66851022D01*
X50627621Y-68931022D02*
X50627621Y-70725022D01*
X50667621Y-65079022D02*
X50667621Y-66851022D01*
X50667621Y-68931022D02*
X50667621Y-70703022D01*
X50707621Y-65102022D02*
X50707621Y-66851022D01*
X50707621Y-68931022D02*
X50707621Y-70680022D01*
X50747621Y-65126022D02*
X50747621Y-66851022D01*
X50747621Y-68931022D02*
X50747621Y-70656022D01*
X50787621Y-65150022D02*
X50787621Y-66851022D01*
X50787621Y-68931022D02*
X50787621Y-70632022D01*
X50827621Y-65175022D02*
X50827621Y-66851022D01*
X50827621Y-68931022D02*
X50827621Y-70607022D01*
X50867621Y-65201022D02*
X50867621Y-66851022D01*
X50867621Y-68931022D02*
X50867621Y-70581022D01*
X50907621Y-65228022D02*
X50907621Y-66851022D01*
X50907621Y-68931022D02*
X50907621Y-70554022D01*
X50947621Y-65255022D02*
X50947621Y-66851022D01*
X50947621Y-68931022D02*
X50947621Y-70527022D01*
X50987621Y-65284022D02*
X50987621Y-66851022D01*
X50987621Y-68931022D02*
X50987621Y-70498022D01*
X51027621Y-65314022D02*
X51027621Y-66851022D01*
X51027621Y-68931022D02*
X51027621Y-70468022D01*
X51067621Y-65344022D02*
X51067621Y-66851022D01*
X51067621Y-68931022D02*
X51067621Y-70438022D01*
X51107621Y-65375022D02*
X51107621Y-66851022D01*
X51107621Y-68931022D02*
X51107621Y-70407022D01*
X51147621Y-65408022D02*
X51147621Y-66851022D01*
X51147621Y-68931022D02*
X51147621Y-70374022D01*
X51187621Y-65441022D02*
X51187621Y-66851022D01*
X51187621Y-68931022D02*
X51187621Y-70341022D01*
X51227621Y-65476022D02*
X51227621Y-66851022D01*
X51227621Y-68931022D02*
X51227621Y-70306022D01*
X51267621Y-65512022D02*
X51267621Y-66851022D01*
X51267621Y-68931022D02*
X51267621Y-70270022D01*
X51307621Y-65549022D02*
X51307621Y-66851022D01*
X51307621Y-68931022D02*
X51307621Y-70233022D01*
X51347621Y-65587022D02*
X51347621Y-66851022D01*
X51347621Y-68931022D02*
X51347621Y-70195022D01*
X51387621Y-65627022D02*
X51387621Y-70155022D01*
X51427621Y-65668022D02*
X51427621Y-70114022D01*
X51467621Y-65710022D02*
X51467621Y-70072022D01*
X51507621Y-65754022D02*
X51507621Y-70028022D01*
X51547621Y-65800022D02*
X51547621Y-69982022D01*
X51587621Y-65847022D02*
X51587621Y-69935022D01*
X51627621Y-65896022D02*
X51627621Y-69886022D01*
X51667621Y-65948022D02*
X51667621Y-69834022D01*
X51707621Y-66001022D02*
X51707621Y-69781022D01*
X51747621Y-66057022D02*
X51747621Y-69725022D01*
X51787621Y-66116022D02*
X51787621Y-69666022D01*
X51827621Y-66177022D02*
X51827621Y-69605022D01*
X51867621Y-66242022D02*
X51867621Y-69540022D01*
X51907621Y-66310022D02*
X51907621Y-69472022D01*
X51947621Y-66382022D02*
X51947621Y-69400022D01*
X51987621Y-66459022D02*
X51987621Y-69323022D01*
X52027621Y-66541022D02*
X52027621Y-69241022D01*
X52067621Y-66630022D02*
X52067621Y-69152022D01*
X52107621Y-66726022D02*
X52107621Y-69056022D01*
X52147621Y-66833022D02*
X52147621Y-68949022D01*
X52187621Y-66952022D02*
X52187621Y-68830022D01*
X52227621Y-67090022D02*
X52227621Y-68692022D01*
X52267621Y-67258022D02*
X52267621Y-68524022D01*
X52307621Y-67489022D02*
X52307621Y-68293022D01*
X52337621Y-67891022D02*
G75*
G02*
X45797621Y-67891022I-3270000J0D01*
G01*
X45797621Y-67891022D02*
G75*
G02*
X52337621Y-67891022I3270000J0D01*
G01*
%TO.C,R2*%
X109765000Y-40118086D02*
X109765000Y-39663958D01*
X111235000Y-40118086D02*
X111235000Y-39663958D01*
%TO.C,D4*%
X98040000Y-56506022D02*
X98040000Y-59366022D01*
X99960000Y-56506022D02*
X98040000Y-56506022D01*
X99960000Y-59366022D02*
X99960000Y-56506022D01*
%TO.C,SW1*%
X28668344Y-77701524D02*
X42638344Y-77701524D01*
X28668344Y-86591524D02*
X28668344Y-77701524D01*
X32478344Y-82146524D02*
X33748344Y-78971524D01*
X33748344Y-78971524D02*
X37558344Y-78971524D01*
X33748344Y-85321524D02*
X32478344Y-82146524D01*
X37558344Y-78971524D02*
X38828344Y-82146524D01*
X37558344Y-85321524D02*
X33748344Y-85321524D01*
X38828344Y-82146524D02*
X37558344Y-85321524D01*
X42638344Y-77701524D02*
X42638344Y-86591524D01*
X42638344Y-86591524D02*
X28668344Y-86591524D01*
X39355998Y-82146524D02*
G75*
G02*
X31950690Y-82146524I-3702654J0D01*
G01*
X31950690Y-82146524D02*
G75*
G02*
X39355998Y-82146524I3702654J0D01*
G01*
%TO.C,U4*%
X92140000Y-55481022D02*
X92140000Y-65701022D01*
X95380000Y-55481022D02*
X95380000Y-65701022D01*
X96760000Y-55481022D02*
X92140000Y-55481022D01*
X96760000Y-55481022D02*
X96760000Y-65701022D01*
X96760000Y-58741022D02*
X95380000Y-58741022D01*
X96760000Y-62441022D02*
X95380000Y-62441022D01*
X96760000Y-65701022D02*
X92140000Y-65701022D01*
%TO.C,PWR_IN1*%
X28890000Y-62531022D02*
X31950000Y-62531022D01*
X28890000Y-72751022D02*
X28890000Y-62531022D01*
X31950000Y-72751022D02*
X28890000Y-72751022D01*
X36050000Y-62531022D02*
X42110000Y-62531022D01*
X42110000Y-62531022D02*
X42110000Y-65341022D01*
X42110000Y-69941022D02*
X42110000Y-72751022D01*
X42110000Y-72751022D02*
X36050000Y-72751022D01*
X42300000Y-66641022D02*
X42300000Y-68641022D01*
%TO.C,R4*%
X99227064Y-53656022D02*
X98772936Y-53656022D01*
X99227064Y-55126022D02*
X98772936Y-55126022D01*
%TO.C,U2*%
X67522323Y-43267183D02*
X67522323Y-38647183D01*
X70782323Y-43267183D02*
X70782323Y-41887183D01*
X74482323Y-43267183D02*
X74482323Y-41887183D01*
X77742323Y-38647183D02*
X67522323Y-38647183D01*
X77742323Y-41887183D02*
X67522323Y-41887183D01*
X77742323Y-43267183D02*
X67522323Y-43267183D01*
X77742323Y-43267183D02*
X77742323Y-38647183D01*
%TO.C,J1*%
X102983427Y-42549357D02*
X104363427Y-42549357D01*
X102983427Y-43929357D02*
X102983427Y-42549357D01*
X103000000Y-45201022D02*
X103000000Y-52931022D01*
X103000000Y-45201022D02*
X111110000Y-45201022D01*
X103000000Y-52931022D02*
X111110000Y-52931022D01*
X111110000Y-45201022D02*
X111110000Y-52931022D01*
%TD*%
M02*
