%TF.GenerationSoftware,KiCad,Pcbnew,9.0.2*%
%TF.CreationDate,2025-06-26T14:56:16+08:00*%
%TF.ProjectId,deehli_board,64656568-6c69-45f6-926f-6172642e6b69,rev?*%
%TF.SameCoordinates,Original*%
%TF.FileFunction,Copper,L1,Top*%
%TF.FilePolarity,Positive*%
%FSLAX46Y46*%
G04 Gerber Fmt 4.6, Leading zero omitted, Abs format (unit mm)*
G04 Created by KiCad (PCBNEW 9.0.2) date 2025-06-26 14:56:16*
%MOMM*%
%LPD*%
G01*
G04 APERTURE LIST*
G04 Aperture macros list*
%AMRoundRect*
0 Rectangle with rounded corners*
0 $1 Rounding radius*
0 $2 $3 $4 $5 $6 $7 $8 $9 X,Y pos of 4 corners*
0 Add a 4 corners polygon primitive as box body*
4,1,4,$2,$3,$4,$5,$6,$7,$8,$9,$2,$3,0*
0 Add four circle primitives for the rounded corners*
1,1,$1+$1,$2,$3*
1,1,$1+$1,$4,$5*
1,1,$1+$1,$6,$7*
1,1,$1+$1,$8,$9*
0 Add four rect primitives between the rounded corners*
20,1,$1+$1,$2,$3,$4,$5,0*
20,1,$1+$1,$4,$5,$6,$7,0*
20,1,$1+$1,$6,$7,$8,$9,0*
20,1,$1+$1,$8,$9,$2,$3,0*%
G04 Aperture macros list end*
%ADD10C,0.300000*%
%TA.AperFunction,NonConductor*%
%ADD11C,0.300000*%
%TD*%
%TA.AperFunction,NonConductor*%
%ADD12C,0.200000*%
%TD*%
%TA.AperFunction,SMDPad,CuDef*%
%ADD13RoundRect,0.250000X0.325000X0.450000X-0.325000X0.450000X-0.325000X-0.450000X0.325000X-0.450000X0*%
%TD*%
%TA.AperFunction,ComponentPad*%
%ADD14RoundRect,0.250001X1.149999X-1.149999X1.149999X1.149999X-1.149999X1.149999X-1.149999X-1.149999X0*%
%TD*%
%TA.AperFunction,ComponentPad*%
%ADD15C,2.800000*%
%TD*%
%TA.AperFunction,ComponentPad*%
%ADD16R,1.700000X1.700000*%
%TD*%
%TA.AperFunction,ComponentPad*%
%ADD17C,1.700000*%
%TD*%
%TA.AperFunction,ComponentPad*%
%ADD18RoundRect,0.250000X-0.750000X-0.750000X0.750000X-0.750000X0.750000X0.750000X-0.750000X0.750000X0*%
%TD*%
%TA.AperFunction,ComponentPad*%
%ADD19C,2.000000*%
%TD*%
%TA.AperFunction,ComponentPad*%
%ADD20RoundRect,0.250001X-1.149999X-1.149999X1.149999X-1.149999X1.149999X1.149999X-1.149999X1.149999X0*%
%TD*%
%TA.AperFunction,ComponentPad*%
%ADD21RoundRect,0.250000X-0.550000X0.550000X-0.550000X-0.550000X0.550000X-0.550000X0.550000X0.550000X0*%
%TD*%
%TA.AperFunction,ComponentPad*%
%ADD22C,1.600000*%
%TD*%
%TA.AperFunction,ComponentPad*%
%ADD23RoundRect,0.250000X0.750000X0.750000X-0.750000X0.750000X-0.750000X-0.750000X0.750000X-0.750000X0*%
%TD*%
%TA.AperFunction,SMDPad,CuDef*%
%ADD24RoundRect,0.250000X-0.350000X-0.450000X0.350000X-0.450000X0.350000X0.450000X-0.350000X0.450000X0*%
%TD*%
%TA.AperFunction,ComponentPad*%
%ADD25RoundRect,0.250000X0.550000X-0.550000X0.550000X0.550000X-0.550000X0.550000X-0.550000X-0.550000X0*%
%TD*%
%TA.AperFunction,SMDPad,CuDef*%
%ADD26RoundRect,0.250000X-0.450000X0.350000X-0.450000X-0.350000X0.450000X-0.350000X0.450000X0.350000X0*%
%TD*%
%TA.AperFunction,SMDPad,CuDef*%
%ADD27RoundRect,0.375000X0.625000X0.375000X-0.625000X0.375000X-0.625000X-0.375000X0.625000X-0.375000X0*%
%TD*%
%TA.AperFunction,SMDPad,CuDef*%
%ADD28RoundRect,0.500000X0.500000X1.400000X-0.500000X1.400000X-0.500000X-1.400000X0.500000X-1.400000X0*%
%TD*%
%TA.AperFunction,SMDPad,CuDef*%
%ADD29RoundRect,0.250000X0.450000X-0.325000X0.450000X0.325000X-0.450000X0.325000X-0.450000X-0.325000X0*%
%TD*%
%TA.AperFunction,ComponentPad*%
%ADD30R,1.350000X1.350000*%
%TD*%
%TA.AperFunction,ComponentPad*%
%ADD31C,1.350000*%
%TD*%
%TA.AperFunction,ComponentPad*%
%ADD32C,4.000000*%
%TD*%
%TA.AperFunction,ComponentPad*%
%ADD33R,1.600000X1.600000*%
%TD*%
%TA.AperFunction,ComponentPad*%
%ADD34R,1.275000X1.800000*%
%TD*%
%TA.AperFunction,ComponentPad*%
%ADD35O,1.275000X1.800000*%
%TD*%
%TA.AperFunction,SMDPad,CuDef*%
%ADD36RoundRect,0.150000X0.150000X-0.825000X0.150000X0.825000X-0.150000X0.825000X-0.150000X-0.825000X0*%
%TD*%
%TA.AperFunction,ComponentPad*%
%ADD37R,1.800000X1.275000*%
%TD*%
%TA.AperFunction,ComponentPad*%
%ADD38O,1.800000X1.275000*%
%TD*%
%TA.AperFunction,SMDPad,CuDef*%
%ADD39RoundRect,0.250000X0.350000X0.450000X-0.350000X0.450000X-0.350000X-0.450000X0.350000X-0.450000X0*%
%TD*%
%TA.AperFunction,SMDPad,CuDef*%
%ADD40RoundRect,0.250000X-0.450000X0.325000X-0.450000X-0.325000X0.450000X-0.325000X0.450000X0.325000X0*%
%TD*%
%TA.AperFunction,SMDPad,CuDef*%
%ADD41RoundRect,0.250000X-0.325000X-0.450000X0.325000X-0.450000X0.325000X0.450000X-0.325000X0.450000X0*%
%TD*%
%TA.AperFunction,ComponentPad*%
%ADD42RoundRect,0.250000X-0.550000X-0.550000X0.550000X-0.550000X0.550000X0.550000X-0.550000X0.550000X0*%
%TD*%
%TA.AperFunction,SMDPad,CuDef*%
%ADD43RoundRect,0.250000X0.450000X-0.350000X0.450000X0.350000X-0.450000X0.350000X-0.450000X-0.350000X0*%
%TD*%
%TA.AperFunction,ComponentPad*%
%ADD44O,3.200000X5.000000*%
%TD*%
%TA.AperFunction,ComponentPad*%
%ADD45R,2.000000X4.000000*%
%TD*%
%TA.AperFunction,ComponentPad*%
%ADD46O,2.000000X3.300000*%
%TD*%
%TA.AperFunction,ComponentPad*%
%ADD47O,3.500000X2.000000*%
%TD*%
%TA.AperFunction,ComponentPad*%
%ADD48RoundRect,0.250000X-0.750000X0.750000X-0.750000X-0.750000X0.750000X-0.750000X0.750000X0.750000X0*%
%TD*%
%TA.AperFunction,ComponentPad*%
%ADD49RoundRect,0.250000X1.350000X-1.350000X1.350000X1.350000X-1.350000X1.350000X-1.350000X-1.350000X0*%
%TD*%
%TA.AperFunction,ComponentPad*%
%ADD50C,3.200000*%
%TD*%
%TA.AperFunction,ComponentPad*%
%ADD51RoundRect,0.250000X1.350000X1.350000X-1.350000X1.350000X-1.350000X-1.350000X1.350000X-1.350000X0*%
%TD*%
%TA.AperFunction,ComponentPad*%
%ADD52RoundRect,0.250000X-1.350000X-1.350000X1.350000X-1.350000X1.350000X1.350000X-1.350000X1.350000X0*%
%TD*%
%TA.AperFunction,ViaPad*%
%ADD53C,2.000000*%
%TD*%
%TA.AperFunction,Conductor*%
%ADD54C,1.500000*%
%TD*%
%TA.AperFunction,Conductor*%
%ADD55C,3.000000*%
%TD*%
%TA.AperFunction,Conductor*%
%ADD56C,2.000000*%
%TD*%
%TA.AperFunction,Conductor*%
%ADD57C,1.000000*%
%TD*%
%TA.AperFunction,Conductor*%
%ADD58C,5.000000*%
%TD*%
G04 APERTURE END LIST*
D10*
D11*
X69142857Y-23521185D02*
X69000000Y-23449757D01*
X69000000Y-23449757D02*
X68928571Y-23378328D01*
X68928571Y-23378328D02*
X68857143Y-23235471D01*
X68857143Y-23235471D02*
X68857143Y-23164042D01*
X68857143Y-23164042D02*
X68928571Y-23021185D01*
X68928571Y-23021185D02*
X69000000Y-22949757D01*
X69000000Y-22949757D02*
X69142857Y-22878328D01*
X69142857Y-22878328D02*
X69428571Y-22878328D01*
X69428571Y-22878328D02*
X69571429Y-22949757D01*
X69571429Y-22949757D02*
X69642857Y-23021185D01*
X69642857Y-23021185D02*
X69714286Y-23164042D01*
X69714286Y-23164042D02*
X69714286Y-23235471D01*
X69714286Y-23235471D02*
X69642857Y-23378328D01*
X69642857Y-23378328D02*
X69571429Y-23449757D01*
X69571429Y-23449757D02*
X69428571Y-23521185D01*
X69428571Y-23521185D02*
X69142857Y-23521185D01*
X69142857Y-23521185D02*
X69000000Y-23592614D01*
X69000000Y-23592614D02*
X68928571Y-23664042D01*
X68928571Y-23664042D02*
X68857143Y-23806900D01*
X68857143Y-23806900D02*
X68857143Y-24092614D01*
X68857143Y-24092614D02*
X68928571Y-24235471D01*
X68928571Y-24235471D02*
X69000000Y-24306900D01*
X69000000Y-24306900D02*
X69142857Y-24378328D01*
X69142857Y-24378328D02*
X69428571Y-24378328D01*
X69428571Y-24378328D02*
X69571429Y-24306900D01*
X69571429Y-24306900D02*
X69642857Y-24235471D01*
X69642857Y-24235471D02*
X69714286Y-24092614D01*
X69714286Y-24092614D02*
X69714286Y-23806900D01*
X69714286Y-23806900D02*
X69642857Y-23664042D01*
X69642857Y-23664042D02*
X69571429Y-23592614D01*
X69571429Y-23592614D02*
X69428571Y-23521185D01*
X71000000Y-23378328D02*
X71000000Y-24378328D01*
X70642857Y-22806900D02*
X70285714Y-23878328D01*
X70285714Y-23878328D02*
X71214285Y-23878328D01*
D12*
X112000000Y-43190000D02*
X112000000Y-24913580D01*
X28000000Y-24913580D02*
X28000000Y-43190000D01*
X112000000Y-25500000D02*
X28000000Y-25500000D01*
X112000000Y-25500000D02*
X110873496Y-26086421D01*
X112000000Y-25500000D02*
X110873496Y-24913579D01*
X28000000Y-25500000D02*
X29126504Y-24913579D01*
X28000000Y-25500000D02*
X29126504Y-26086421D01*
D10*
D11*
X113878328Y-39105307D02*
X113878328Y-39391021D01*
X113878328Y-39391021D02*
X113949757Y-39533878D01*
X113949757Y-39533878D02*
X114021185Y-39605307D01*
X114021185Y-39605307D02*
X114235471Y-39748164D01*
X114235471Y-39748164D02*
X114521185Y-39819592D01*
X114521185Y-39819592D02*
X115092614Y-39819592D01*
X115092614Y-39819592D02*
X115235471Y-39748164D01*
X115235471Y-39748164D02*
X115306900Y-39676735D01*
X115306900Y-39676735D02*
X115378328Y-39533878D01*
X115378328Y-39533878D02*
X115378328Y-39248164D01*
X115378328Y-39248164D02*
X115306900Y-39105307D01*
X115306900Y-39105307D02*
X115235471Y-39033878D01*
X115235471Y-39033878D02*
X115092614Y-38962449D01*
X115092614Y-38962449D02*
X114735471Y-38962449D01*
X114735471Y-38962449D02*
X114592614Y-39033878D01*
X114592614Y-39033878D02*
X114521185Y-39105307D01*
X114521185Y-39105307D02*
X114449757Y-39248164D01*
X114449757Y-39248164D02*
X114449757Y-39533878D01*
X114449757Y-39533878D02*
X114521185Y-39676735D01*
X114521185Y-39676735D02*
X114592614Y-39748164D01*
X114592614Y-39748164D02*
X114735471Y-39819592D01*
D12*
X112500000Y-36391022D02*
X117086420Y-36391022D01*
X117086420Y-42391022D02*
X113500000Y-42391022D01*
X116500000Y-36391022D02*
X116500000Y-42391022D01*
X116500000Y-36391022D02*
X117086421Y-37517526D01*
X116500000Y-36391022D02*
X115913579Y-37517526D01*
X116500000Y-42391022D02*
X115913579Y-41264518D01*
X116500000Y-42391022D02*
X117086421Y-41264518D01*
D10*
D11*
X13878328Y-62248164D02*
X13878328Y-62962450D01*
X13878328Y-62962450D02*
X14592614Y-63033878D01*
X14592614Y-63033878D02*
X14521185Y-62962450D01*
X14521185Y-62962450D02*
X14449757Y-62819593D01*
X14449757Y-62819593D02*
X14449757Y-62462450D01*
X14449757Y-62462450D02*
X14521185Y-62319593D01*
X14521185Y-62319593D02*
X14592614Y-62248164D01*
X14592614Y-62248164D02*
X14735471Y-62176735D01*
X14735471Y-62176735D02*
X15092614Y-62176735D01*
X15092614Y-62176735D02*
X15235471Y-62248164D01*
X15235471Y-62248164D02*
X15306900Y-62319593D01*
X15306900Y-62319593D02*
X15378328Y-62462450D01*
X15378328Y-62462450D02*
X15378328Y-62819593D01*
X15378328Y-62819593D02*
X15306900Y-62962450D01*
X15306900Y-62962450D02*
X15235471Y-63033878D01*
X15378328Y-60748164D02*
X15378328Y-61605307D01*
X15378328Y-61176736D02*
X13878328Y-61176736D01*
X13878328Y-61176736D02*
X14092614Y-61319593D01*
X14092614Y-61319593D02*
X14235471Y-61462450D01*
X14235471Y-61462450D02*
X14306900Y-61605307D01*
D12*
X27500000Y-36391022D02*
X15913580Y-36391022D01*
X15913580Y-87391022D02*
X27500000Y-87391022D01*
X16500000Y-36391022D02*
X16500000Y-87391022D01*
X16500000Y-36391022D02*
X17086421Y-37517526D01*
X16500000Y-36391022D02*
X15913579Y-37517526D01*
X16500000Y-87391022D02*
X15913579Y-86264518D01*
X16500000Y-87391022D02*
X17086421Y-86264518D01*
D13*
%TO.P,D7,1,K*%
%TO.N,Net-(D7-K)*%
X79525000Y-71391022D03*
%TO.P,D7,2,A*%
%TO.N,15V_ZDT*%
X77475000Y-71391022D03*
%TD*%
D14*
%TO.P,J6,1,Pin_1*%
%TO.N,CAN_L*%
X107500000Y-73891022D03*
D15*
%TO.P,J6,2,Pin_2*%
%TO.N,CAN_H*%
X107500000Y-68891022D03*
%TO.P,J6,3,Pin_3*%
%TO.N,GND*%
X107500000Y-63891022D03*
%TO.P,J6,4,Pin_4*%
%TO.N,15V_Other*%
X107500000Y-58891022D03*
%TD*%
D16*
%TO.P,PWR_IN2,1,Pin_1*%
%TO.N,Net-(PWR_IN2-Pin_1)*%
X45021584Y-83891022D03*
D17*
%TO.P,PWR_IN2,2,Pin_2*%
%TO.N,GND*%
X47561584Y-83891022D03*
%TD*%
D18*
%TO.P,C6,1*%
%TO.N,15V_ZDT*%
X79632323Y-64891022D03*
D19*
%TO.P,C6,2*%
%TO.N,GND*%
X84632323Y-64891022D03*
%TD*%
D20*
%TO.P,J5,1,Pin_1*%
%TO.N,GND*%
X99000000Y-82391022D03*
D15*
%TO.P,J5,2,Pin_2*%
%TO.N,CAN_H*%
X104000000Y-82391022D03*
%TO.P,J5,3,Pin_3*%
%TO.N,CAN_L*%
X109000000Y-82391022D03*
%TD*%
D21*
%TO.P,C5,1*%
%TO.N,5V_Other*%
X62000000Y-62208643D03*
D22*
%TO.P,C5,2*%
%TO.N,Net-(D12-K)*%
X62000000Y-64708643D03*
%TD*%
D23*
%TO.P,C3,1*%
%TO.N,5V_Servo12*%
X90867677Y-49581022D03*
D19*
%TO.P,C3,2*%
%TO.N,GND*%
X85867677Y-49581022D03*
%TD*%
D13*
%TO.P,D3,1,K*%
%TO.N,Net-(D3-K)*%
X108025000Y-40891021D03*
%TO.P,D3,2,A*%
%TO.N,5V_Servo12*%
X105975000Y-40891021D03*
%TD*%
D16*
%TO.P,J3,1,Pin_1*%
%TO.N,15V_Other*%
X61540000Y-83891022D03*
D17*
%TO.P,J3,2,Pin_2*%
%TO.N,5V_Other*%
X59000000Y-83891022D03*
%TO.P,J3,3,Pin_3*%
%TO.N,3.3V_Other*%
X56460000Y-83891022D03*
%TO.P,J3,4,Pin_4*%
%TO.N,GND*%
X53920000Y-83891022D03*
%TD*%
D24*
%TO.P,R8,1*%
%TO.N,Net-(JP2-A)*%
X96000000Y-76391022D03*
%TO.P,R8,2*%
%TO.N,CAN_H*%
X98000000Y-76391022D03*
%TD*%
D25*
%TO.P,C1,1*%
%TO.N,Net-(SW1A-B)*%
X48000000Y-58391022D03*
D22*
%TO.P,C1,2*%
%TO.N,GND*%
X48000000Y-55891022D03*
%TD*%
D26*
%TO.P,R5,1*%
%TO.N,Net-(D5-A)*%
X35912301Y-74577467D03*
%TO.P,R5,2*%
%TO.N,Net-(SW1A-B)*%
X35912301Y-76577467D03*
%TD*%
D27*
%TO.P,U5,1,GND*%
%TO.N,GND*%
X52650000Y-79691022D03*
%TO.P,U5,2,VO*%
%TO.N,3.3V_Other*%
X52650000Y-77391022D03*
D28*
X46350000Y-77391022D03*
D27*
%TO.P,U5,3,VI*%
%TO.N,5V_Other*%
X52650000Y-75091022D03*
%TD*%
D29*
%TO.P,D5,1,K*%
%TO.N,GND*%
X29853672Y-76679835D03*
%TO.P,D5,2,A*%
%TO.N,Net-(D5-A)*%
X29853672Y-74629835D03*
%TD*%
D30*
%TO.P,JP1,1,A*%
%TO.N,unconnected-(JP1-A-Pad1)*%
X77000000Y-75891022D03*
D31*
%TO.P,JP1,2,B*%
%TO.N,unconnected-(JP1-B-Pad2)*%
X79000000Y-75891022D03*
%TD*%
D32*
%TO.P,J4,0,PAD*%
%TO.N,GND*%
X67000000Y-82891022D03*
X92000000Y-82891022D03*
D33*
%TO.P,J4,1,1*%
%TO.N,unconnected-(J4-Pad1)*%
X85040000Y-80051022D03*
D22*
%TO.P,J4,2,2*%
%TO.N,CAN_L*%
X82270000Y-80051022D03*
%TO.P,J4,3,3*%
%TO.N,CAN_H*%
X79500000Y-80051022D03*
%TO.P,J4,4,4*%
%TO.N,unconnected-(J4-Pad4)*%
X76730000Y-80051022D03*
%TO.P,J4,5,5*%
%TO.N,unconnected-(J4-Pad5)*%
X73960000Y-80051022D03*
%TO.P,J4,6,6*%
%TO.N,GND*%
X83655000Y-82891022D03*
%TO.P,J4,7,7*%
%TO.N,3.3V_Other*%
X80885000Y-82891022D03*
%TO.P,J4,8,8*%
%TO.N,5V_Other*%
X78115000Y-82891022D03*
%TO.P,J4,9,9*%
%TO.N,15V_ZDT*%
X75345000Y-82891022D03*
%TD*%
D16*
%TO.P,J2,1,Pin_1*%
%TO.N,Net-(J1-Pin_1)*%
X100500000Y-43951397D03*
D17*
%TO.P,J2,2,Pin_2*%
%TO.N,Net-(J1-Pin_2)*%
X100500000Y-46491397D03*
%TO.P,J2,3,Pin_3*%
%TO.N,Net-(J1-Pin_3)*%
X100500000Y-49031397D03*
%TO.P,J2,4,Pin_4*%
%TO.N,Net-(J1-Pin_4)*%
X100500000Y-51571397D03*
%TD*%
D34*
%TO.P,U3,1,VIN*%
%TO.N,Net-(SW1A-B)*%
X91900000Y-40131022D03*
D35*
%TO.P,U3,2,OUT*%
%TO.N,5V_Servo12*%
X90200000Y-40131022D03*
%TO.P,U3,3,GND*%
%TO.N,GND*%
X88500000Y-40131022D03*
%TO.P,U3,4,FB*%
%TO.N,5V_Servo12*%
X86800000Y-40131022D03*
%TO.P,U3,5,~{ON}/OFF*%
%TO.N,GND*%
X85100000Y-40131022D03*
%TD*%
D24*
%TO.P,R3,1*%
%TO.N,GND*%
X102000000Y-54391022D03*
%TO.P,R3,2*%
%TO.N,Net-(D2-K)*%
X104000000Y-54391022D03*
%TD*%
D36*
%TO.P,U1,1,VCC*%
%TO.N,15V_Other*%
X53460000Y-59891022D03*
%TO.P,U1,2,SW*%
%TO.N,Net-(D12-K)*%
X54730000Y-59891022D03*
%TO.P,U1,3,FB*%
%TO.N,5V_Other*%
X56000000Y-59891022D03*
%TO.P,U1,4,~{EN}*%
%TO.N,GND*%
X57270000Y-59891022D03*
%TO.P,U1,5,VSS*%
X57270000Y-54941022D03*
%TO.P,U1,6,VSS*%
X56000000Y-54941022D03*
%TO.P,U1,7,VSS*%
X54730000Y-54941022D03*
%TO.P,U1,8,VSS*%
X53460000Y-54941022D03*
%TD*%
D37*
%TO.P,U6,1,VIN*%
%TO.N,Net-(SW1A-B)*%
X69500000Y-69591022D03*
D38*
%TO.P,U6,2,OUT*%
%TO.N,15V_ZDT*%
X69500000Y-67891022D03*
%TO.P,U6,3,GND*%
%TO.N,GND*%
X69500000Y-66191022D03*
%TO.P,U6,4,FB*%
%TO.N,15V_ZDT*%
X69500000Y-64491022D03*
%TO.P,U6,5,~{ON}/OFF*%
%TO.N,GND*%
X69500000Y-62791022D03*
%TD*%
D39*
%TO.P,R6,1*%
%TO.N,GND*%
X52000000Y-72391022D03*
%TO.P,R6,2*%
%TO.N,Net-(D6-K)*%
X50000000Y-72391022D03*
%TD*%
D23*
%TO.P,C2,1*%
%TO.N,5V_Servo34*%
X75000000Y-49457183D03*
D19*
%TO.P,C2,2*%
%TO.N,GND*%
X70000000Y-49457183D03*
%TD*%
D39*
%TO.P,R7,1*%
%TO.N,GND*%
X87000000Y-71391022D03*
%TO.P,R7,2*%
%TO.N,Net-(D7-K)*%
X85000000Y-71391022D03*
%TD*%
D26*
%TO.P,R1,1*%
%TO.N,GND*%
X59865000Y-52416022D03*
%TO.P,R1,2*%
%TO.N,Net-(D1-K)*%
X59865000Y-54416022D03*
%TD*%
D40*
%TO.P,D1,1,K*%
%TO.N,Net-(D1-K)*%
X59865000Y-56416022D03*
%TO.P,D1,2,A*%
%TO.N,5V_Other*%
X59865000Y-58466022D03*
%TD*%
D30*
%TO.P,JP2,1,A*%
%TO.N,Net-(JP2-A)*%
X92500000Y-75891022D03*
D31*
%TO.P,JP2,2,B*%
%TO.N,CAN_L*%
X90500000Y-75891022D03*
%TD*%
D41*
%TO.P,D2,1,K*%
%TO.N,Net-(D2-K)*%
X105975000Y-54391022D03*
%TO.P,D2,2,A*%
%TO.N,5V_Servo34*%
X108025000Y-54391022D03*
%TD*%
D13*
%TO.P,D6,1,K*%
%TO.N,Net-(D6-K)*%
X48025000Y-72391022D03*
%TO.P,D6,2,A*%
%TO.N,3.3V_Other*%
X45975000Y-72391022D03*
%TD*%
D42*
%TO.P,C4,1*%
%TO.N,3.3V_Other*%
X47817621Y-67891022D03*
D22*
%TO.P,C4,2*%
%TO.N,GND*%
X50317621Y-67891022D03*
%TD*%
D43*
%TO.P,R2,1*%
%TO.N,GND*%
X110500000Y-40891022D03*
%TO.P,R2,2*%
%TO.N,Net-(D3-K)*%
X110500000Y-38891022D03*
%TD*%
D40*
%TO.P,D4,1,K*%
%TO.N,Net-(D4-K)*%
X99000000Y-57341022D03*
%TO.P,D4,2,A*%
%TO.N,15V_Other*%
X99000000Y-59391022D03*
%TD*%
D44*
%TO.P,SW1,1,A*%
%TO.N,GND*%
X31203344Y-82146524D03*
%TO.P,SW1,2,B*%
%TO.N,Net-(SW1A-B)*%
X35653344Y-82146524D03*
%TO.P,SW1,3,C*%
%TO.N,Net-(PWR_IN2-Pin_1)*%
X40103344Y-82146524D03*
%TD*%
D37*
%TO.P,U4,1,VIN*%
%TO.N,Net-(SW1A-B)*%
X93500000Y-57191022D03*
D38*
%TO.P,U4,2,OUT*%
%TO.N,15V_Other*%
X93500000Y-58891022D03*
%TO.P,U4,3,GND*%
%TO.N,GND*%
X93500000Y-60591022D03*
%TO.P,U4,4,FB*%
%TO.N,15V_Other*%
X93500000Y-62291022D03*
%TO.P,U4,5,~{ON}/OFF*%
%TO.N,GND*%
X93500000Y-63991022D03*
%TD*%
D45*
%TO.P,PWR_IN1,1*%
%TO.N,Net-(PWR_IN2-Pin_1)*%
X41000000Y-67641022D03*
D46*
%TO.P,PWR_IN1,2*%
%TO.N,GND*%
X35000000Y-67641022D03*
D47*
%TO.P,PWR_IN1,MP,MountPin*%
X34000000Y-63141022D03*
X34000000Y-72141022D03*
%TD*%
D39*
%TO.P,R4,1*%
%TO.N,GND*%
X100000000Y-54391022D03*
%TO.P,R4,2*%
%TO.N,Net-(D4-K)*%
X98000000Y-54391022D03*
%TD*%
D34*
%TO.P,U2,1,VIN*%
%TO.N,Net-(SW1A-B)*%
X76032323Y-40007183D03*
D35*
%TO.P,U2,2,OUT*%
%TO.N,5V_Servo34*%
X74332323Y-40007183D03*
%TO.P,U2,3,GND*%
%TO.N,GND*%
X72632323Y-40007183D03*
%TO.P,U2,4,FB*%
%TO.N,5V_Servo34*%
X70932323Y-40007183D03*
%TO.P,U2,5,~{ON}/OFF*%
%TO.N,GND*%
X69232323Y-40007183D03*
%TD*%
D16*
%TO.P,J1,1,Pin_1*%
%TO.N,Net-(J1-Pin_1)*%
X104500000Y-43891022D03*
D17*
%TO.P,J1,2,Pin_2*%
%TO.N,Net-(J1-Pin_2)*%
X104500000Y-46431022D03*
%TO.P,J1,3,Pin_3*%
%TO.N,Net-(J1-Pin_3)*%
X104500000Y-48971022D03*
%TO.P,J1,4,Pin_4*%
%TO.N,Net-(J1-Pin_4)*%
X104500000Y-51511022D03*
D16*
%TO.P,J1,5,Pin_5*%
%TO.N,5V_Servo12*%
X107000000Y-43891022D03*
D17*
%TO.P,J1,6,Pin_6*%
X107000000Y-46431022D03*
%TO.P,J1,7,Pin_7*%
%TO.N,5V_Servo34*%
X107000000Y-48971022D03*
%TO.P,J1,8,Pin_8*%
X107000000Y-51511022D03*
D16*
%TO.P,J1,9,Pin_9*%
%TO.N,GND*%
X109500000Y-43891022D03*
D17*
%TO.P,J1,10,Pin_10*%
X109500000Y-46431022D03*
%TO.P,J1,11,Pin_11*%
X109500000Y-48971022D03*
%TO.P,J1,12,Pin_12*%
X109500000Y-51511022D03*
%TD*%
D48*
%TO.P,C7,1*%
%TO.N,15V_Other*%
X101000000Y-61023345D03*
D19*
%TO.P,C7,2*%
%TO.N,GND*%
X101000000Y-66023345D03*
%TD*%
D49*
%TO.P,D9,1,K*%
%TO.N,5V_Servo34*%
X65000000Y-55701022D03*
D50*
%TO.P,D9,2,A*%
%TO.N,GND*%
X65000000Y-40461022D03*
%TD*%
D51*
%TO.P,D8,1,K*%
%TO.N,15V_Other*%
X89500000Y-60891022D03*
D50*
%TO.P,D8,2,A*%
%TO.N,GND*%
X74260000Y-60891022D03*
%TD*%
D49*
%TO.P,D10,1,K*%
%TO.N,5V_Servo12*%
X81500000Y-55701022D03*
D50*
%TO.P,D10,2,A*%
%TO.N,GND*%
X81500000Y-40461022D03*
%TD*%
D52*
%TO.P,D11,1,K*%
%TO.N,15V_ZDT*%
X74380000Y-69391022D03*
D50*
%TO.P,D11,2,A*%
%TO.N,GND*%
X89620000Y-69391022D03*
%TD*%
D49*
%TO.P,D12,1,K*%
%TO.N,Net-(D12-K)*%
X55365000Y-67036022D03*
D50*
%TO.P,D12,2,A*%
%TO.N,GND*%
X55365000Y-51796022D03*
%TD*%
D53*
%TO.N,GND*%
X32625611Y-76956568D03*
%TO.N,5V_Other*%
X55000000Y-75091022D03*
X58165000Y-68191022D03*
X62000000Y-73500000D03*
%TO.N,15V_Other*%
X65000000Y-72891022D03*
%TO.N,3.3V_Other*%
X56005614Y-78941022D03*
%TO.N,Net-(SW1A-B)*%
X96000000Y-47391022D03*
X96000000Y-49391022D03*
%TO.N,5V_Servo12*%
X103500000Y-38391022D03*
X105975000Y-38416022D03*
%TO.N,5V_Servo34*%
X77500000Y-47391022D03*
%TO.N,Net-(D12-K)*%
X55000000Y-57391022D03*
%TD*%
D54*
%TO.N,GND*%
X84465000Y-43426022D02*
X81500000Y-40461022D01*
X110500000Y-42891022D02*
X109500000Y-43891022D01*
X98967677Y-63991022D02*
X101000000Y-66023345D01*
X55365000Y-53036022D02*
X53460000Y-54941022D01*
D55*
X84465000Y-43426022D02*
X84465000Y-45426022D01*
D54*
X52000000Y-70891022D02*
X52000000Y-69573401D01*
X97433838Y-62457184D02*
X101000000Y-66023345D01*
D55*
X42375000Y-58266022D02*
X42375000Y-54766022D01*
D54*
X71665080Y-37860451D02*
X72632323Y-38827694D01*
X83826906Y-38134116D02*
X87682583Y-38134116D01*
X55500000Y-54941022D02*
X57270000Y-54941022D01*
X55717919Y-80891022D02*
X61500000Y-80891022D01*
X65000000Y-80891022D02*
X67000000Y-82891022D01*
X69232323Y-40007183D02*
X65962323Y-40007183D01*
X29853672Y-80796852D02*
X31203344Y-82146524D01*
D55*
X76000000Y-60891022D02*
X74260000Y-60891022D01*
D54*
X96000000Y-63991022D02*
X95500000Y-63991022D01*
X53460000Y-54941022D02*
X55500000Y-54941022D01*
X68109055Y-37860451D02*
X71665080Y-37860451D01*
D55*
X89620000Y-69391022D02*
X97632323Y-69391022D01*
X55365000Y-51796022D02*
X51000000Y-51796022D01*
D54*
X95567677Y-60591022D02*
X97433838Y-62457184D01*
D56*
X29853672Y-77947798D02*
X29853672Y-80796852D01*
D54*
X56951000Y-74951000D02*
X62001000Y-80001000D01*
X65632323Y-40337183D02*
X68109055Y-37860451D01*
D55*
X84632323Y-64891022D02*
X85120000Y-64891022D01*
D54*
X110500000Y-40891022D02*
X110500000Y-42891022D01*
X72632323Y-38827694D02*
X72632323Y-40007183D01*
X102000000Y-56391022D02*
X104000000Y-58391022D01*
X59865000Y-52416022D02*
X55985000Y-52416022D01*
X62001000Y-80001000D02*
X62001000Y-80390022D01*
D55*
X77500000Y-59391022D02*
X76000000Y-60891022D01*
D54*
X56000000Y-54441022D02*
X56000000Y-52431022D01*
X85867677Y-49581022D02*
X85867677Y-44828699D01*
D55*
X48000000Y-55891022D02*
X48000000Y-54451022D01*
D57*
X57270000Y-59891022D02*
X57270000Y-54941022D01*
D54*
X56000000Y-52431022D02*
X55365000Y-51796022D01*
D55*
X43375000Y-53766022D02*
X38875000Y-58266022D01*
D57*
X52000000Y-72391022D02*
X52000000Y-70891022D01*
D55*
X79000000Y-60891022D02*
X80632323Y-60891022D01*
X70000000Y-49457183D02*
X70000000Y-44704860D01*
D54*
X56951000Y-72451000D02*
X56951000Y-74951000D01*
D55*
X48000000Y-54451022D02*
X45345000Y-51796022D01*
D54*
X87620000Y-71391022D02*
X89620000Y-69391022D01*
D56*
X31634381Y-77947798D02*
X32625611Y-76956568D01*
D55*
X50317621Y-66208643D02*
X50317621Y-67891022D01*
D54*
X52000000Y-70891022D02*
X55391022Y-70891022D01*
X97433838Y-62557184D02*
X96000000Y-63991022D01*
X53920000Y-83891022D02*
X53920000Y-82688941D01*
D55*
X38875000Y-58266022D02*
X42375000Y-58266022D01*
D56*
X29853672Y-76679835D02*
X29853672Y-77947798D01*
D55*
X70000000Y-44704860D02*
X65632323Y-40337183D01*
D54*
X52650000Y-79691022D02*
X52650000Y-83741022D01*
X87000000Y-71391022D02*
X87620000Y-71391022D01*
D55*
X38875000Y-58266022D02*
X34000000Y-63141022D01*
D54*
X81500000Y-40461022D02*
X83826906Y-38134116D01*
X61500000Y-80891022D02*
X63000000Y-80891022D01*
D55*
X77500000Y-59391022D02*
X79000000Y-60891022D01*
D54*
X87682583Y-38134116D02*
X88500000Y-38951533D01*
X97433838Y-62457184D02*
X97433838Y-62557184D01*
D55*
X48345000Y-54451022D02*
X51000000Y-51796022D01*
D54*
X52650000Y-83741022D02*
X52500000Y-83891022D01*
X93500000Y-63991022D02*
X95000000Y-63991022D01*
X55500000Y-54941022D02*
X56000000Y-54441022D01*
X104000000Y-60391022D02*
X107500000Y-63891022D01*
X102000000Y-54391022D02*
X102000000Y-56391022D01*
X62001000Y-80390022D02*
X62499000Y-80390022D01*
D56*
X47561584Y-83891022D02*
X52500000Y-83891022D01*
D54*
X62499000Y-80390022D02*
X63000000Y-80891022D01*
D55*
X80632323Y-60891022D02*
X84632323Y-64891022D01*
D54*
X53920000Y-82688941D02*
X55717919Y-80891022D01*
X63000000Y-80891022D02*
X65000000Y-80891022D01*
D56*
X52500000Y-83891022D02*
X53920000Y-83891022D01*
D54*
X102000000Y-54391022D02*
X100000000Y-54391022D01*
D55*
X85120000Y-64891022D02*
X89620000Y-69391022D01*
D54*
X93500000Y-60591022D02*
X95567677Y-60591022D01*
X62001000Y-80390022D02*
X61500000Y-80891022D01*
X96000000Y-63991022D02*
X98967677Y-63991022D01*
X85100000Y-40131022D02*
X81830000Y-40131022D01*
D55*
X45345000Y-51796022D02*
X43375000Y-53766022D01*
X51000000Y-51796022D02*
X45345000Y-51796022D01*
D54*
X95000000Y-63991022D02*
X96000000Y-63991022D01*
D55*
X74260000Y-60891022D02*
X79000000Y-60891022D01*
D54*
X55391022Y-70891022D02*
X56951000Y-72451000D01*
D56*
X29853672Y-77947798D02*
X31634381Y-77947798D01*
D55*
X42375000Y-58266022D02*
X50317621Y-66208643D01*
X84465000Y-45426022D02*
X77500000Y-52391022D01*
X77500000Y-52391022D02*
X77500000Y-59391022D01*
D54*
X104000000Y-58391022D02*
X104000000Y-60391022D01*
D55*
X48000000Y-54451022D02*
X48345000Y-54451022D01*
D54*
X81830000Y-40131022D02*
X81500000Y-40461022D01*
X55365000Y-51796022D02*
X55365000Y-53036022D01*
X52000000Y-69573401D02*
X50317621Y-67891022D01*
X88500000Y-38951533D02*
X88500000Y-40131022D01*
X65962323Y-40007183D02*
X65632323Y-40337183D01*
D55*
X97632323Y-69391022D02*
X101000000Y-66023345D01*
X42375000Y-54766022D02*
X43375000Y-53766022D01*
D54*
X55985000Y-52416022D02*
X55365000Y-51796022D01*
X85867677Y-44828699D02*
X84465000Y-43426022D01*
D57*
%TO.N,Net-(D1-K)*%
X59865000Y-56416022D02*
X59865000Y-54416022D01*
%TO.N,5V_Other*%
X62000000Y-60601022D02*
X59865000Y-58466022D01*
X57404969Y-62208643D02*
X62000000Y-62208643D01*
X56000000Y-60803674D02*
X57404969Y-62208643D01*
X56000000Y-59891022D02*
X56000000Y-60803674D01*
X59691022Y-68191022D02*
X62000000Y-70500000D01*
X62000000Y-70500000D02*
X62000000Y-73500000D01*
D54*
X55000000Y-75091022D02*
X52650000Y-75091022D01*
D57*
X58165000Y-68191022D02*
X59691022Y-68191022D01*
X62000000Y-62208643D02*
X62000000Y-60601022D01*
D54*
%TO.N,Net-(D3-K)*%
X109324999Y-38891022D02*
X110500000Y-38891022D01*
X108025000Y-40191021D02*
X109324999Y-38891022D01*
X108025000Y-40891021D02*
X108025000Y-40191021D01*
D55*
%TO.N,15V_ZDT*%
X74380000Y-66971022D02*
X77552323Y-66971022D01*
X71000000Y-80759497D02*
X73131525Y-82891022D01*
X72690000Y-71081022D02*
X71000000Y-72771022D01*
D54*
X69500000Y-67891022D02*
X72880000Y-67891022D01*
D55*
X73131525Y-82891022D02*
X75345000Y-82891022D01*
X77552323Y-66971022D02*
X79632323Y-64891022D01*
D54*
X76380000Y-71391022D02*
X74380000Y-69391022D01*
X77475000Y-71391022D02*
X76380000Y-71391022D01*
D55*
X71000000Y-72771022D02*
X71000000Y-80759497D01*
D54*
X72880000Y-67891022D02*
X74380000Y-69391022D01*
D55*
X74380000Y-69391022D02*
X74380000Y-66971022D01*
D54*
X69500000Y-64491022D02*
X71900000Y-64491022D01*
D56*
X72690000Y-71081022D02*
X72690000Y-68661022D01*
X72690000Y-71081022D02*
X73440000Y-70331022D01*
D54*
X71900000Y-64491022D02*
X74380000Y-66971022D01*
D56*
X72690000Y-68661022D02*
X74380000Y-66971022D01*
D55*
X74380000Y-69391022D02*
X72690000Y-71081022D01*
D54*
%TO.N,Net-(D2-K)*%
X105975000Y-54391022D02*
X104000000Y-54391022D01*
%TO.N,Net-(D4-K)*%
X98000000Y-54391022D02*
X98000000Y-56341022D01*
X98000000Y-56341022D02*
X99000000Y-57341022D01*
%TO.N,Net-(D5-A)*%
X29853672Y-74629835D02*
X29906040Y-74577467D01*
X29906040Y-74577467D02*
X35912301Y-74577467D01*
%TO.N,Net-(J1-Pin_1)*%
X100560375Y-43891022D02*
X100500000Y-43951397D01*
X104500000Y-43891022D02*
X100560375Y-43891022D01*
%TO.N,CAN_L*%
X82270000Y-80051022D02*
X82270000Y-79319022D01*
X91000000Y-86140022D02*
X105251000Y-86140022D01*
X105251000Y-86140022D02*
X109000000Y-82391022D01*
X82270000Y-79319022D02*
X83698000Y-77891022D01*
X86500000Y-77891022D02*
X88500000Y-79891022D01*
X83698000Y-77891022D02*
X86500000Y-77891022D01*
X88500000Y-83640022D02*
X91000000Y-86140022D01*
X88500000Y-79891022D02*
X88500000Y-83640022D01*
%TO.N,Net-(J1-Pin_4)*%
X100560375Y-51511022D02*
X100500000Y-51571397D01*
X104500000Y-51511022D02*
X100560375Y-51511022D01*
%TO.N,Net-(J1-Pin_2)*%
X100560375Y-46431022D02*
X100500000Y-46491397D01*
X104500000Y-46431022D02*
X100560375Y-46431022D01*
%TO.N,Net-(J1-Pin_3)*%
X104439625Y-49031397D02*
X104500000Y-48971022D01*
X100500000Y-49031397D02*
X104439625Y-49031397D01*
D56*
%TO.N,Net-(PWR_IN2-Pin_1)*%
X45021584Y-83891022D02*
X41847842Y-83891022D01*
D58*
X41000000Y-67641022D02*
X41000000Y-81249868D01*
D56*
X41847842Y-83891022D02*
X40103344Y-82146524D01*
D58*
X41000000Y-81249868D02*
X40103344Y-82146524D01*
D54*
%TO.N,CAN_H*%
X79500000Y-80051022D02*
X79500000Y-79683445D01*
X87204578Y-76190022D02*
X90201000Y-79186445D01*
X100795423Y-79186445D02*
X104000000Y-82391022D01*
X98000000Y-79186445D02*
X100795423Y-79186445D01*
X98000000Y-76391022D02*
X98000000Y-79186445D01*
X79500000Y-79683445D02*
X82993423Y-76190022D01*
X90201000Y-79186445D02*
X98000000Y-79186445D01*
X82993423Y-76190022D02*
X87204578Y-76190022D01*
%TO.N,15V_Other*%
X99000000Y-59391022D02*
X99367677Y-59391022D01*
X99367677Y-59391022D02*
X101000000Y-61023345D01*
D56*
X57909643Y-63909643D02*
X53518621Y-63909643D01*
X65000000Y-72891022D02*
X65000000Y-71000000D01*
X51500000Y-60891022D02*
X52500000Y-59891022D01*
X51500000Y-61891022D02*
X51500000Y-60891022D01*
X65000000Y-71000000D02*
X57909643Y-63909643D01*
D57*
X52500000Y-59891022D02*
X53460000Y-59891022D01*
D56*
X53518621Y-63909643D02*
X51500000Y-61891022D01*
D54*
%TO.N,3.3V_Other*%
X55000000Y-77391022D02*
X52650000Y-77391022D01*
X56460000Y-85093103D02*
X57208919Y-85842022D01*
X56005614Y-78396636D02*
X55000000Y-77391022D01*
X77934000Y-85842022D02*
X80885000Y-82891022D01*
X57208919Y-85842022D02*
X77934000Y-85842022D01*
X45975000Y-72391022D02*
X45975000Y-69733643D01*
X56005614Y-78941022D02*
X56005614Y-78396636D01*
X45975000Y-72391022D02*
X45975000Y-77016022D01*
X56460000Y-83891022D02*
X56460000Y-85093103D01*
X46350000Y-77391022D02*
X52650000Y-77391022D01*
X45975000Y-69733643D02*
X47817621Y-67891022D01*
X45975000Y-77016022D02*
X46350000Y-77391022D01*
%TO.N,Net-(D6-K)*%
X48025000Y-72391022D02*
X50000000Y-72391022D01*
%TO.N,Net-(D7-K)*%
X79525000Y-71391022D02*
X85000000Y-71391022D01*
%TO.N,Net-(JP2-A)*%
X93001000Y-76392022D02*
X96000000Y-76392022D01*
X92500000Y-75891022D02*
X93001000Y-76392022D01*
%TO.N,Net-(SW1A-B)*%
X93500000Y-51891022D02*
X93500000Y-57191022D01*
D56*
X35912301Y-76577467D02*
X35912301Y-81887567D01*
X35912301Y-81887567D02*
X35653344Y-82146524D01*
D54*
X96000000Y-47391022D02*
X93500000Y-49891022D01*
X35653344Y-81805765D02*
X35653344Y-82146524D01*
X96000000Y-49391022D02*
X93500000Y-51891022D01*
X93500000Y-49891022D02*
X93500000Y-51891022D01*
%TO.N,5V_Servo12*%
X86800000Y-42006022D02*
X88375000Y-43581022D01*
D56*
X98500000Y-40391022D02*
X94442323Y-44448699D01*
X94442323Y-44448699D02*
X90867677Y-44448699D01*
D54*
X86800000Y-40131022D02*
X86800000Y-42006022D01*
D56*
X102497999Y-40891021D02*
X105975000Y-40891021D01*
X81500000Y-55701022D02*
X84747677Y-55701022D01*
X84747677Y-55701022D02*
X90867677Y-49581022D01*
X101998000Y-39893022D02*
X103500000Y-38391022D01*
D54*
X90200000Y-43381022D02*
X90000000Y-43581022D01*
D56*
X90000000Y-43581022D02*
X90867677Y-44448699D01*
X101998000Y-40391022D02*
X102497999Y-40891021D01*
X101998000Y-40391022D02*
X101998000Y-39893022D01*
D54*
X90200000Y-40131022D02*
X90200000Y-43381022D01*
D56*
X105975000Y-40891021D02*
X104000001Y-40891021D01*
X104000001Y-40391021D02*
X105975000Y-38416022D01*
X90867677Y-44448699D02*
X90867677Y-49581022D01*
X101998000Y-40391022D02*
X98500000Y-40391022D01*
X104000001Y-40891021D02*
X104000001Y-40391021D01*
X105975000Y-40891021D02*
X105975000Y-38416022D01*
D54*
X88375000Y-43581022D02*
X90000000Y-43581022D01*
D56*
%TO.N,5V_Servo34*%
X74132323Y-43457183D02*
X75000000Y-44324860D01*
D54*
X70932323Y-41882183D02*
X72507323Y-43457183D01*
D56*
X65632323Y-55577183D02*
X68880000Y-55577183D01*
D54*
X74332323Y-43257183D02*
X74132323Y-43457183D01*
D56*
X77066161Y-47391022D02*
X75000000Y-49457183D01*
X75000000Y-44324860D02*
X75000000Y-49457183D01*
D54*
X107000000Y-51511022D02*
X107000000Y-52582072D01*
D56*
X75000000Y-44324860D02*
X75000000Y-44891022D01*
X77500000Y-47391022D02*
X77066161Y-47391022D01*
X75000000Y-44891022D02*
X77500000Y-47391022D01*
X68880000Y-55577183D02*
X75000000Y-49457183D01*
D54*
X70932323Y-40007183D02*
X70932323Y-41882183D01*
X107000000Y-52582072D02*
X108025000Y-53607072D01*
X72507323Y-43457183D02*
X74132323Y-43457183D01*
X74332323Y-40007183D02*
X74332323Y-43257183D01*
X108025000Y-53607072D02*
X108025000Y-54391022D01*
D57*
%TO.N,Net-(D12-K)*%
X54730000Y-57661022D02*
X55000000Y-57391022D01*
X54730000Y-59891022D02*
X54730000Y-57661022D01*
%TD*%
M02*
