M48
; DRILL file {KiCad 9.0.2} date 2025-06-26T14:56:26+0800
; FORMAT={-:-/ absolute / metric / decimal}
; #@! TF.CreationDate,2025-06-26T14:56:26+08:00
; #@! TF.GenerationSoftware,Kicad,Pcbnew,9.0.2
; #@! TF.FileFunction,Plated,1,2,PTH
FMAT,2
METRIC
; #@! TA.AperFunction,Plated,PTH,ComponentDrill
T1C0.800
; #@! TA.AperFunction,Plated,PTH,ViaDrill
T2C1.000
; #@! TA.AperFunction,Plated,PTH,ComponentDrill
T3C1.000
; #@! TA.AperFunction,Plated,PTH,ComponentDrill
T4C1.100
; #@! TA.AperFunction,Plated,PTH,ComponentDrill
T5C1.300
; #@! TA.AperFunction,Plated,PTH,ComponentDrill
T6C1.600
; #@! TA.AperFunction,Plated,PTH,ComponentDrill
T7C3.200
%
G90
G05
T1
X47.818Y-67.891
X48.0Y-55.891
X48.0Y-58.391
X50.318Y-67.891
X62.0Y-62.209
X62.0Y-64.709
X77.0Y-75.891
X79.0Y-75.891
X90.5Y-75.891
X92.5Y-75.891
T2
X32.626Y-76.957
X55.0Y-57.391
X55.0Y-75.091
X56.006Y-78.941
X58.165Y-68.191
X62.0Y-73.5
X65.0Y-72.891
X77.5Y-47.391
X96.0Y-47.391
X96.0Y-49.391
X103.5Y-38.391
X105.975Y-38.416
T3
X45.022Y-83.891
X47.562Y-83.891
X53.92Y-83.891
X56.46Y-83.891
X59.0Y-83.891
X61.54Y-83.891
X70.0Y-49.457
X73.96Y-80.051
X75.0Y-49.457
X75.345Y-82.891
X76.73Y-80.051
X78.115Y-82.891
X79.5Y-80.051
X79.632Y-64.891
X80.885Y-82.891
X82.27Y-80.051
X83.655Y-82.891
X84.632Y-64.891
X85.04Y-80.051
X85.868Y-49.581
X90.868Y-49.581
X100.5Y-43.951
X100.5Y-46.491
X100.5Y-49.031
X100.5Y-51.571
X101.0Y-61.023
X101.0Y-66.023
X104.5Y-43.891
X104.5Y-46.431
X104.5Y-48.971
X104.5Y-51.511
X107.0Y-43.891
X107.0Y-46.431
X107.0Y-48.971
X107.0Y-51.511
X109.5Y-43.891
X109.5Y-46.431
X109.5Y-48.971
X109.5Y-51.511
T4
X69.232Y-40.007
X69.5Y-62.791
X69.5Y-64.491
X69.5Y-66.191
X69.5Y-67.891
X69.5Y-69.591
X70.932Y-40.007
X72.632Y-40.007
X74.332Y-40.007
X76.032Y-40.007
X85.1Y-40.131
X86.8Y-40.131
X88.5Y-40.131
X90.2Y-40.131
X91.9Y-40.131
X93.5Y-57.191
X93.5Y-58.891
X93.5Y-60.591
X93.5Y-62.291
X93.5Y-63.991
T5
X99.0Y-82.391
X104.0Y-82.391
X107.5Y-58.891
X107.5Y-63.891
X107.5Y-68.891
X107.5Y-73.891
X109.0Y-82.391
T6
X55.365Y-51.796
X55.365Y-67.036
X65.0Y-40.461
X65.0Y-55.701
X74.26Y-60.891
X74.38Y-69.391
X81.5Y-40.461
X81.5Y-55.701
X89.5Y-60.891
X89.62Y-69.391
T7
X67.0Y-82.891
X92.0Y-82.891
T3
G00X31.203Y-81.497
M15
G01X31.203Y-82.797
M16
G05
G00X34.75Y-63.141
M15
G01X33.25Y-63.141
M16
G05
G00X34.75Y-72.141
M15
G01X33.25Y-72.141
M16
G05
G00X35.0Y-66.991
M15
G01X35.0Y-68.291
M16
G05
G00X35.653Y-81.497
M15
G01X35.653Y-82.797
M16
G05
G00X40.103Y-81.497
M15
G01X40.103Y-82.797
M16
G05
G00X41.0Y-66.641
M15
G01X41.0Y-68.641
M16
G05
M30
