%TF.GenerationSoftware,KiCad,Pcbnew,9.0.2*%
%TF.CreationDate,2025-06-26T14:56:16+08:00*%
%TF.ProjectId,deehli_board,64656568-6c69-45f6-926f-6172642e6b69,rev?*%
%TF.SameCoordinates,Original*%
%TF.FileFunction,Paste,Top*%
%TF.FilePolarity,Positive*%
%FSLAX46Y46*%
G04 Gerber Fmt 4.6, Leading zero omitted, Abs format (unit mm)*
G04 Created by KiCad (PCBNEW 9.0.2) date 2025-06-26 14:56:16*
%MOMM*%
%LPD*%
G01*
G04 APERTURE LIST*
G04 Aperture macros list*
%AMRoundRect*
0 Rectangle with rounded corners*
0 $1 Rounding radius*
0 $2 $3 $4 $5 $6 $7 $8 $9 X,Y pos of 4 corners*
0 Add a 4 corners polygon primitive as box body*
4,1,4,$2,$3,$4,$5,$6,$7,$8,$9,$2,$3,0*
0 Add four circle primitives for the rounded corners*
1,1,$1+$1,$2,$3*
1,1,$1+$1,$4,$5*
1,1,$1+$1,$6,$7*
1,1,$1+$1,$8,$9*
0 Add four rect primitives between the rounded corners*
20,1,$1+$1,$2,$3,$4,$5,0*
20,1,$1+$1,$4,$5,$6,$7,0*
20,1,$1+$1,$6,$7,$8,$9,0*
20,1,$1+$1,$8,$9,$2,$3,0*%
G04 Aperture macros list end*
%ADD10RoundRect,0.250000X0.325000X0.450000X-0.325000X0.450000X-0.325000X-0.450000X0.325000X-0.450000X0*%
%ADD11RoundRect,0.250000X-0.350000X-0.450000X0.350000X-0.450000X0.350000X0.450000X-0.350000X0.450000X0*%
%ADD12RoundRect,0.250000X-0.450000X0.350000X-0.450000X-0.350000X0.450000X-0.350000X0.450000X0.350000X0*%
%ADD13RoundRect,0.375000X0.625000X0.375000X-0.625000X0.375000X-0.625000X-0.375000X0.625000X-0.375000X0*%
%ADD14RoundRect,0.500000X0.500000X1.400000X-0.500000X1.400000X-0.500000X-1.400000X0.500000X-1.400000X0*%
%ADD15RoundRect,0.250000X0.450000X-0.325000X0.450000X0.325000X-0.450000X0.325000X-0.450000X-0.325000X0*%
%ADD16RoundRect,0.150000X0.150000X-0.825000X0.150000X0.825000X-0.150000X0.825000X-0.150000X-0.825000X0*%
%ADD17RoundRect,0.250000X0.350000X0.450000X-0.350000X0.450000X-0.350000X-0.450000X0.350000X-0.450000X0*%
%ADD18RoundRect,0.250000X-0.450000X0.325000X-0.450000X-0.325000X0.450000X-0.325000X0.450000X0.325000X0*%
%ADD19RoundRect,0.250000X-0.325000X-0.450000X0.325000X-0.450000X0.325000X0.450000X-0.325000X0.450000X0*%
%ADD20RoundRect,0.250000X0.450000X-0.350000X0.450000X0.350000X-0.450000X0.350000X-0.450000X-0.350000X0*%
G04 APERTURE END LIST*
D10*
%TO.C,D7*%
X79525000Y-71391022D03*
X77475000Y-71391022D03*
%TD*%
%TO.C,D3*%
X108025000Y-40891021D03*
X105975000Y-40891021D03*
%TD*%
D11*
%TO.C,R8*%
X96000000Y-76391022D03*
X98000000Y-76391022D03*
%TD*%
D12*
%TO.C,R5*%
X35912301Y-74577467D03*
X35912301Y-76577467D03*
%TD*%
D13*
%TO.C,U5*%
X52650000Y-79691022D03*
X52650000Y-77391022D03*
D14*
X46350000Y-77391022D03*
D13*
X52650000Y-75091022D03*
%TD*%
D15*
%TO.C,D5*%
X29853672Y-76679835D03*
X29853672Y-74629835D03*
%TD*%
D11*
%TO.C,R3*%
X102000000Y-54391022D03*
X104000000Y-54391022D03*
%TD*%
D16*
%TO.C,U1*%
X53460000Y-59891022D03*
X54730000Y-59891022D03*
X56000000Y-59891022D03*
X57270000Y-59891022D03*
X57270000Y-54941022D03*
X56000000Y-54941022D03*
X54730000Y-54941022D03*
X53460000Y-54941022D03*
%TD*%
D17*
%TO.C,R6*%
X52000000Y-72391022D03*
X50000000Y-72391022D03*
%TD*%
%TO.C,R7*%
X87000000Y-71391022D03*
X85000000Y-71391022D03*
%TD*%
D12*
%TO.C,R1*%
X59865000Y-52416022D03*
X59865000Y-54416022D03*
%TD*%
D18*
%TO.C,D1*%
X59865000Y-56416022D03*
X59865000Y-58466022D03*
%TD*%
D19*
%TO.C,D2*%
X105975000Y-54391022D03*
X108025000Y-54391022D03*
%TD*%
D10*
%TO.C,D6*%
X48025000Y-72391022D03*
X45975000Y-72391022D03*
%TD*%
D20*
%TO.C,R2*%
X110500000Y-40891022D03*
X110500000Y-38891022D03*
%TD*%
D18*
%TO.C,D4*%
X99000000Y-57341022D03*
X99000000Y-59391022D03*
%TD*%
D17*
%TO.C,R4*%
X100000000Y-54391022D03*
X98000000Y-54391022D03*
%TD*%
M02*
